# Blender v2.90.1 OBJ File: 'script_generator.blend'
# www.blender.org
mtllib 15f_path.mtl
o foil.ending.0.4_ending.359
v 11.500000 0.250000 -8.500000
v 11.500000 0.250000 -7.500000
v 13.000000 -0.500000 -9.000000
v 13.000000 0.500000 -9.000000
v 11.000000 -0.500000 -9.000000
v 11.000000 0.500000 -9.000000
v 13.000000 -0.500000 -7.000000
v 13.000000 0.500000 -7.000000
v 11.000000 -0.500000 -7.000000
v 11.000000 0.500000 -7.000000
v 13.000000 0.250000 -7.500000
v 13.000000 0.250000 -8.500000
v 11.000000 0.500000 -7.500000
v 11.000000 0.500000 -8.500000
v 11.500000 0.500000 -7.000000
v 11.500000 0.500000 -9.000000
vt 0.125000 0.500000
vt 0.375000 0.500000
vt 0.625000 0.500000
vt 0.000000 0.000000
vt 0.000000 0.000000
vt 0.625000 0.250000
vt 0.375000 0.000000
vt 0.375000 0.250000
vt 0.625000 0.187500
vt 0.625000 0.000000
vt 0.375000 0.750000
vt 0.625000 0.750000
vt 0.625000 0.562500
vt 0.125000 0.750000
vt 0.000000 0.000000
vt 0.000000 0.000000
vt 0.000000 0.000000
vt 0.000000 0.000000
vt 0.000000 0.000000
vt 0.000000 0.000000
vt 0.000000 0.000000
vt 0.000000 0.000000
vt 0.000000 0.000000
vt 0.000000 0.000000
vt 0.125000 0.500000
vt 0.312500 0.500000
vt 0.312500 0.750000
vt 0.125000 0.750000
vt 0.000000 0.000000
vt 0.000000 0.000000
vn -1.0000 0.0000 0.0000
vn 0.0000 0.0000 -1.0000
vn 0.0000 1.0000 0.0000
vn 0.0000 0.0000 1.0000
vn 0.0000 -1.0000 0.0000
vn 1.0000 0.0000 0.0000
vn 0.4082 0.8165 -0.4082
vn 0.4082 0.8165 0.4082
vn 0.4472 0.8944 0.0000
vn 0.0000 0.8944 -0.4472
vn 0.0000 0.8944 0.4472
usemtl Material
s off
f 5/1/1 9/2/1 10/3/1 13/4/1 14/5/1 6/6/1
f 3/7/2 5/8/2 6/6/2 16/9/2 4/10/2
f 16/9/3 6/6/3 14/5/3
f 9/2/4 7/11/4 8/12/4 15/13/4 10/3/4
f 15/13/3 13/4/3 10/3/3
f 5/1/5 3/14/5 7/11/5 9/2/5
f 10/15/4 9/16/4 7/17/4 8/18/4
f 6/19/2 4/20/2 3/21/2 5/22/2
f 3/21/6 4/20/6 12/23/6 11/24/6 8/18/6 7/17/6
usemtl PathFace
f 2/25/3 11/26/3 12/27/3 1/28/3
f 13/4/7 15/13/7 2/29/7
f 16/9/8 14/5/8 1/30/8
f 1/30/9 14/5/9 13/4/9 2/29/9
f 11/26/10 2/29/10 15/13/10 8/12/10
f 1/28/11 12/27/11 4/10/11 16/9/11
o foil.hole.1.0_Cube.181
v 13.500000 0.250000 -0.500000
v 13.000000 -0.500000 -1.000000
v 13.000000 0.500000 -1.000000
v 13.500000 0.500000 -1.000000
v 13.000000 0.500000 -0.500000
v 14.500000 0.250000 -0.500000
v 15.000000 -0.500000 -1.000000
v 15.000000 0.500000 -1.000000
v 14.500000 0.500000 -1.000000
v 15.000000 0.500000 -0.500000
v 13.500000 0.250000 0.500000
v 13.000000 -0.500000 1.000000
v 13.000000 0.500000 1.000000
v 13.500000 0.500000 1.000000
v 13.000000 0.500000 0.500000
v 14.500000 0.250000 0.500000
v 15.000000 -0.500000 1.000000
v 15.000000 0.500000 1.000000
v 14.500000 0.500000 1.000000
v 15.000000 0.500000 0.500000
vt 0.625000 0.187500
vt 0.000000 0.000000
vt 0.625000 0.250000
vt 0.375000 0.812500
vt 0.375000 0.750000
vt 1.000000 1.000000
vt 0.375000 0.812500
vt 0.375000 0.750000
vt 1.000000 1.000000
vt 0.625000 0.187500
vt 0.000000 0.000000
vt 0.625000 0.250000
vt 0.875000 0.500000
vt 0.000000 0.000000
vt 0.125000 0.500000
vt 0.000000 0.000000
vt 0.000000 0.000000
vt 1.000000 1.000000
vt 1.000000 1.000000
vt 0.000000 0.000000
vt 0.000000 0.000000
vn 0.0000 1.0000 0.0000
vn 0.0000 0.0000 -1.0000
vn 1.0000 0.0000 0.0000
vn -1.0000 0.0000 0.0000
vn 0.0000 0.0000 1.0000
vn 0.0000 -1.0000 0.0000
vn 0.4082 0.8165 0.4082
vn -0.4082 0.8165 0.4082
vn 0.4472 0.8944 0.0000
vn 0.4082 0.8165 -0.4082
vn -0.4472 0.8944 0.0000
vn -0.4082 0.8165 -0.4082
vn 0.0000 0.8944 0.4472
vn 0.0000 0.8944 -0.4472
usemtl Material
s off
f 21/31/12 20/32/12 19/33/12
f 26/34/12 24/35/12 25/36/12
f 31/37/12 29/38/12 30/39/12
f 36/40/12 35/41/12 34/42/12
f 19/33/13 20/32/13 25/36/13 24/35/13 23/43/13 18/44/13
f 24/35/14 26/34/14 36/40/14 34/42/14 33/45/14 23/43/14
f 18/44/15 28/46/15 29/38/15 31/37/15 21/31/15 19/33/15
f 29/38/16 28/46/16 33/45/16 34/42/16 35/41/16 30/39/16
f 28/46/17 18/44/17 23/43/17 33/45/17
usemtl PathFace
f 21/31/18 17/47/18 20/32/18
f 26/34/19 25/36/19 22/48/19
f 21/31/20 31/37/20 27/49/20 17/47/20
f 31/37/21 30/39/21 27/49/21
f 22/48/12 17/47/12 27/50/12 32/51/12
f 26/34/22 22/48/22 32/51/22 36/40/22
f 36/40/23 32/51/23 35/41/23
f 20/32/24 17/47/24 22/48/24 25/36/24
f 30/39/25 35/41/25 32/51/25 27/50/25
o foil.through.1.4_through.180
v 15.000004 -0.500000 -7.000004
v 15.000004 0.500000 -7.000004
v 13.000004 -0.500000 -6.999996
v 13.000004 0.500000 -6.999996
v 14.999996 -0.500000 -9.000004
v 14.999996 0.500000 -9.000004
v 12.999996 -0.500000 -8.999996
v 12.999996 0.500000 -8.999996
v 12.999998 0.250000 -8.499996
v 14.999998 0.250000 -8.500004
v 13.000002 0.250000 -7.499997
v 15.000002 0.250000 -7.500004
vt 0.375000 0.000000
vt 0.625000 0.000000
vt 0.625000 0.250000
vt 0.375000 0.250000
vt 0.375000 0.500000
vt 0.625000 0.500000
vt 0.625000 0.750000
vt 0.375000 0.750000
vt 0.152781 0.750000
vt 0.152781 0.500000
vt 0.125000 0.500000
vt 0.125000 0.750000
vt 0.282406 0.500000
vt 0.282406 0.750000
vn 0.0000 0.0000 1.0000
vn -0.0000 0.0000 -1.0000
vn -1.0000 0.0000 0.0000
vn 0.0000 -1.0000 0.0000
vn 1.0000 0.0000 -0.0000
vn -0.0000 0.8944 -0.4472
vn 0.0000 0.8944 0.4472
vn 0.0000 1.0000 0.0000
usemtl Material
s off
f 37/52/26 38/53/26 40/54/26 39/55/26
f 43/56/27 44/57/27 42/58/27 41/59/27
f 40/54/28 47/60/28 45/61/28 44/57/28 43/56/28 39/62/28
f 39/62/29 43/56/29 41/59/29 37/63/29
f 38/53/30 37/63/30 41/59/30 42/58/30 46/64/30 48/65/30
usemtl PathFace
f 38/53/31 48/65/31 47/60/31 40/54/31
f 44/57/32 45/61/32 46/64/32 42/58/32
f 47/60/33 48/65/33 46/64/33 45/61/33
o foil.corner.2.2_corner.896
v 15.500000 0.250000 -3.500000
v 17.000000 -0.500000 -5.000000
v 17.000000 0.500000 -5.000000
v 15.000000 -0.500000 -5.000000
v 15.000000 0.500000 -5.000000
v 17.000000 -0.500000 -3.000000
v 17.000000 0.500000 -3.000000
v 15.000000 -0.500000 -3.000000
v 15.000000 0.500000 -3.000000
v 17.000000 0.250000 -3.500000
v 17.000000 0.250000 -4.500000
v 15.500000 0.250000 -5.000000
v 16.500000 0.250000 -5.000000
v 16.500000 0.000000 -4.500000
v 16.500000 0.000000 -4.500000
v 16.500000 0.250000 -4.500000
vt 0.375000 0.250000
vt 0.375000 0.500000
vt 0.625000 0.500000
vt 0.625000 0.250000
vt 0.375000 0.750000
vt 0.625000 0.750000
vt 0.125000 0.500000
vt 0.125000 0.750000
vt 0.000000 0.000000
vt 0.500000 0.937500
vt 0.500000 0.812500
vt 0.500000 0.187500
vt 0.500000 0.062500
vt 0.375000 0.250000
vt 0.000000 0.000000
vn -1.0000 0.0000 0.0000
vn 0.0000 0.0000 1.0000
vn 0.0000 -1.0000 0.0000
vn 1.0000 0.0000 0.0000
vn 0.0000 0.0000 -1.0000
vn 0.0000 1.0000 0.0000
vn 0.0000 0.8944 -0.4472
vn 0.4472 0.8944 0.0000
vn -0.4472 0.8944 0.0000
vn 0.0000 0.8944 0.4472
usemtl Material
s off
f 52/66/34 56/67/34 57/68/34 53/69/34
f 56/67/35 54/70/35 55/71/35 57/68/35
f 52/72/36 50/73/36 54/70/36 56/67/36
f 51/74/37 59/75/37 58/76/37 55/71/37 54/70/37 50/73/37
f 52/66/38 53/69/38 60/77/38 61/78/38 51/74/38 50/73/38
usemtl PathFace
f 49/79/39 58/76/39 59/75/39 64/80/39 61/78/39 60/77/39
f 58/76/40 49/79/40 57/68/40 55/71/40
f 53/69/41 57/68/41 49/79/41 60/77/41
f 51/74/42 61/78/42 64/80/42
f 51/74/43 64/80/43 59/75/43
l 62 59
l 62 59
l 62 61
l 63 62
l 62 64
o foil.through.2.3_through.181
v 17.000002 -0.500000 -6.999998
v 17.000002 0.500000 -6.999998
v 16.999998 -0.500000 -4.999998
v 16.999998 0.500000 -4.999998
v 15.000003 -0.500000 -7.000002
v 15.000003 0.500000 -7.000002
v 14.999997 -0.500000 -5.000002
v 14.999997 0.500000 -5.000002
v 15.499997 0.250000 -5.000001
v 15.500003 0.250000 -7.000001
v 16.499998 0.250000 -4.999999
v 16.500002 0.250000 -6.999999
vt 0.375000 0.000000
vt 0.625000 0.000000
vt 0.625000 0.250000
vt 0.375000 0.250000
vt 0.375000 0.500000
vt 0.625000 0.500000
vt 0.625000 0.750000
vt 0.375000 0.750000
vt 0.152781 0.750000
vt 0.152781 0.500000
vt 0.125000 0.500000
vt 0.125000 0.750000
vt 0.282406 0.500000
vt 0.282406 0.750000
vn 1.0000 0.0000 0.0000
vn -1.0000 0.0000 -0.0000
vn -0.0000 0.0000 1.0000
vn 0.0000 -1.0000 0.0000
vn 0.0000 -0.0000 -1.0000
vn -0.4472 0.8944 -0.0000
vn 0.4472 0.8944 0.0000
vn 0.0000 1.0000 0.0000
usemtl Material
s off
f 65/81/44 66/82/44 68/83/44 67/84/44
f 71/85/45 72/86/45 70/87/45 69/88/45
f 68/83/46 75/89/46 73/90/46 72/86/46 71/85/46 67/91/46
f 67/91/47 71/85/47 69/88/47 65/92/47
f 66/82/48 65/92/48 69/88/48 70/87/48 74/93/48 76/94/48
usemtl PathFace
f 66/82/49 76/94/49 75/89/49 68/83/49
f 72/86/50 73/90/50 74/93/50 70/87/50
f 75/89/51 76/94/51 74/93/51 73/90/51
o foil.corner.2.4_corner.897
v 16.500000 0.250000 -8.500000
v 15.000000 -0.500000 -7.000000
v 15.000000 0.500000 -7.000000
v 17.000000 -0.500000 -7.000000
v 17.000000 0.500000 -7.000000
v 15.000000 -0.500000 -9.000000
v 15.000000 0.500000 -9.000000
v 17.000000 -0.500000 -9.000000
v 17.000000 0.500000 -9.000000
v 15.000000 0.250000 -8.500000
v 15.000000 0.250000 -7.500000
v 16.500000 0.250000 -7.000000
v 15.500000 0.250000 -7.000000
v 15.500000 0.000000 -7.500000
v 15.500000 0.000000 -7.500000
v 15.500000 0.250000 -7.500000
vt 0.375000 0.250000
vt 0.375000 0.500000
vt 0.625000 0.500000
vt 0.625000 0.250000
vt 0.375000 0.750000
vt 0.625000 0.750000
vt 0.125000 0.500000
vt 0.125000 0.750000
vt 0.000000 0.000000
vt 0.500000 0.937500
vt 0.500000 0.812500
vt 0.500000 0.187500
vt 0.500000 0.062500
vt 0.375000 0.250000
vt 0.000000 0.000000
vn 1.0000 0.0000 0.0000
vn 0.0000 0.0000 -1.0000
vn 0.0000 -1.0000 0.0000
vn -1.0000 0.0000 0.0000
vn 0.0000 0.0000 1.0000
vn 0.0000 1.0000 0.0000
vn 0.0000 0.8944 0.4472
vn -0.4472 0.8944 0.0000
vn 0.4472 0.8944 0.0000
vn 0.0000 0.8944 -0.4472
usemtl Material
s off
f 80/95/52 84/96/52 85/97/52 81/98/52
f 84/96/53 82/99/53 83/100/53 85/97/53
f 80/101/54 78/102/54 82/99/54 84/96/54
f 79/103/55 87/104/55 86/105/55 83/100/55 82/99/55 78/102/55
f 80/95/56 81/98/56 88/106/56 89/107/56 79/103/56 78/102/56
usemtl PathFace
f 77/108/57 86/105/57 87/104/57 92/109/57 89/107/57 88/106/57
f 86/105/58 77/108/58 85/97/58 83/100/58
f 81/98/59 85/97/59 77/108/59 88/106/59
f 79/103/60 89/107/60 92/109/60
f 79/103/61 92/109/61 87/104/61
l 90 87
l 90 87
l 90 89
l 91 90
l 90 92
o foil.through.3.2_through.182
v 19.000004 -0.500000 -3.000004
v 19.000004 0.500000 -3.000004
v 17.000004 -0.500000 -2.999996
v 17.000004 0.500000 -2.999996
v 18.999996 -0.500000 -5.000004
v 18.999996 0.500000 -5.000004
v 16.999996 -0.500000 -4.999996
v 16.999996 0.500000 -4.999996
v 16.999998 0.250000 -4.499997
v 18.999998 0.250000 -4.500004
v 17.000002 0.250000 -3.499996
v 19.000002 0.250000 -3.500004
vt 0.375000 0.000000
vt 0.625000 0.000000
vt 0.625000 0.250000
vt 0.375000 0.250000
vt 0.375000 0.500000
vt 0.625000 0.500000
vt 0.625000 0.750000
vt 0.375000 0.750000
vt 0.152781 0.750000
vt 0.152781 0.500000
vt 0.125000 0.500000
vt 0.125000 0.750000
vt 0.282406 0.500000
vt 0.282406 0.750000
vn 0.0000 0.0000 1.0000
vn -0.0000 0.0000 -1.0000
vn -1.0000 0.0000 0.0000
vn 0.0000 -1.0000 0.0000
vn 1.0000 0.0000 -0.0000
vn -0.0000 0.8944 -0.4472
vn 0.0000 0.8944 0.4472
vn 0.0000 1.0000 0.0000
usemtl Material
s off
f 93/110/62 94/111/62 96/112/62 95/113/62
f 99/114/63 100/115/63 98/116/63 97/117/63
f 96/112/64 103/118/64 101/119/64 100/115/64 99/114/64 95/120/64
f 95/120/65 99/114/65 97/117/65 93/121/65
f 94/111/66 93/121/66 97/117/66 98/116/66 102/122/66 104/123/66
usemtl PathFace
f 94/111/67 104/123/67 103/118/67 96/112/67
f 100/115/68 101/119/68 102/122/68 98/116/68
f 103/118/69 104/123/69 102/122/69 101/119/69
o foil.corner.4.2_corner.898
v 20.500000 0.250000 -3.500000
v 19.000000 -0.500000 -5.000000
v 19.000000 0.500000 -5.000000
v 19.000000 -0.500000 -3.000000
v 19.000000 0.500000 -3.000000
v 21.000000 -0.500000 -5.000000
v 21.000000 0.500000 -5.000000
v 21.000000 -0.500000 -3.000000
v 21.000000 0.500000 -3.000000
v 20.500000 0.250000 -5.000000
v 19.500000 0.250000 -5.000000
v 19.000000 0.250000 -3.500000
v 19.000000 0.250000 -4.500000
v 19.500000 0.000000 -4.500000
v 19.500000 0.000000 -4.500000
v 19.500000 0.250000 -4.500000
vt 0.375000 0.250000
vt 0.375000 0.500000
vt 0.625000 0.500000
vt 0.625000 0.250000
vt 0.375000 0.750000
vt 0.625000 0.750000
vt 0.125000 0.500000
vt 0.125000 0.750000
vt 0.000000 0.000000
vt 0.500000 0.937500
vt 0.500000 0.812500
vt 0.500000 0.187500
vt 0.500000 0.062500
vt 0.375000 0.250000
vt 0.000000 0.000000
vn 0.0000 0.0000 1.0000
vn 1.0000 0.0000 0.0000
vn 0.0000 -1.0000 0.0000
vn 0.0000 0.0000 -1.0000
vn -1.0000 0.0000 0.0000
vn 0.0000 1.0000 0.0000
vn -0.4472 0.8944 0.0000
vn 0.0000 0.8944 -0.4472
vn 0.0000 0.8944 0.4472
vn 0.4472 0.8944 0.0000
usemtl Material
s off
f 108/124/70 112/125/70 113/126/70 109/127/70
f 112/125/71 110/128/71 111/129/71 113/126/71
f 108/130/72 106/131/72 110/128/72 112/125/72
f 107/132/73 115/133/73 114/134/73 111/129/73 110/128/73 106/131/73
f 108/124/74 109/127/74 116/135/74 117/136/74 107/132/74 106/131/74
usemtl PathFace
f 105/137/75 114/134/75 115/133/75 120/138/75 117/136/75 116/135/75
f 114/134/76 105/137/76 113/126/76 111/129/76
f 109/127/77 113/126/77 105/137/77 116/135/77
f 107/132/78 117/136/78 120/138/78
f 107/132/79 120/138/79 115/133/79
l 118 115
l 118 115
l 118 117
l 119 118
l 118 120
o foil.ending.4.3_ending.360
v 20.500000 0.250000 -6.500000
v 19.500000 0.250000 -6.500000
v 21.000000 -0.500000 -5.000000
v 21.000000 0.500000 -5.000000
v 21.000000 -0.500000 -7.000000
v 21.000000 0.500000 -7.000000
v 19.000000 -0.500000 -5.000000
v 19.000000 0.500000 -5.000000
v 19.000000 -0.500000 -7.000000
v 19.000000 0.500000 -7.000000
v 19.500000 0.250000 -5.000000
v 20.500000 0.250000 -5.000000
v 19.500000 0.500000 -7.000000
v 20.500000 0.500000 -7.000000
v 19.000000 0.500000 -6.500000
v 21.000000 0.500000 -6.500000
vt 0.125000 0.500000
vt 0.375000 0.500000
vt 0.625000 0.500000
vt 0.000000 0.000000
vt 0.000000 0.000000
vt 0.625000 0.250000
vt 0.375000 0.000000
vt 0.375000 0.250000
vt 0.625000 0.187500
vt 0.625000 0.000000
vt 0.375000 0.750000
vt 0.625000 0.750000
vt 0.625000 0.562500
vt 0.125000 0.750000
vt 0.000000 0.000000
vt 0.000000 0.000000
vt 0.000000 0.000000
vt 0.000000 0.000000
vt 0.000000 0.000000
vt 0.000000 0.000000
vt 0.000000 0.000000
vt 0.000000 0.000000
vt 0.000000 0.000000
vt 0.000000 0.000000
vt 0.125000 0.500000
vt 0.312500 0.500000
vt 0.312500 0.750000
vt 0.125000 0.750000
vt 0.000000 0.000000
vt 0.000000 0.000000
vn 0.0000 0.0000 -1.0000
vn 1.0000 0.0000 0.0000
vn 0.0000 1.0000 0.0000
vn -1.0000 0.0000 0.0000
vn 0.0000 -1.0000 0.0000
vn 0.0000 0.0000 1.0000
vn 0.4082 0.8165 0.4082
vn -0.4082 0.8165 0.4082
vn 0.0000 0.8944 0.4472
vn 0.4472 0.8944 0.0000
vn -0.4472 0.8944 0.0000
usemtl Material
s off
f 125/139/80 129/140/80 130/141/80 133/142/80 134/143/80 126/144/80
f 123/145/81 125/146/81 126/144/81 136/147/81 124/148/81
f 136/147/82 126/144/82 134/143/82
f 129/140/83 127/149/83 128/150/83 135/151/83 130/141/83
f 135/151/82 133/142/82 130/141/82
f 125/139/84 123/152/84 127/149/84 129/140/84
f 130/153/83 129/154/83 127/155/83 128/156/83
f 126/157/81 124/158/81 123/159/81 125/160/81
f 123/159/85 124/158/85 132/161/85 131/162/85 128/156/85 127/155/85
usemtl PathFace
f 122/163/82 131/164/82 132/165/82 121/166/82
f 133/142/86 135/151/86 122/167/86
f 136/147/87 134/143/87 121/168/87
f 121/168/88 134/143/88 133/142/88 122/167/88
f 131/164/89 122/167/89 135/151/89 128/150/89
f 121/166/90 132/165/90 124/148/90 136/147/90
