# Blender v2.90.1 OBJ File: 'script_generator.blend'
# www.blender.org
mtllib 22f_path.mtl
o foil.ending.0.1_ending.387
v 11.500000 0.250000 -2.500000
v 11.500000 0.250000 -1.500000
v 13.000000 -0.500000 -3.000000
v 13.000000 0.500000 -3.000000
v 11.000000 -0.500000 -3.000000
v 11.000000 0.500000 -3.000000
v 13.000000 -0.500000 -1.000000
v 13.000000 0.500000 -1.000000
v 11.000000 -0.500000 -1.000000
v 11.000000 0.500000 -1.000000
v 13.000000 0.250000 -1.500000
v 13.000000 0.250000 -2.500000
v 11.000000 0.500000 -1.500000
v 11.000000 0.500000 -2.500000
v 11.500000 0.500000 -1.000000
v 11.500000 0.500000 -3.000000
vt 0.125000 0.500000
vt 0.375000 0.500000
vt 0.625000 0.500000
vt 0.000000 0.000000
vt 0.000000 0.000000
vt 0.625000 0.250000
vt 0.375000 0.000000
vt 0.375000 0.250000
vt 0.625000 0.187500
vt 0.625000 0.000000
vt 0.375000 0.750000
vt 0.625000 0.750000
vt 0.625000 0.562500
vt 0.125000 0.750000
vt 0.000000 0.000000
vt 0.000000 0.000000
vt 0.000000 0.000000
vt 0.000000 0.000000
vt 0.000000 0.000000
vt 0.000000 0.000000
vt 0.000000 0.000000
vt 0.000000 0.000000
vt 0.000000 0.000000
vt 0.000000 0.000000
vt 0.125000 0.500000
vt 0.312500 0.500000
vt 0.312500 0.750000
vt 0.125000 0.750000
vt 0.000000 0.000000
vt 0.000000 0.000000
vn -1.0000 0.0000 0.0000
vn 0.0000 0.0000 -1.0000
vn 0.0000 1.0000 0.0000
vn 0.0000 0.0000 1.0000
vn 0.0000 -1.0000 0.0000
vn 1.0000 0.0000 0.0000
vn 0.4082 0.8165 -0.4082
vn 0.4082 0.8165 0.4082
vn 0.4472 0.8944 0.0000
vn 0.0000 0.8944 -0.4472
vn 0.0000 0.8944 0.4472
usemtl Material
s off
f 5/1/1 9/2/1 10/3/1 13/4/1 14/5/1 6/6/1
f 3/7/2 5/8/2 6/6/2 16/9/2 4/10/2
f 16/9/3 6/6/3 14/5/3
f 9/2/4 7/11/4 8/12/4 15/13/4 10/3/4
f 15/13/3 13/4/3 10/3/3
f 5/1/5 3/14/5 7/11/5 9/2/5
f 10/15/4 9/16/4 7/17/4 8/18/4
f 6/19/2 4/20/2 3/21/2 5/22/2
f 3/21/6 4/20/6 12/23/6 11/24/6 8/18/6 7/17/6
usemtl PathFace
f 2/25/3 11/26/3 12/27/3 1/28/3
f 13/4/7 15/13/7 2/29/7
f 16/9/8 14/5/8 1/30/8
f 1/30/9 14/5/9 13/4/9 2/29/9
f 11/26/10 2/29/10 15/13/10 8/12/10
f 1/28/11 12/27/11 4/10/11 16/9/11
o foil.corner.1.0_corner.963
v 13.500000 0.250000 0.500000
v 15.000000 -0.500000 -1.000000
v 15.000000 0.500000 -1.000000
v 13.000000 -0.500000 -1.000000
v 13.000000 0.500000 -1.000000
v 15.000000 -0.500000 1.000000
v 15.000000 0.500000 1.000000
v 13.000000 -0.500000 1.000000
v 13.000000 0.500000 1.000000
v 15.000000 0.250000 0.500000
v 15.000000 0.250000 -0.500000
v 13.500000 0.250000 -1.000000
v 14.500000 0.250000 -1.000000
v 14.500000 0.000000 -0.500000
v 14.500000 0.000000 -0.500000
v 14.500000 0.250000 -0.500000
vt 0.375000 0.250000
vt 0.375000 0.500000
vt 0.625000 0.500000
vt 0.625000 0.250000
vt 0.375000 0.750000
vt 0.625000 0.750000
vt 0.125000 0.500000
vt 0.125000 0.750000
vt 0.000000 0.000000
vt 0.500000 0.937500
vt 0.500000 0.812500
vt 0.500000 0.187500
vt 0.500000 0.062500
vt 0.375000 0.250000
vt 0.000000 0.000000
vn -1.0000 0.0000 0.0000
vn 0.0000 0.0000 1.0000
vn 0.0000 -1.0000 0.0000
vn 1.0000 0.0000 0.0000
vn -0.0000 -0.0000 -1.0000
vn 0.0000 1.0000 0.0000
vn -0.0000 0.8944 -0.4472
vn 0.4472 0.8944 0.0000
vn -0.4472 0.8944 0.0000
vn 0.0000 0.8944 0.4472
usemtl Material
s off
f 20/31/12 24/32/12 25/33/12 21/34/12
f 24/32/13 22/35/13 23/36/13 25/33/13
f 20/37/14 18/38/14 22/35/14 24/32/14
f 19/39/15 27/40/15 26/41/15 23/36/15 22/35/15 18/38/15
f 20/31/16 21/34/16 28/42/16 29/43/16 19/39/16 18/38/16
usemtl PathFace
f 17/44/17 26/41/17 27/40/17 32/45/17 29/43/17 28/42/17
f 26/41/18 17/44/18 25/33/18 23/36/18
f 21/34/19 25/33/19 17/44/19 28/42/19
f 19/39/20 29/43/20 32/45/20
f 19/39/21 32/45/21 27/40/21
l 30 27
l 30 27
l 30 29
l 31 30
l 30 32
o foil.corner.1.1_corner.964
v 14.500000 0.250000 -2.500000
v 13.000000 -0.500000 -1.000000
v 13.000000 0.500000 -1.000000
v 15.000000 -0.500000 -1.000000
v 15.000000 0.500000 -1.000000
v 13.000000 -0.500000 -3.000000
v 13.000000 0.500000 -3.000000
v 15.000000 -0.500000 -3.000000
v 15.000000 0.500000 -3.000000
v 13.000000 0.250000 -2.500000
v 13.000000 0.250000 -1.500000
v 14.500000 0.250000 -1.000000
v 13.500000 0.250000 -1.000000
v 13.500000 0.000000 -1.500000
v 13.500000 0.000000 -1.500000
v 13.500000 0.250000 -1.500000
vt 0.375000 0.250000
vt 0.375000 0.500000
vt 0.625000 0.500000
vt 0.625000 0.250000
vt 0.375000 0.750000
vt 0.625000 0.750000
vt 0.125000 0.500000
vt 0.125000 0.750000
vt 0.000000 0.000000
vt 0.500000 0.937500
vt 0.500000 0.812500
vt 0.500000 0.187500
vt 0.500000 0.062500
vt 0.375000 0.250000
vt 0.000000 0.000000
vn 1.0000 0.0000 0.0000
vn 0.0000 0.0000 -1.0000
vn 0.0000 -1.0000 0.0000
vn -1.0000 0.0000 0.0000
vn 0.0000 0.0000 1.0000
vn 0.0000 1.0000 0.0000
vn 0.0000 0.8944 0.4472
vn -0.4472 0.8944 0.0000
vn 0.4472 0.8944 0.0000
vn 0.0000 0.8944 -0.4472
usemtl Material
s off
f 36/46/22 40/47/22 41/48/22 37/49/22
f 40/47/23 38/50/23 39/51/23 41/48/23
f 36/52/24 34/53/24 38/50/24 40/47/24
f 35/54/25 43/55/25 42/56/25 39/51/25 38/50/25 34/53/25
f 36/46/26 37/49/26 44/57/26 45/58/26 35/54/26 34/53/26
usemtl PathFace
f 33/59/27 42/56/27 43/55/27 48/60/27 45/58/27 44/57/27
f 42/56/28 33/59/28 41/48/28 39/51/28
f 37/49/29 41/48/29 33/59/29 44/57/29
f 35/54/30 45/58/30 48/60/30
f 35/54/31 48/60/31 43/55/31
l 46 43
l 46 43
l 46 45
l 47 46
l 46 48
o foil.corner.2.0_corner.965
v 16.500000 0.250000 0.500000
v 15.000000 -0.500000 -1.000000
v 15.000000 0.500000 -1.000000
v 15.000000 -0.500000 1.000000
v 15.000000 0.500000 1.000000
v 17.000000 -0.500000 -1.000000
v 17.000000 0.500000 -1.000000
v 17.000000 -0.500000 1.000000
v 17.000000 0.500000 1.000000
v 16.500000 0.250000 -1.000000
v 15.500000 0.250000 -1.000000
v 15.000000 0.250000 0.500000
v 15.000000 0.250000 -0.500000
v 15.500000 0.000000 -0.500000
v 15.500000 0.000000 -0.500000
v 15.500000 0.250000 -0.500000
vt 0.375000 0.250000
vt 0.375000 0.500000
vt 0.625000 0.500000
vt 0.625000 0.250000
vt 0.375000 0.750000
vt 0.625000 0.750000
vt 0.125000 0.500000
vt 0.125000 0.750000
vt 0.000000 0.000000
vt 0.500000 0.937500
vt 0.500000 0.812500
vt 0.500000 0.187500
vt 0.500000 0.062500
vt 0.375000 0.250000
vt 0.000000 0.000000
vn 0.0000 0.0000 1.0000
vn 1.0000 0.0000 0.0000
vn 0.0000 -1.0000 0.0000
vn -0.0000 0.0000 -1.0000
vn -1.0000 0.0000 0.0000
vn 0.0000 1.0000 0.0000
vn -0.4472 0.8944 0.0000
vn -0.0000 0.8944 -0.4472
vn 0.0000 0.8944 0.4472
vn 0.4472 0.8944 0.0000
usemtl Material
s off
f 52/61/32 56/62/32 57/63/32 53/64/32
f 56/62/33 54/65/33 55/66/33 57/63/33
f 52/67/34 50/68/34 54/65/34 56/62/34
f 51/69/35 59/70/35 58/71/35 55/66/35 54/65/35 50/68/35
f 52/61/36 53/64/36 60/72/36 61/73/36 51/69/36 50/68/36
usemtl PathFace
f 49/74/37 58/71/37 59/70/37 64/75/37 61/73/37 60/72/37
f 58/71/38 49/74/38 57/63/38 55/66/38
f 53/64/39 57/63/39 49/74/39 60/72/39
f 51/69/40 61/73/40 64/75/40
f 51/69/41 64/75/41 59/70/41
l 62 59
l 62 59
l 62 61
l 63 62
l 62 64
o foil.corner.2.1_corner.966
v 15.500000 0.250000 -2.500000
v 17.000000 -0.500000 -1.000000
v 17.000000 0.500000 -1.000000
v 17.000000 -0.500000 -3.000000
v 17.000000 0.500000 -3.000000
v 15.000000 -0.500000 -1.000000
v 15.000000 0.500000 -1.000000
v 15.000000 -0.500000 -3.000000
v 15.000000 0.500000 -3.000000
v 15.500000 0.250000 -1.000000
v 16.500000 0.250000 -1.000000
v 17.000000 0.250000 -2.500000
v 17.000000 0.250000 -1.500000
v 16.500000 0.000000 -1.500000
v 16.500000 0.000000 -1.500000
v 16.500000 0.250000 -1.500000
vt 0.375000 0.250000
vt 0.375000 0.500000
vt 0.625000 0.500000
vt 0.625000 0.250000
vt 0.375000 0.750000
vt 0.625000 0.750000
vt 0.125000 0.500000
vt 0.125000 0.750000
vt 0.000000 0.000000
vt 0.500000 0.937500
vt 0.500000 0.812500
vt 0.500000 0.187500
vt 0.500000 0.062500
vt 0.375000 0.250000
vt 0.000000 0.000000
vn 0.0000 0.0000 -1.0000
vn -1.0000 0.0000 0.0000
vn 0.0000 -1.0000 0.0000
vn 0.0000 0.0000 1.0000
vn 1.0000 0.0000 0.0000
vn 0.0000 1.0000 0.0000
vn 0.4472 0.8944 0.0000
vn 0.0000 0.8944 0.4472
vn 0.0000 0.8944 -0.4472
vn -0.4472 0.8944 0.0000
usemtl Material
s off
f 68/76/42 72/77/42 73/78/42 69/79/42
f 72/77/43 70/80/43 71/81/43 73/78/43
f 68/82/44 66/83/44 70/80/44 72/77/44
f 67/84/45 75/85/45 74/86/45 71/81/45 70/80/45 66/83/45
f 68/76/46 69/79/46 76/87/46 77/88/46 67/84/46 66/83/46
usemtl PathFace
f 65/89/47 74/86/47 75/85/47 80/90/47 77/88/47 76/87/47
f 74/86/48 65/89/48 73/78/48 71/81/48
f 69/79/49 73/78/49 65/89/49 76/87/49
f 67/84/50 77/88/50 80/90/50
f 67/84/51 80/90/51 75/85/51
l 78 75
l 78 75
l 78 77
l 79 78
l 78 80
o foil.corner.3.0_corner.967
v 17.500000 0.250000 0.500000
v 19.000000 -0.500000 -1.000000
v 19.000000 0.500000 -1.000000
v 17.000000 -0.500000 -1.000000
v 17.000000 0.500000 -1.000000
v 19.000000 -0.500000 1.000000
v 19.000000 0.500000 1.000000
v 17.000000 -0.500000 1.000000
v 17.000000 0.500000 1.000000
v 19.000000 0.250000 0.500000
v 19.000000 0.250000 -0.500000
v 17.500000 0.250000 -1.000000
v 18.500000 0.250000 -1.000000
v 18.500000 0.000000 -0.500000
v 18.500000 0.000000 -0.500000
v 18.500000 0.250000 -0.500000
vt 0.375000 0.250000
vt 0.375000 0.500000
vt 0.625000 0.500000
vt 0.625000 0.250000
vt 0.375000 0.750000
vt 0.625000 0.750000
vt 0.125000 0.500000
vt 0.125000 0.750000
vt 0.000000 0.000000
vt 0.500000 0.937500
vt 0.500000 0.812500
vt 0.500000 0.187500
vt 0.500000 0.062500
vt 0.375000 0.250000
vt 0.000000 0.000000
vn -1.0000 0.0000 0.0000
vn 0.0000 0.0000 1.0000
vn 0.0000 -1.0000 0.0000
vn 1.0000 0.0000 0.0000
vn -0.0000 -0.0000 -1.0000
vn 0.0000 1.0000 0.0000
vn -0.0000 0.8944 -0.4472
vn 0.4472 0.8944 0.0000
vn -0.4472 0.8944 0.0000
vn 0.0000 0.8944 0.4472
usemtl Material
s off
f 84/91/52 88/92/52 89/93/52 85/94/52
f 88/92/53 86/95/53 87/96/53 89/93/53
f 84/97/54 82/98/54 86/95/54 88/92/54
f 83/99/55 91/100/55 90/101/55 87/96/55 86/95/55 82/98/55
f 84/91/56 85/94/56 92/102/56 93/103/56 83/99/56 82/98/56
usemtl PathFace
f 81/104/57 90/101/57 91/100/57 96/105/57 93/103/57 92/102/57
f 90/101/58 81/104/58 89/93/58 87/96/58
f 85/94/59 89/93/59 81/104/59 92/102/59
f 83/99/60 93/103/60 96/105/60
f 83/99/61 96/105/61 91/100/61
l 94 91
l 94 91
l 94 93
l 95 94
l 94 96
o foil.corner.3.1_corner.968
v 18.500000 0.250000 -2.500000
v 17.000000 -0.500000 -1.000000
v 17.000000 0.500000 -1.000000
v 19.000000 -0.500000 -1.000000
v 19.000000 0.500000 -1.000000
v 17.000000 -0.500000 -3.000000
v 17.000000 0.500000 -3.000000
v 19.000000 -0.500000 -3.000000
v 19.000000 0.500000 -3.000000
v 17.000000 0.250000 -2.500000
v 17.000000 0.250000 -1.500000
v 18.500000 0.250000 -1.000000
v 17.500000 0.250000 -1.000000
v 17.500000 0.000000 -1.500000
v 17.500000 0.000000 -1.500000
v 17.500000 0.250000 -1.500000
vt 0.375000 0.250000
vt 0.375000 0.500000
vt 0.625000 0.500000
vt 0.625000 0.250000
vt 0.375000 0.750000
vt 0.625000 0.750000
vt 0.125000 0.500000
vt 0.125000 0.750000
vt 0.000000 0.000000
vt 0.500000 0.937500
vt 0.500000 0.812500
vt 0.500000 0.187500
vt 0.500000 0.062500
vt 0.375000 0.250000
vt 0.000000 0.000000
vn 1.0000 0.0000 0.0000
vn 0.0000 0.0000 -1.0000
vn 0.0000 -1.0000 0.0000
vn -1.0000 0.0000 0.0000
vn 0.0000 0.0000 1.0000
vn 0.0000 1.0000 0.0000
vn 0.0000 0.8944 0.4472
vn -0.4472 0.8944 0.0000
vn 0.4472 0.8944 0.0000
vn 0.0000 0.8944 -0.4472
usemtl Material
s off
f 100/106/62 104/107/62 105/108/62 101/109/62
f 104/107/63 102/110/63 103/111/63 105/108/63
f 100/112/64 98/113/64 102/110/64 104/107/64
f 99/114/65 107/115/65 106/116/65 103/111/65 102/110/65 98/113/65
f 100/106/66 101/109/66 108/117/66 109/118/66 99/114/66 98/113/66
usemtl PathFace
f 97/119/67 106/116/67 107/115/67 112/120/67 109/118/67 108/117/67
f 106/116/68 97/119/68 105/108/68 103/111/68
f 101/109/69 105/108/69 97/119/69 108/117/69
f 99/114/70 109/118/70 112/120/70
f 99/114/71 112/120/71 107/115/71
l 110 107
l 110 107
l 110 109
l 111 110
l 110 112
o foil.hole.3.4_Cube.195
v 17.500000 0.250000 -8.500000
v 17.000000 -0.500000 -9.000000
v 17.000000 0.500000 -9.000000
v 17.500000 0.500000 -9.000000
v 17.000000 0.500000 -8.500000
v 18.500000 0.250000 -8.500000
v 19.000000 -0.500000 -9.000000
v 19.000000 0.500000 -9.000000
v 18.500000 0.500000 -9.000000
v 19.000000 0.500000 -8.500000
v 17.500000 0.250000 -7.500000
v 17.000000 -0.500000 -7.000000
v 17.000000 0.500000 -7.000000
v 17.500000 0.500000 -7.000000
v 17.000000 0.500000 -7.500000
v 18.500000 0.250000 -7.500000
v 19.000000 -0.500000 -7.000000
v 19.000000 0.500000 -7.000000
v 18.500000 0.500000 -7.000000
v 19.000000 0.500000 -7.500000
vt 0.625000 0.187500
vt 0.000000 0.000000
vt 0.625000 0.250000
vt 0.375000 0.812500
vt 0.375000 0.750000
vt 1.000000 1.000000
vt 0.375000 0.812500
vt 0.375000 0.750000
vt 1.000000 1.000000
vt 0.625000 0.187500
vt 0.000000 0.000000
vt 0.625000 0.250000
vt 0.875000 0.500000
vt 0.000000 0.000000
vt 0.125000 0.500000
vt 0.000000 0.000000
vt 0.000000 0.000000
vt 1.000000 1.000000
vt 1.000000 1.000000
vt 0.000000 0.000000
vt 0.000000 0.000000
vn 0.0000 1.0000 0.0000
vn 0.0000 0.0000 -1.0000
vn 1.0000 0.0000 0.0000
vn -1.0000 0.0000 0.0000
vn 0.0000 0.0000 1.0000
vn 0.0000 -1.0000 0.0000
vn 0.4082 0.8165 0.4082
vn -0.4082 0.8165 0.4082
vn 0.4472 0.8944 0.0000
vn 0.4082 0.8165 -0.4082
vn -0.4472 0.8944 0.0000
vn -0.4082 0.8165 -0.4082
vn 0.0000 0.8944 0.4472
vn 0.0000 0.8944 -0.4472
usemtl Material
s off
f 117/121/72 116/122/72 115/123/72
f 122/124/72 120/125/72 121/126/72
f 127/127/72 125/128/72 126/129/72
f 132/130/72 131/131/72 130/132/72
f 115/123/73 116/122/73 121/126/73 120/125/73 119/133/73 114/134/73
f 120/125/74 122/124/74 132/130/74 130/132/74 129/135/74 119/133/74
f 114/134/75 124/136/75 125/128/75 127/127/75 117/121/75 115/123/75
f 125/128/76 124/136/76 129/135/76 130/132/76 131/131/76 126/129/76
f 124/136/77 114/134/77 119/133/77 129/135/77
usemtl PathFace
f 117/121/78 113/137/78 116/122/78
f 122/124/79 121/126/79 118/138/79
f 117/121/80 127/127/80 123/139/80 113/137/80
f 127/127/81 126/129/81 123/139/81
f 118/138/72 113/137/72 123/140/72 128/141/72
f 122/124/82 118/138/82 128/141/82 132/130/82
f 132/130/83 128/141/83 131/131/83
f 116/122/84 113/137/84 118/138/84 121/126/84
f 126/129/85 131/131/85 128/141/85 123/140/85
o foil.ending.4.0_ending.388
v 20.500000 0.250000 0.500000
v 20.500000 0.250000 -0.500000
v 19.000000 -0.500000 1.000000
v 19.000000 0.500000 1.000000
v 21.000000 -0.500000 1.000000
v 21.000000 0.500000 1.000000
v 19.000000 -0.500000 -1.000000
v 19.000000 0.500000 -1.000000
v 21.000000 -0.500000 -1.000000
v 21.000000 0.500000 -1.000000
v 19.000000 0.250000 -0.500000
v 19.000000 0.250000 0.500000
v 21.000000 0.500000 -0.500000
v 21.000000 0.500000 0.500000
v 20.500000 0.500000 -1.000000
v 20.500000 0.500000 1.000000
vt 0.125000 0.500000
vt 0.375000 0.500000
vt 0.625000 0.500000
vt 0.000000 0.000000
vt 0.000000 0.000000
vt 0.625000 0.250000
vt 0.375000 0.000000
vt 0.375000 0.250000
vt 0.625000 0.187500
vt 0.625000 0.000000
vt 0.375000 0.750000
vt 0.625000 0.750000
vt 0.625000 0.562500
vt 0.125000 0.750000
vt 0.000000 0.000000
vt 0.000000 0.000000
vt 0.000000 0.000000
vt 0.000000 0.000000
vt 0.000000 0.000000
vt 0.000000 0.000000
vt 0.000000 0.000000
vt 0.000000 0.000000
vt 0.000000 0.000000
vt 0.000000 0.000000
vt 0.125000 0.500000
vt 0.312500 0.500000
vt 0.312500 0.750000
vt 0.125000 0.750000
vt 0.000000 0.000000
vt 0.000000 0.000000
vn 1.0000 -0.0000 0.0000
vn 0.0000 -0.0000 1.0000
vn 0.0000 1.0000 0.0000
vn -0.0000 -0.0000 -1.0000
vn 0.0000 -1.0000 0.0000
vn -1.0000 -0.0000 0.0000
vn -0.4082 0.8165 0.4082
vn -0.4082 0.8165 -0.4082
vn -0.4472 0.8944 0.0000
vn 0.0000 0.8944 0.4472
vn -0.0000 0.8944 -0.4472
usemtl Material
s off
f 137/142/86 141/143/86 142/144/86 145/145/86 146/146/86 138/147/86
f 135/148/87 137/149/87 138/147/87 148/150/87 136/151/87
f 148/150/88 138/147/88 146/146/88
f 141/143/89 139/152/89 140/153/89 147/154/89 142/144/89
f 147/154/88 145/145/88 142/144/88
f 137/142/90 135/155/90 139/152/90 141/143/90
f 142/156/89 141/157/89 139/158/89 140/159/89
f 138/160/87 136/161/87 135/162/87 137/163/87
f 135/162/91 136/161/91 144/164/91 143/165/91 140/159/91 139/158/91
usemtl PathFace
f 134/166/88 143/167/88 144/168/88 133/169/88
f 145/145/92 147/154/92 134/170/92
f 148/150/93 146/146/93 133/171/93
f 133/171/94 146/146/94 145/145/94 134/170/94
f 143/167/95 134/170/95 147/154/95 140/153/95
f 133/169/96 144/168/96 136/151/96 148/150/96
