# Blender v2.90.1 OBJ File: 'script_generator.blend'
# www.blender.org
mtllib 38f_block.mtl
o foil.block.0.1_block.3826
v 11.000000 -0.500000 -1.000000
v 11.000000 0.500000 -1.000000
v 11.000000 -0.500000 -3.000000
v 11.000000 0.500000 -3.000000
v 13.000000 -0.500000 -1.000000
v 13.000000 0.500000 -1.000000
v 13.000000 -0.500000 -3.000000
v 13.000000 0.500000 -3.000000
vt 0.375000 0.000000
vt 0.625000 0.000000
vt 0.625000 0.250000
vt 0.375000 0.250000
vt 0.625000 0.500000
vt 0.375000 0.500000
vt 0.625000 0.750000
vt 0.375000 0.750000
vt 0.125000 0.750000
vt 0.125000 0.500000
vn -1.0000 0.0000 0.0000
vn 0.0000 0.0000 -1.0000
vn 1.0000 0.0000 0.0000
vn 0.0000 0.0000 1.0000
vn 0.0000 -1.0000 0.0000
vn 0.0000 1.0000 0.0000
usemtl Material
s off
f 1/1/1 2/2/1 4/3/1 3/4/1
f 3/4/2 4/3/2 8/5/2 7/6/2
f 7/6/3 8/5/3 6/7/3 5/8/3
f 1/9/4 5/8/4 6/7/4 2/2/4
f 3/10/5 7/6/5 5/8/5 1/9/5
f 2/2/6 6/7/6 8/5/6 4/3/6
o foil.block.0.2_block.3827
v 11.000000 -0.500000 -3.000000
v 11.000000 0.500000 -3.000000
v 11.000000 -0.500000 -5.000000
v 11.000000 0.500000 -5.000000
v 13.000000 -0.500000 -3.000000
v 13.000000 0.500000 -3.000000
v 13.000000 -0.500000 -5.000000
v 13.000000 0.500000 -5.000000
vt 0.375000 0.000000
vt 0.625000 0.000000
vt 0.625000 0.250000
vt 0.375000 0.250000
vt 0.625000 0.500000
vt 0.375000 0.500000
vt 0.625000 0.750000
vt 0.375000 0.750000
vt 0.125000 0.750000
vt 0.125000 0.500000
vn -1.0000 0.0000 0.0000
vn 0.0000 0.0000 -1.0000
vn 1.0000 0.0000 0.0000
vn 0.0000 0.0000 1.0000
vn 0.0000 -1.0000 0.0000
vn 0.0000 1.0000 0.0000
usemtl Material
s off
f 9/11/7 10/12/7 12/13/7 11/14/7
f 11/14/8 12/13/8 16/15/8 15/16/8
f 15/16/9 16/15/9 14/17/9 13/18/9
f 9/19/10 13/18/10 14/17/10 10/12/10
f 11/20/11 15/16/11 13/18/11 9/19/11
f 10/12/12 14/17/12 16/15/12 12/13/12
o foil.block.0.3_block.3828
v 11.000000 -0.500000 -5.000000
v 11.000000 0.500000 -5.000000
v 11.000000 -0.500000 -7.000000
v 11.000000 0.500000 -7.000000
v 13.000000 -0.500000 -5.000000
v 13.000000 0.500000 -5.000000
v 13.000000 -0.500000 -7.000000
v 13.000000 0.500000 -7.000000
vt 0.375000 0.000000
vt 0.625000 0.000000
vt 0.625000 0.250000
vt 0.375000 0.250000
vt 0.625000 0.500000
vt 0.375000 0.500000
vt 0.625000 0.750000
vt 0.375000 0.750000
vt 0.125000 0.750000
vt 0.125000 0.500000
vn -1.0000 0.0000 0.0000
vn 0.0000 0.0000 -1.0000
vn 1.0000 0.0000 0.0000
vn 0.0000 0.0000 1.0000
vn 0.0000 -1.0000 0.0000
vn 0.0000 1.0000 0.0000
usemtl Material
s off
f 17/21/13 18/22/13 20/23/13 19/24/13
f 19/24/14 20/23/14 24/25/14 23/26/14
f 23/26/15 24/25/15 22/27/15 21/28/15
f 17/29/16 21/28/16 22/27/16 18/22/16
f 19/30/17 23/26/17 21/28/17 17/29/17
f 18/22/18 22/27/18 24/25/18 20/23/18
o foil.block.0.4_block.3829
v 11.000000 -0.500000 -7.000000
v 11.000000 0.500000 -7.000000
v 11.000000 -0.500000 -9.000000
v 11.000000 0.500000 -9.000000
v 13.000000 -0.500000 -7.000000
v 13.000000 0.500000 -7.000000
v 13.000000 -0.500000 -9.000000
v 13.000000 0.500000 -9.000000
vt 0.375000 0.000000
vt 0.625000 0.000000
vt 0.625000 0.250000
vt 0.375000 0.250000
vt 0.625000 0.500000
vt 0.375000 0.500000
vt 0.625000 0.750000
vt 0.375000 0.750000
vt 0.125000 0.750000
vt 0.125000 0.500000
vn -1.0000 0.0000 0.0000
vn 0.0000 0.0000 -1.0000
vn 1.0000 0.0000 0.0000
vn 0.0000 0.0000 1.0000
vn 0.0000 -1.0000 0.0000
vn 0.0000 1.0000 0.0000
usemtl Material
s off
f 25/31/19 26/32/19 28/33/19 27/34/19
f 27/34/20 28/33/20 32/35/20 31/36/20
f 31/36/21 32/35/21 30/37/21 29/38/21
f 25/39/22 29/38/22 30/37/22 26/32/22
f 27/40/23 31/36/23 29/38/23 25/39/23
f 26/32/24 30/37/24 32/35/24 28/33/24
o foil.block.1.1_block.3830
v 13.000000 -0.500000 -1.000000
v 13.000000 0.500000 -1.000000
v 13.000000 -0.500000 -3.000000
v 13.000000 0.500000 -3.000000
v 15.000000 -0.500000 -1.000000
v 15.000000 0.500000 -1.000000
v 15.000000 -0.500000 -3.000000
v 15.000000 0.500000 -3.000000
vt 0.375000 0.000000
vt 0.625000 0.000000
vt 0.625000 0.250000
vt 0.375000 0.250000
vt 0.625000 0.500000
vt 0.375000 0.500000
vt 0.625000 0.750000
vt 0.375000 0.750000
vt 0.125000 0.750000
vt 0.125000 0.500000
vn -1.0000 0.0000 0.0000
vn 0.0000 0.0000 -1.0000
vn 1.0000 0.0000 0.0000
vn 0.0000 0.0000 1.0000
vn 0.0000 -1.0000 0.0000
vn 0.0000 1.0000 0.0000
usemtl Material
s off
f 33/41/25 34/42/25 36/43/25 35/44/25
f 35/44/26 36/43/26 40/45/26 39/46/26
f 39/46/27 40/45/27 38/47/27 37/48/27
f 33/49/28 37/48/28 38/47/28 34/42/28
f 35/50/29 39/46/29 37/48/29 33/49/29
f 34/42/30 38/47/30 40/45/30 36/43/30
o foil.block.2.3_block.3831
v 15.000000 -0.500000 -5.000000
v 15.000000 0.500000 -5.000000
v 15.000000 -0.500000 -7.000000
v 15.000000 0.500000 -7.000000
v 17.000000 -0.500000 -5.000000
v 17.000000 0.500000 -5.000000
v 17.000000 -0.500000 -7.000000
v 17.000000 0.500000 -7.000000
vt 0.375000 0.000000
vt 0.625000 0.000000
vt 0.625000 0.250000
vt 0.375000 0.250000
vt 0.625000 0.500000
vt 0.375000 0.500000
vt 0.625000 0.750000
vt 0.375000 0.750000
vt 0.125000 0.750000
vt 0.125000 0.500000
vn -1.0000 0.0000 0.0000
vn 0.0000 0.0000 -1.0000
vn 1.0000 0.0000 0.0000
vn 0.0000 0.0000 1.0000
vn 0.0000 -1.0000 0.0000
vn 0.0000 1.0000 0.0000
usemtl Material
s off
f 41/51/31 42/52/31 44/53/31 43/54/31
f 43/54/32 44/53/32 48/55/32 47/56/32
f 47/56/33 48/55/33 46/57/33 45/58/33
f 41/59/34 45/58/34 46/57/34 42/52/34
f 43/60/35 47/56/35 45/58/35 41/59/35
f 42/52/36 46/57/36 48/55/36 44/53/36
o foil.block.2.4_block.3832
v 15.000000 -0.500000 -7.000000
v 15.000000 0.500000 -7.000000
v 15.000000 -0.500000 -9.000000
v 15.000000 0.500000 -9.000000
v 17.000000 -0.500000 -7.000000
v 17.000000 0.500000 -7.000000
v 17.000000 -0.500000 -9.000000
v 17.000000 0.500000 -9.000000
vt 0.375000 0.000000
vt 0.625000 0.000000
vt 0.625000 0.250000
vt 0.375000 0.250000
vt 0.625000 0.500000
vt 0.375000 0.500000
vt 0.625000 0.750000
vt 0.375000 0.750000
vt 0.125000 0.750000
vt 0.125000 0.500000
vn -1.0000 0.0000 0.0000
vn 0.0000 0.0000 -1.0000
vn 1.0000 0.0000 0.0000
vn 0.0000 0.0000 1.0000
vn 0.0000 -1.0000 0.0000
vn 0.0000 1.0000 0.0000
usemtl Material
s off
f 49/61/37 50/62/37 52/63/37 51/64/37
f 51/64/38 52/63/38 56/65/38 55/66/38
f 55/66/39 56/65/39 54/67/39 53/68/39
f 49/69/40 53/68/40 54/67/40 50/62/40
f 51/70/41 55/66/41 53/68/41 49/69/41
f 50/62/42 54/67/42 56/65/42 52/63/42
o foil.block.3.0_block.3833
v 17.000000 -0.500000 1.000000
v 17.000000 0.500000 1.000000
v 17.000000 -0.500000 -1.000000
v 17.000000 0.500000 -1.000000
v 19.000000 -0.500000 1.000000
v 19.000000 0.500000 1.000000
v 19.000000 -0.500000 -1.000000
v 19.000000 0.500000 -1.000000
vt 0.375000 0.000000
vt 0.625000 0.000000
vt 0.625000 0.250000
vt 0.375000 0.250000
vt 0.625000 0.500000
vt 0.375000 0.500000
vt 0.625000 0.750000
vt 0.375000 0.750000
vt 0.125000 0.750000
vt 0.125000 0.500000
vn -1.0000 0.0000 0.0000
vn 0.0000 0.0000 -1.0000
vn 1.0000 0.0000 0.0000
vn 0.0000 0.0000 1.0000
vn 0.0000 -1.0000 0.0000
vn 0.0000 1.0000 0.0000
usemtl Material
s off
f 57/71/43 58/72/43 60/73/43 59/74/43
f 59/74/44 60/73/44 64/75/44 63/76/44
f 63/76/45 64/75/45 62/77/45 61/78/45
f 57/79/46 61/78/46 62/77/46 58/72/46
f 59/80/47 63/76/47 61/78/47 57/79/47
f 58/72/48 62/77/48 64/75/48 60/73/48
o foil.block.3.1_block.3834
v 17.000000 -0.500000 -1.000000
v 17.000000 0.500000 -1.000000
v 17.000000 -0.500000 -3.000000
v 17.000000 0.500000 -3.000000
v 19.000000 -0.500000 -1.000000
v 19.000000 0.500000 -1.000000
v 19.000000 -0.500000 -3.000000
v 19.000000 0.500000 -3.000000
vt 0.375000 0.000000
vt 0.625000 0.000000
vt 0.625000 0.250000
vt 0.375000 0.250000
vt 0.625000 0.500000
vt 0.375000 0.500000
vt 0.625000 0.750000
vt 0.375000 0.750000
vt 0.125000 0.750000
vt 0.125000 0.500000
vn -1.0000 0.0000 0.0000
vn 0.0000 0.0000 -1.0000
vn 1.0000 0.0000 0.0000
vn 0.0000 0.0000 1.0000
vn 0.0000 -1.0000 0.0000
vn 0.0000 1.0000 0.0000
usemtl Material
s off
f 65/81/49 66/82/49 68/83/49 67/84/49
f 67/84/50 68/83/50 72/85/50 71/86/50
f 71/86/51 72/85/51 70/87/51 69/88/51
f 65/89/52 69/88/52 70/87/52 66/82/52
f 67/90/53 71/86/53 69/88/53 65/89/53
f 66/82/54 70/87/54 72/85/54 68/83/54
o foil.block.3.2_block.3835
v 17.000000 -0.500000 -3.000000
v 17.000000 0.500000 -3.000000
v 17.000000 -0.500000 -5.000000
v 17.000000 0.500000 -5.000000
v 19.000000 -0.500000 -3.000000
v 19.000000 0.500000 -3.000000
v 19.000000 -0.500000 -5.000000
v 19.000000 0.500000 -5.000000
vt 0.375000 0.000000
vt 0.625000 0.000000
vt 0.625000 0.250000
vt 0.375000 0.250000
vt 0.625000 0.500000
vt 0.375000 0.500000
vt 0.625000 0.750000
vt 0.375000 0.750000
vt 0.125000 0.750000
vt 0.125000 0.500000
vn -1.0000 0.0000 0.0000
vn 0.0000 0.0000 -1.0000
vn 1.0000 0.0000 0.0000
vn 0.0000 0.0000 1.0000
vn 0.0000 -1.0000 0.0000
vn 0.0000 1.0000 0.0000
usemtl Material
s off
f 73/91/55 74/92/55 76/93/55 75/94/55
f 75/94/56 76/93/56 80/95/56 79/96/56
f 79/96/57 80/95/57 78/97/57 77/98/57
f 73/99/58 77/98/58 78/97/58 74/92/58
f 75/100/59 79/96/59 77/98/59 73/99/59
f 74/92/60 78/97/60 80/95/60 76/93/60
o foil.block.3.3_block.3836
v 17.000000 -0.500000 -5.000000
v 17.000000 0.500000 -5.000000
v 17.000000 -0.500000 -7.000000
v 17.000000 0.500000 -7.000000
v 19.000000 -0.500000 -5.000000
v 19.000000 0.500000 -5.000000
v 19.000000 -0.500000 -7.000000
v 19.000000 0.500000 -7.000000
vt 0.375000 0.000000
vt 0.625000 0.000000
vt 0.625000 0.250000
vt 0.375000 0.250000
vt 0.625000 0.500000
vt 0.375000 0.500000
vt 0.625000 0.750000
vt 0.375000 0.750000
vt 0.125000 0.750000
vt 0.125000 0.500000
vn -1.0000 0.0000 0.0000
vn 0.0000 0.0000 -1.0000
vn 1.0000 0.0000 0.0000
vn 0.0000 0.0000 1.0000
vn 0.0000 -1.0000 0.0000
vn 0.0000 1.0000 0.0000
usemtl Material
s off
f 81/101/61 82/102/61 84/103/61 83/104/61
f 83/104/62 84/103/62 88/105/62 87/106/62
f 87/106/63 88/105/63 86/107/63 85/108/63
f 81/109/64 85/108/64 86/107/64 82/102/64
f 83/110/65 87/106/65 85/108/65 81/109/65
f 82/102/66 86/107/66 88/105/66 84/103/66
o foil.block.3.4_block.3837
v 17.000000 -0.500000 -7.000000
v 17.000000 0.500000 -7.000000
v 17.000000 -0.500000 -9.000000
v 17.000000 0.500000 -9.000000
v 19.000000 -0.500000 -7.000000
v 19.000000 0.500000 -7.000000
v 19.000000 -0.500000 -9.000000
v 19.000000 0.500000 -9.000000
vt 0.375000 0.000000
vt 0.625000 0.000000
vt 0.625000 0.250000
vt 0.375000 0.250000
vt 0.625000 0.500000
vt 0.375000 0.500000
vt 0.625000 0.750000
vt 0.375000 0.750000
vt 0.125000 0.750000
vt 0.125000 0.500000
vn -1.0000 0.0000 0.0000
vn 0.0000 0.0000 -1.0000
vn 1.0000 0.0000 0.0000
vn 0.0000 0.0000 1.0000
vn 0.0000 -1.0000 0.0000
vn 0.0000 1.0000 0.0000
usemtl Material
s off
f 89/111/67 90/112/67 92/113/67 91/114/67
f 91/114/68 92/113/68 96/115/68 95/116/68
f 95/116/69 96/115/69 94/117/69 93/118/69
f 89/119/70 93/118/70 94/117/70 90/112/70
f 91/120/71 95/116/71 93/118/71 89/119/71
f 90/112/72 94/117/72 96/115/72 92/113/72
o foil.block.4.0_block.3838
v 19.000000 -0.500000 1.000000
v 19.000000 0.500000 1.000000
v 19.000000 -0.500000 -1.000000
v 19.000000 0.500000 -1.000000
v 21.000000 -0.500000 1.000000
v 21.000000 0.500000 1.000000
v 21.000000 -0.500000 -1.000000
v 21.000000 0.500000 -1.000000
vt 0.375000 0.000000
vt 0.625000 0.000000
vt 0.625000 0.250000
vt 0.375000 0.250000
vt 0.625000 0.500000
vt 0.375000 0.500000
vt 0.625000 0.750000
vt 0.375000 0.750000
vt 0.125000 0.750000
vt 0.125000 0.500000
vn -1.0000 0.0000 0.0000
vn 0.0000 0.0000 -1.0000
vn 1.0000 0.0000 0.0000
vn 0.0000 0.0000 1.0000
vn 0.0000 -1.0000 0.0000
vn 0.0000 1.0000 0.0000
usemtl Material
s off
f 97/121/73 98/122/73 100/123/73 99/124/73
f 99/124/74 100/123/74 104/125/74 103/126/74
f 103/126/75 104/125/75 102/127/75 101/128/75
f 97/129/76 101/128/76 102/127/76 98/122/76
f 99/130/77 103/126/77 101/128/77 97/129/77
f 98/122/78 102/127/78 104/125/78 100/123/78
o foil.block.4.1_block.3839
v 19.000000 -0.500000 -1.000000
v 19.000000 0.500000 -1.000000
v 19.000000 -0.500000 -3.000000
v 19.000000 0.500000 -3.000000
v 21.000000 -0.500000 -1.000000
v 21.000000 0.500000 -1.000000
v 21.000000 -0.500000 -3.000000
v 21.000000 0.500000 -3.000000
vt 0.375000 0.000000
vt 0.625000 0.000000
vt 0.625000 0.250000
vt 0.375000 0.250000
vt 0.625000 0.500000
vt 0.375000 0.500000
vt 0.625000 0.750000
vt 0.375000 0.750000
vt 0.125000 0.750000
vt 0.125000 0.500000
vn -1.0000 0.0000 0.0000
vn 0.0000 0.0000 -1.0000
vn 1.0000 0.0000 0.0000
vn 0.0000 0.0000 1.0000
vn 0.0000 -1.0000 0.0000
vn 0.0000 1.0000 0.0000
usemtl Material
s off
f 105/131/79 106/132/79 108/133/79 107/134/79
f 107/134/80 108/133/80 112/135/80 111/136/80
f 111/136/81 112/135/81 110/137/81 109/138/81
f 105/139/82 109/138/82 110/137/82 106/132/82
f 107/140/83 111/136/83 109/138/83 105/139/83
f 106/132/84 110/137/84 112/135/84 108/133/84
o foil.block.4.3_block.3841
v 19.000000 -0.500000 -5.000000
v 19.000000 0.500000 -5.000000
v 19.000000 -0.500000 -7.000000
v 19.000000 0.500000 -7.000000
v 21.000000 -0.500000 -5.000000
v 21.000000 0.500000 -5.000000
v 21.000000 -0.500000 -7.000000
v 21.000000 0.500000 -7.000000
vt 0.375000 0.000000
vt 0.625000 0.000000
vt 0.625000 0.250000
vt 0.375000 0.250000
vt 0.625000 0.500000
vt 0.375000 0.500000
vt 0.625000 0.750000
vt 0.375000 0.750000
vt 0.125000 0.750000
vt 0.125000 0.500000
vn -1.0000 0.0000 0.0000
vn 0.0000 0.0000 -1.0000
vn 1.0000 0.0000 0.0000
vn 0.0000 0.0000 1.0000
vn 0.0000 -1.0000 0.0000
vn 0.0000 1.0000 0.0000
usemtl Material
s off
f 113/141/85 114/142/85 116/143/85 115/144/85
f 115/144/86 116/143/86 120/145/86 119/146/86
f 119/146/87 120/145/87 118/147/87 117/148/87
f 113/149/88 117/148/88 118/147/88 114/142/88
f 115/150/89 119/146/89 117/148/89 113/149/89
f 114/142/90 118/147/90 120/145/90 116/143/90
o foil.block.4.4_block.3842
v 19.000000 -0.500000 -7.000000
v 19.000000 0.500000 -7.000000
v 19.000000 -0.500000 -9.000000
v 19.000000 0.500000 -9.000000
v 21.000000 -0.500000 -7.000000
v 21.000000 0.500000 -7.000000
v 21.000000 -0.500000 -9.000000
v 21.000000 0.500000 -9.000000
vt 0.375000 0.000000
vt 0.625000 0.000000
vt 0.625000 0.250000
vt 0.375000 0.250000
vt 0.625000 0.500000
vt 0.375000 0.500000
vt 0.625000 0.750000
vt 0.375000 0.750000
vt 0.125000 0.750000
vt 0.125000 0.500000
vn -1.0000 0.0000 0.0000
vn 0.0000 0.0000 -1.0000
vn 1.0000 0.0000 0.0000
vn 0.0000 0.0000 1.0000
vn 0.0000 -1.0000 0.0000
vn 0.0000 1.0000 0.0000
usemtl Material
s off
f 121/151/91 122/152/91 124/153/91 123/154/91
f 123/154/92 124/153/92 128/155/92 127/156/92
f 127/156/93 128/155/93 126/157/93 125/158/93
f 121/159/94 125/158/94 126/157/94 122/152/94
f 123/160/95 127/156/95 125/158/95 121/159/95
f 122/152/96 126/157/96 128/155/96 124/153/96
