# Blender v2.90.1 OBJ File: 'script_generator.blend'
# www.blender.org
mtllib 38f_path.mtl
o foil.ending.0.0_ending.451
v 11.500000 0.250000 -0.500000
v 11.500000 0.250000 0.500000
v 13.000000 -0.500000 -1.000000
v 13.000000 0.500000 -1.000000
v 11.000000 -0.500000 -1.000000
v 11.000000 0.500000 -1.000000
v 13.000000 -0.500000 1.000000
v 13.000000 0.500000 1.000000
v 11.000000 -0.500000 1.000000
v 11.000000 0.500000 1.000000
v 13.000000 0.250000 0.500000
v 13.000000 0.250000 -0.500000
v 11.000000 0.500000 0.500000
v 11.000000 0.500000 -0.500000
v 11.500000 0.500000 1.000000
v 11.500000 0.500000 -1.000000
vt 0.125000 0.500000
vt 0.375000 0.500000
vt 0.625000 0.500000
vt 0.000000 0.000000
vt 0.000000 0.000000
vt 0.625000 0.250000
vt 0.375000 0.000000
vt 0.375000 0.250000
vt 0.625000 0.187500
vt 0.625000 0.000000
vt 0.375000 0.750000
vt 0.625000 0.750000
vt 0.625000 0.562500
vt 0.125000 0.750000
vt 0.000000 0.000000
vt 0.000000 0.000000
vt 0.000000 0.000000
vt 0.000000 0.000000
vt 0.000000 0.000000
vt 0.000000 0.000000
vt 0.000000 0.000000
vt 0.000000 0.000000
vt 0.000000 0.000000
vt 0.000000 0.000000
vt 0.125000 0.500000
vt 0.312500 0.500000
vt 0.312500 0.750000
vt 0.125000 0.750000
vt 0.000000 0.000000
vt 0.000000 0.000000
vn -1.0000 0.0000 0.0000
vn 0.0000 -0.0000 -1.0000
vn 0.0000 1.0000 0.0000
vn -0.0000 -0.0000 1.0000
vn 0.0000 -1.0000 0.0000
vn 1.0000 0.0000 0.0000
vn 0.4082 0.8165 -0.4082
vn 0.4082 0.8165 0.4082
vn 0.4472 0.8944 0.0000
vn 0.0000 0.8944 -0.4472
vn 0.0000 0.8944 0.4472
usemtl Material
s off
f 5/1/1 9/2/1 10/3/1 13/4/1 14/5/1 6/6/1
f 3/7/2 5/8/2 6/6/2 16/9/2 4/10/2
f 16/9/3 6/6/3 14/5/3
f 9/2/4 7/11/4 8/12/4 15/13/4 10/3/4
f 15/13/3 13/4/3 10/3/3
f 5/1/5 3/14/5 7/11/5 9/2/5
f 10/15/4 9/16/4 7/17/4 8/18/4
f 6/19/2 4/20/2 3/21/2 5/22/2
f 3/21/6 4/20/6 12/23/6 11/24/6 8/18/6 7/17/6
usemtl PathFace
f 2/25/3 11/26/3 12/27/3 1/28/3
f 13/4/7 15/13/7 2/29/7
f 16/9/8 14/5/8 1/30/8
f 1/30/9 14/5/9 13/4/9 2/29/9
f 11/26/10 2/29/10 15/13/10 8/12/10
f 1/28/11 12/27/11 4/10/11 16/9/11
o foil.through.1.0_through.238
v 13.000004 -0.500000 -1.000004
v 13.000004 0.500000 -1.000004
v 15.000004 -0.500000 -0.999996
v 15.000004 0.500000 -0.999996
v 12.999996 -0.500000 0.999996
v 12.999996 0.500000 0.999996
v 14.999996 -0.500000 1.000004
v 14.999996 0.500000 1.000004
v 14.999998 0.250000 0.500004
v 12.999998 0.250000 0.499996
v 15.000002 0.250000 -0.499996
v 13.000002 0.250000 -0.500004
vt 0.375000 0.000000
vt 0.625000 0.000000
vt 0.625000 0.250000
vt 0.375000 0.250000
vt 0.375000 0.500000
vt 0.625000 0.500000
vt 0.625000 0.750000
vt 0.375000 0.750000
vt 0.152781 0.750000
vt 0.152781 0.500000
vt 0.125000 0.500000
vt 0.125000 0.750000
vt 0.282406 0.500000
vt 0.282406 0.750000
vn 0.0000 0.0000 -1.0000
vn -0.0000 0.0000 1.0000
vn 1.0000 0.0000 0.0000
vn 0.0000 -1.0000 0.0000
vn -1.0000 -0.0000 -0.0000
vn -0.0000 0.8944 0.4472
vn 0.0000 0.8944 -0.4472
vn 0.0000 1.0000 0.0000
usemtl Material
s off
f 17/31/12 18/32/12 20/33/12 19/34/12
f 23/35/13 24/36/13 22/37/13 21/38/13
f 20/33/14 27/39/14 25/40/14 24/36/14 23/35/14 19/41/14
f 19/41/15 23/35/15 21/38/15 17/42/15
f 18/32/16 17/42/16 21/38/16 22/37/16 26/43/16 28/44/16
usemtl PathFace
f 18/32/17 28/44/17 27/39/17 20/33/17
f 24/36/18 25/40/18 26/43/18 22/37/18
f 27/39/19 28/44/19 26/43/19 25/40/19
o foil.corner.1.2_corner.1114
v 13.500000 0.250000 -3.500000
v 15.000000 -0.500000 -5.000000
v 15.000000 0.500000 -5.000000
v 13.000000 -0.500000 -5.000000
v 13.000000 0.500000 -5.000000
v 15.000000 -0.500000 -3.000000
v 15.000000 0.500000 -3.000000
v 13.000000 -0.500000 -3.000000
v 13.000000 0.500000 -3.000000
v 15.000000 0.250000 -3.500000
v 15.000000 0.250000 -4.500000
v 13.500000 0.250000 -5.000000
v 14.500000 0.250000 -5.000000
v 14.500000 0.000000 -4.500000
v 14.500000 0.000000 -4.500000
v 14.500000 0.250000 -4.500000
vt 0.375000 0.250000
vt 0.375000 0.500000
vt 0.625000 0.500000
vt 0.625000 0.250000
vt 0.375000 0.750000
vt 0.625000 0.750000
vt 0.125000 0.500000
vt 0.125000 0.750000
vt 0.000000 0.000000
vt 0.500000 0.937500
vt 0.500000 0.812500
vt 0.500000 0.187500
vt 0.500000 0.062500
vt 0.375000 0.250000
vt 0.000000 0.000000
vn -1.0000 0.0000 0.0000
vn 0.0000 0.0000 1.0000
vn 0.0000 -1.0000 0.0000
vn 1.0000 0.0000 0.0000
vn 0.0000 0.0000 -1.0000
vn 0.0000 1.0000 0.0000
vn 0.0000 0.8944 -0.4472
vn 0.4472 0.8944 0.0000
vn -0.4472 0.8944 0.0000
vn 0.0000 0.8944 0.4472
usemtl Material
s off
f 32/45/20 36/46/20 37/47/20 33/48/20
f 36/46/21 34/49/21 35/50/21 37/47/21
f 32/51/22 30/52/22 34/49/22 36/46/22
f 31/53/23 39/54/23 38/55/23 35/50/23 34/49/23 30/52/23
f 32/45/24 33/48/24 40/56/24 41/57/24 31/53/24 30/52/24
usemtl PathFace
f 29/58/25 38/55/25 39/54/25 44/59/25 41/57/25 40/56/25
f 38/55/26 29/58/26 37/47/26 35/50/26
f 33/48/27 37/47/27 29/58/27 40/56/27
f 31/53/28 41/57/28 44/59/28
f 31/53/29 44/59/29 39/54/29
l 42 39
l 42 39
l 42 41
l 43 42
l 42 44
o foil.through.1.3_through.239
v 15.000003 -0.500000 -6.999998
v 15.000003 0.500000 -6.999998
v 14.999997 -0.500000 -4.999998
v 14.999997 0.500000 -4.999998
v 13.000003 -0.500000 -7.000002
v 13.000003 0.500000 -7.000002
v 12.999997 -0.500000 -5.000002
v 12.999997 0.500000 -5.000002
v 13.499997 0.250000 -5.000001
v 13.500003 0.250000 -7.000001
v 14.499997 0.250000 -4.999999
v 14.500003 0.250000 -6.999999
vt 0.375000 0.000000
vt 0.625000 0.000000
vt 0.625000 0.250000
vt 0.375000 0.250000
vt 0.375000 0.500000
vt 0.625000 0.500000
vt 0.625000 0.750000
vt 0.375000 0.750000
vt 0.152781 0.750000
vt 0.152781 0.500000
vt 0.125000 0.500000
vt 0.125000 0.750000
vt 0.282406 0.500000
vt 0.282406 0.750000
vn 1.0000 0.0000 0.0000
vn -1.0000 0.0000 -0.0000
vn -0.0000 0.0000 1.0000
vn 0.0000 -1.0000 0.0000
vn 0.0000 0.0000 -1.0000
vn -0.4472 0.8944 -0.0000
vn 0.4472 0.8944 0.0000
vn 0.0000 1.0000 0.0000
usemtl Material
s off
f 45/60/30 46/61/30 48/62/30 47/63/30
f 51/64/31 52/65/31 50/66/31 49/67/31
f 48/62/32 55/68/32 53/69/32 52/65/32 51/64/32 47/70/32
f 47/70/33 51/64/33 49/67/33 45/71/33
f 46/61/34 45/71/34 49/67/34 50/66/34 54/72/34 56/73/34
usemtl PathFace
f 46/61/35 56/73/35 55/68/35 48/62/35
f 52/65/36 53/69/36 54/72/36 50/66/36
f 55/68/37 56/73/37 54/72/37 53/69/37
o foil.ending.1.4_ending.452
v 14.500000 0.250000 -8.500000
v 13.500000 0.250000 -8.500000
v 15.000000 -0.500000 -7.000000
v 15.000000 0.500000 -7.000000
v 15.000000 -0.500000 -9.000000
v 15.000000 0.500000 -9.000000
v 13.000000 -0.500000 -7.000000
v 13.000000 0.500000 -7.000000
v 13.000000 -0.500000 -9.000000
v 13.000000 0.500000 -9.000000
v 13.500000 0.250000 -7.000000
v 14.500000 0.250000 -7.000000
v 13.500000 0.500000 -9.000000
v 14.500000 0.500000 -9.000000
v 13.000000 0.500000 -8.500000
v 15.000000 0.500000 -8.500000
vt 0.125000 0.500000
vt 0.375000 0.500000
vt 0.625000 0.500000
vt 0.000000 0.000000
vt 0.000000 0.000000
vt 0.625000 0.250000
vt 0.375000 0.000000
vt 0.375000 0.250000
vt 0.625000 0.187500
vt 0.625000 0.000000
vt 0.375000 0.750000
vt 0.625000 0.750000
vt 0.625000 0.562500
vt 0.125000 0.750000
vt 0.000000 0.000000
vt 0.000000 0.000000
vt 0.000000 0.000000
vt 0.000000 0.000000
vt 0.000000 0.000000
vt 0.000000 0.000000
vt 0.000000 0.000000
vt 0.000000 0.000000
vt 0.000000 0.000000
vt 0.000000 0.000000
vt 0.125000 0.500000
vt 0.312500 0.500000
vt 0.312500 0.750000
vt 0.125000 0.750000
vt 0.000000 0.000000
vt 0.000000 0.000000
vn 0.0000 0.0000 -1.0000
vn 1.0000 0.0000 0.0000
vn 0.0000 1.0000 0.0000
vn -1.0000 0.0000 0.0000
vn 0.0000 -1.0000 0.0000
vn 0.0000 0.0000 1.0000
vn 0.4082 0.8165 0.4082
vn -0.4082 0.8165 0.4082
vn 0.0000 0.8944 0.4472
vn 0.4472 0.8944 0.0000
vn -0.4472 0.8944 0.0000
usemtl Material
s off
f 61/74/38 65/75/38 66/76/38 69/77/38 70/78/38 62/79/38
f 59/80/39 61/81/39 62/79/39 72/82/39 60/83/39
f 72/82/40 62/79/40 70/78/40
f 65/75/41 63/84/41 64/85/41 71/86/41 66/76/41
f 71/86/40 69/77/40 66/76/40
f 61/74/42 59/87/42 63/84/42 65/75/42
f 66/88/41 65/89/41 63/90/41 64/91/41
f 62/92/39 60/93/39 59/94/39 61/95/39
f 59/94/43 60/93/43 68/96/43 67/97/43 64/91/43 63/90/43
usemtl PathFace
f 58/98/40 67/99/40 68/100/40 57/101/40
f 69/77/44 71/86/44 58/102/44
f 72/82/45 70/78/45 57/103/45
f 57/103/46 70/78/46 69/77/46 58/102/46
f 67/99/47 58/102/47 71/86/47 64/85/47
f 57/101/48 68/100/48 60/83/48 72/82/48
o foil.corner.2.0_corner.1115
v 16.500000 0.250000 0.500000
v 15.000000 -0.500000 -1.000000
v 15.000000 0.500000 -1.000000
v 15.000000 -0.500000 1.000000
v 15.000000 0.500000 1.000000
v 17.000000 -0.500000 -1.000000
v 17.000000 0.500000 -1.000000
v 17.000000 -0.500000 1.000000
v 17.000000 0.500000 1.000000
v 16.500000 0.250000 -1.000000
v 15.500000 0.250000 -1.000000
v 15.000000 0.250000 0.500000
v 15.000000 0.250000 -0.500000
v 15.500000 0.000000 -0.500000
v 15.500000 0.000000 -0.500000
v 15.500000 0.250000 -0.500000
vt 0.375000 0.250000
vt 0.375000 0.500000
vt 0.625000 0.500000
vt 0.625000 0.250000
vt 0.375000 0.750000
vt 0.625000 0.750000
vt 0.125000 0.500000
vt 0.125000 0.750000
vt 0.000000 0.000000
vt 0.500000 0.937500
vt 0.500000 0.812500
vt 0.500000 0.187500
vt 0.500000 0.062500
vt 0.375000 0.250000
vt 0.000000 0.000000
vn 0.0000 0.0000 1.0000
vn 1.0000 0.0000 0.0000
vn 0.0000 -1.0000 0.0000
vn -0.0000 0.0000 -1.0000
vn -1.0000 0.0000 0.0000
vn 0.0000 1.0000 0.0000
vn -0.4472 0.8944 0.0000
vn -0.0000 0.8944 -0.4472
vn 0.0000 0.8944 0.4472
vn 0.4472 0.8944 0.0000
usemtl Material
s off
f 76/104/49 80/105/49 81/106/49 77/107/49
f 80/105/50 78/108/50 79/109/50 81/106/50
f 76/110/51 74/111/51 78/108/51 80/105/51
f 75/112/52 83/113/52 82/114/52 79/109/52 78/108/52 74/111/52
f 76/104/53 77/107/53 84/115/53 85/116/53 75/112/53 74/111/53
usemtl PathFace
f 73/117/54 82/114/54 83/113/54 88/118/54 85/116/54 84/115/54
f 82/114/55 73/117/55 81/106/55 79/109/55
f 77/107/56 81/106/56 73/117/56 84/115/56
f 75/112/57 85/116/57 88/118/57
f 75/112/58 88/118/58 83/113/58
l 86 83
l 86 83
l 86 85
l 87 86
l 86 88
o foil.through.2.1_through.240
v 17.000002 -0.500000 -2.999997
v 17.000002 0.500000 -2.999997
v 16.999998 -0.500000 -0.999997
v 16.999998 0.500000 -0.999997
v 15.000003 -0.500000 -3.000002
v 15.000003 0.500000 -3.000002
v 14.999997 -0.500000 -1.000003
v 14.999997 0.500000 -1.000003
v 15.499997 0.250000 -1.000001
v 15.500003 0.250000 -3.000001
v 16.499998 0.250000 -0.999999
v 16.500002 0.250000 -2.999999
vt 0.375000 0.000000
vt 0.625000 0.000000
vt 0.625000 0.250000
vt 0.375000 0.250000
vt 0.375000 0.500000
vt 0.625000 0.500000
vt 0.625000 0.750000
vt 0.375000 0.750000
vt 0.152781 0.750000
vt 0.152781 0.500000
vt 0.125000 0.500000
vt 0.125000 0.750000
vt 0.282406 0.500000
vt 0.282406 0.750000
vn 1.0000 0.0000 0.0000
vn -1.0000 0.0000 -0.0000
vn -0.0000 -0.0000 1.0000
vn 0.0000 -1.0000 0.0000
vn 0.0000 -0.0000 -1.0000
vn -0.4472 0.8944 -0.0000
vn 0.4472 0.8944 0.0000
vn 0.0000 1.0000 0.0000
usemtl Material
s off
f 89/119/59 90/120/59 92/121/59 91/122/59
f 95/123/60 96/124/60 94/125/60 93/126/60
f 92/121/61 99/127/61 97/128/61 96/124/61 95/123/61 91/129/61
f 91/129/62 95/123/62 93/126/62 89/130/62
f 90/120/63 89/130/63 93/126/63 94/125/63 98/131/63 100/132/63
usemtl PathFace
f 90/120/64 100/132/64 99/127/64 92/121/64
f 96/124/65 97/128/65 98/131/65 94/125/65
f 99/127/66 100/132/66 98/131/66 97/128/66
o foil.corner.2.2_corner.1116
v 16.500000 0.250000 -4.500000
v 15.000000 -0.500000 -3.000000
v 15.000000 0.500000 -3.000000
v 17.000000 -0.500000 -3.000000
v 17.000000 0.500000 -3.000000
v 15.000000 -0.500000 -5.000000
v 15.000000 0.500000 -5.000000
v 17.000000 -0.500000 -5.000000
v 17.000000 0.500000 -5.000000
v 15.000000 0.250000 -4.500000
v 15.000000 0.250000 -3.500000
v 16.500000 0.250000 -3.000000
v 15.500000 0.250000 -3.000000
v 15.500000 0.000000 -3.500000
v 15.500000 0.000000 -3.500000
v 15.500000 0.250000 -3.500000
vt 0.375000 0.250000
vt 0.375000 0.500000
vt 0.625000 0.500000
vt 0.625000 0.250000
vt 0.375000 0.750000
vt 0.625000 0.750000
vt 0.125000 0.500000
vt 0.125000 0.750000
vt 0.000000 0.000000
vt 0.500000 0.937500
vt 0.500000 0.812500
vt 0.500000 0.187500
vt 0.500000 0.062500
vt 0.375000 0.250000
vt 0.000000 0.000000
vn 1.0000 0.0000 0.0000
vn 0.0000 0.0000 -1.0000
vn 0.0000 -1.0000 0.0000
vn -1.0000 0.0000 0.0000
vn 0.0000 0.0000 1.0000
vn 0.0000 1.0000 0.0000
vn 0.0000 0.8944 0.4472
vn -0.4472 0.8944 0.0000
vn 0.4472 0.8944 0.0000
vn 0.0000 0.8944 -0.4472
usemtl Material
s off
f 104/133/67 108/134/67 109/135/67 105/136/67
f 108/134/68 106/137/68 107/138/68 109/135/68
f 104/139/69 102/140/69 106/137/69 108/134/69
f 103/141/70 111/142/70 110/143/70 107/138/70 106/137/70 102/140/70
f 104/133/71 105/136/71 112/144/71 113/145/71 103/141/71 102/140/71
usemtl PathFace
f 101/146/72 110/143/72 111/142/72 116/147/72 113/145/72 112/144/72
f 110/143/73 101/146/73 109/135/73 107/138/73
f 105/136/74 109/135/74 101/146/74 112/144/74
f 103/141/75 113/145/75 116/147/75
f 103/141/76 116/147/76 111/142/76
l 114 111
l 114 111
l 114 113
l 115 114
l 114 116
o foil.hole.4.2_Cube.227
v 19.500000 0.250000 -4.500000
v 19.000000 -0.500000 -5.000000
v 19.000000 0.500000 -5.000000
v 19.500000 0.500000 -5.000000
v 19.000000 0.500000 -4.500000
v 20.500000 0.250000 -4.500000
v 21.000000 -0.500000 -5.000000
v 21.000000 0.500000 -5.000000
v 20.500000 0.500000 -5.000000
v 21.000000 0.500000 -4.500000
v 19.500000 0.250000 -3.500000
v 19.000000 -0.500000 -3.000000
v 19.000000 0.500000 -3.000000
v 19.500000 0.500000 -3.000000
v 19.000000 0.500000 -3.500000
v 20.500000 0.250000 -3.500000
v 21.000000 -0.500000 -3.000000
v 21.000000 0.500000 -3.000000
v 20.500000 0.500000 -3.000000
v 21.000000 0.500000 -3.500000
vt 0.625000 0.187500
vt 0.000000 0.000000
vt 0.625000 0.250000
vt 0.375000 0.812500
vt 0.375000 0.750000
vt 1.000000 1.000000
vt 0.375000 0.812500
vt 0.375000 0.750000
vt 1.000000 1.000000
vt 0.625000 0.187500
vt 0.000000 0.000000
vt 0.625000 0.250000
vt 0.875000 0.500000
vt 0.000000 0.000000
vt 0.125000 0.500000
vt 0.000000 0.000000
vt 0.000000 0.000000
vt 1.000000 1.000000
vt 1.000000 1.000000
vt 0.000000 0.000000
vt 0.000000 0.000000
vn 0.0000 1.0000 0.0000
vn 0.0000 0.0000 -1.0000
vn 1.0000 0.0000 0.0000
vn -1.0000 0.0000 0.0000
vn 0.0000 0.0000 1.0000
vn 0.0000 -1.0000 0.0000
vn 0.4082 0.8165 0.4082
vn -0.4082 0.8165 0.4082
vn 0.4472 0.8944 0.0000
vn 0.4082 0.8165 -0.4082
vn -0.4472 0.8944 0.0000
vn -0.4082 0.8165 -0.4082
vn 0.0000 0.8944 0.4472
vn 0.0000 0.8944 -0.4472
usemtl Material
s off
f 121/148/77 120/149/77 119/150/77
f 126/151/77 124/152/77 125/153/77
f 131/154/77 129/155/77 130/156/77
f 136/157/77 135/158/77 134/159/77
f 119/150/78 120/149/78 125/153/78 124/152/78 123/160/78 118/161/78
f 124/152/79 126/151/79 136/157/79 134/159/79 133/162/79 123/160/79
f 118/161/80 128/163/80 129/155/80 131/154/80 121/148/80 119/150/80
f 129/155/81 128/163/81 133/162/81 134/159/81 135/158/81 130/156/81
f 128/163/82 118/161/82 123/160/82 133/162/82
usemtl PathFace
f 121/148/83 117/164/83 120/149/83
f 126/151/84 125/153/84 122/165/84
f 121/148/85 131/154/85 127/166/85 117/164/85
f 131/154/86 130/156/86 127/166/86
f 122/165/77 117/164/77 127/167/77 132/168/77
f 126/151/87 122/165/87 132/168/87 136/157/87
f 136/157/88 132/168/88 135/158/88
f 120/149/89 117/164/89 122/165/89 125/153/89
f 130/156/90 135/158/90 132/168/90 127/167/90
