# Blender v2.90.1 OBJ File: 'script_generator.blend'
# www.blender.org
mtllib 39f_path.mtl
o foil.ending.0.1_ending.455
v 11.500000 0.250000 -2.500000
v 11.500000 0.250000 -1.500000
v 13.000000 -0.500000 -3.000000
v 13.000000 0.500000 -3.000000
v 11.000000 -0.500000 -3.000000
v 11.000000 0.500000 -3.000000
v 13.000000 -0.500000 -1.000000
v 13.000000 0.500000 -1.000000
v 11.000000 -0.500000 -1.000000
v 11.000000 0.500000 -1.000000
v 13.000000 0.250000 -1.500000
v 13.000000 0.250000 -2.500000
v 11.000000 0.500000 -1.500000
v 11.000000 0.500000 -2.500000
v 11.500000 0.500000 -1.000000
v 11.500000 0.500000 -3.000000
vt 0.125000 0.500000
vt 0.375000 0.500000
vt 0.625000 0.500000
vt 0.000000 0.000000
vt 0.000000 0.000000
vt 0.625000 0.250000
vt 0.375000 0.000000
vt 0.375000 0.250000
vt 0.625000 0.187500
vt 0.625000 0.000000
vt 0.375000 0.750000
vt 0.625000 0.750000
vt 0.625000 0.562500
vt 0.125000 0.750000
vt 0.000000 0.000000
vt 0.000000 0.000000
vt 0.000000 0.000000
vt 0.000000 0.000000
vt 0.000000 0.000000
vt 0.000000 0.000000
vt 0.000000 0.000000
vt 0.000000 0.000000
vt 0.000000 0.000000
vt 0.000000 0.000000
vt 0.125000 0.500000
vt 0.312500 0.500000
vt 0.312500 0.750000
vt 0.125000 0.750000
vt 0.000000 0.000000
vt 0.000000 0.000000
vn -1.0000 0.0000 0.0000
vn 0.0000 0.0000 -1.0000
vn 0.0000 1.0000 0.0000
vn 0.0000 0.0000 1.0000
vn 0.0000 -1.0000 0.0000
vn 1.0000 0.0000 0.0000
vn 0.4082 0.8165 -0.4082
vn 0.4082 0.8165 0.4082
vn 0.4472 0.8944 0.0000
vn 0.0000 0.8944 -0.4472
vn 0.0000 0.8944 0.4472
usemtl Material
s off
f 5/1/1 9/2/1 10/3/1 13/4/1 14/5/1 6/6/1
f 3/7/2 5/8/2 6/6/2 16/9/2 4/10/2
f 16/9/3 6/6/3 14/5/3
f 9/2/4 7/11/4 8/12/4 15/13/4 10/3/4
f 15/13/3 13/4/3 10/3/3
f 5/1/5 3/14/5 7/11/5 9/2/5
f 10/15/4 9/16/4 7/17/4 8/18/4
f 6/19/2 4/20/2 3/21/2 5/22/2
f 3/21/6 4/20/6 12/23/6 11/24/6 8/18/6 7/17/6
usemtl PathFace
f 2/25/3 11/26/3 12/27/3 1/28/3
f 13/4/7 15/13/7 2/29/7
f 16/9/8 14/5/8 1/30/8
f 1/30/9 14/5/9 13/4/9 2/29/9
f 11/26/10 2/29/10 15/13/10 8/12/10
f 1/28/11 12/27/11 4/10/11 16/9/11
o foil.corner.1.0_corner.1122
v 13.500000 0.250000 0.500000
v 15.000000 -0.500000 -1.000000
v 15.000000 0.500000 -1.000000
v 13.000000 -0.500000 -1.000000
v 13.000000 0.500000 -1.000000
v 15.000000 -0.500000 1.000000
v 15.000000 0.500000 1.000000
v 13.000000 -0.500000 1.000000
v 13.000000 0.500000 1.000000
v 15.000000 0.250000 0.500000
v 15.000000 0.250000 -0.500000
v 13.500000 0.250000 -1.000000
v 14.500000 0.250000 -1.000000
v 14.500000 0.000000 -0.500000
v 14.500000 0.000000 -0.500000
v 14.500000 0.250000 -0.500000
vt 0.375000 0.250000
vt 0.375000 0.500000
vt 0.625000 0.500000
vt 0.625000 0.250000
vt 0.375000 0.750000
vt 0.625000 0.750000
vt 0.125000 0.500000
vt 0.125000 0.750000
vt 0.000000 0.000000
vt 0.500000 0.937500
vt 0.500000 0.812500
vt 0.500000 0.187500
vt 0.500000 0.062500
vt 0.375000 0.250000
vt 0.000000 0.000000
vn -1.0000 0.0000 0.0000
vn 0.0000 0.0000 1.0000
vn 0.0000 -1.0000 0.0000
vn 1.0000 0.0000 0.0000
vn -0.0000 -0.0000 -1.0000
vn 0.0000 1.0000 0.0000
vn -0.0000 0.8944 -0.4472
vn 0.4472 0.8944 0.0000
vn -0.4472 0.8944 0.0000
vn 0.0000 0.8944 0.4472
usemtl Material
s off
f 20/31/12 24/32/12 25/33/12 21/34/12
f 24/32/13 22/35/13 23/36/13 25/33/13
f 20/37/14 18/38/14 22/35/14 24/32/14
f 19/39/15 27/40/15 26/41/15 23/36/15 22/35/15 18/38/15
f 20/31/16 21/34/16 28/42/16 29/43/16 19/39/16 18/38/16
usemtl PathFace
f 17/44/17 26/41/17 27/40/17 32/45/17 29/43/17 28/42/17
f 26/41/18 17/44/18 25/33/18 23/36/18
f 21/34/19 25/33/19 17/44/19 28/42/19
f 19/39/20 29/43/20 32/45/20
f 19/39/21 32/45/21 27/40/21
l 30 27
l 30 27
l 30 29
l 31 30
l 30 32
o foil.corner.1.1_corner.1123
v 14.500000 0.250000 -2.500000
v 13.000000 -0.500000 -1.000000
v 13.000000 0.500000 -1.000000
v 15.000000 -0.500000 -1.000000
v 15.000000 0.500000 -1.000000
v 13.000000 -0.500000 -3.000000
v 13.000000 0.500000 -3.000000
v 15.000000 -0.500000 -3.000000
v 15.000000 0.500000 -3.000000
v 13.000000 0.250000 -2.500000
v 13.000000 0.250000 -1.500000
v 14.500000 0.250000 -1.000000
v 13.500000 0.250000 -1.000000
v 13.500000 0.000000 -1.500000
v 13.500000 0.000000 -1.500000
v 13.500000 0.250000 -1.500000
vt 0.375000 0.250000
vt 0.375000 0.500000
vt 0.625000 0.500000
vt 0.625000 0.250000
vt 0.375000 0.750000
vt 0.625000 0.750000
vt 0.125000 0.500000
vt 0.125000 0.750000
vt 0.000000 0.000000
vt 0.500000 0.937500
vt 0.500000 0.812500
vt 0.500000 0.187500
vt 0.500000 0.062500
vt 0.375000 0.250000
vt 0.000000 0.000000
vn 1.0000 0.0000 0.0000
vn 0.0000 0.0000 -1.0000
vn 0.0000 -1.0000 0.0000
vn -1.0000 0.0000 0.0000
vn 0.0000 0.0000 1.0000
vn 0.0000 1.0000 0.0000
vn 0.0000 0.8944 0.4472
vn -0.4472 0.8944 0.0000
vn 0.4472 0.8944 0.0000
vn 0.0000 0.8944 -0.4472
usemtl Material
s off
f 36/46/22 40/47/22 41/48/22 37/49/22
f 40/47/23 38/50/23 39/51/23 41/48/23
f 36/52/24 34/53/24 38/50/24 40/47/24
f 35/54/25 43/55/25 42/56/25 39/51/25 38/50/25 34/53/25
f 36/46/26 37/49/26 44/57/26 45/58/26 35/54/26 34/53/26
usemtl PathFace
f 33/59/27 42/56/27 43/55/27 48/60/27 45/58/27 44/57/27
f 42/56/28 33/59/28 41/48/28 39/51/28
f 37/49/29 41/48/29 33/59/29 44/57/29
f 35/54/30 45/58/30 48/60/30
f 35/54/31 48/60/31 43/55/31
l 46 43
l 46 43
l 46 45
l 47 46
l 46 48
o foil.hole.1.3_Cube.229
v 13.500000 0.250000 -6.500000
v 13.000000 -0.500000 -7.000000
v 13.000000 0.500000 -7.000000
v 13.500000 0.500000 -7.000000
v 13.000000 0.500000 -6.500000
v 14.500000 0.250000 -6.500000
v 15.000000 -0.500000 -7.000000
v 15.000000 0.500000 -7.000000
v 14.500000 0.500000 -7.000000
v 15.000000 0.500000 -6.500000
v 13.500000 0.250000 -5.500000
v 13.000000 -0.500000 -5.000000
v 13.000000 0.500000 -5.000000
v 13.500000 0.500000 -5.000000
v 13.000000 0.500000 -5.500000
v 14.500000 0.250000 -5.500000
v 15.000000 -0.500000 -5.000000
v 15.000000 0.500000 -5.000000
v 14.500000 0.500000 -5.000000
v 15.000000 0.500000 -5.500000
vt 0.625000 0.187500
vt 0.000000 0.000000
vt 0.625000 0.250000
vt 0.375000 0.812500
vt 0.375000 0.750000
vt 1.000000 1.000000
vt 0.375000 0.812500
vt 0.375000 0.750000
vt 1.000000 1.000000
vt 0.625000 0.187500
vt 0.000000 0.000000
vt 0.625000 0.250000
vt 0.875000 0.500000
vt 0.000000 0.000000
vt 0.125000 0.500000
vt 0.000000 0.000000
vt 0.000000 0.000000
vt 1.000000 1.000000
vt 1.000000 1.000000
vt 0.000000 0.000000
vt 0.000000 0.000000
vn 0.0000 1.0000 0.0000
vn 0.0000 0.0000 -1.0000
vn 1.0000 0.0000 0.0000
vn -1.0000 0.0000 0.0000
vn 0.0000 0.0000 1.0000
vn 0.0000 -1.0000 0.0000
vn 0.4082 0.8165 0.4082
vn -0.4082 0.8165 0.4082
vn 0.4472 0.8944 0.0000
vn 0.4082 0.8165 -0.4082
vn -0.4472 0.8944 0.0000
vn -0.4082 0.8165 -0.4082
vn 0.0000 0.8944 0.4472
vn 0.0000 0.8944 -0.4472
usemtl Material
s off
f 53/61/32 52/62/32 51/63/32
f 58/64/32 56/65/32 57/66/32
f 63/67/32 61/68/32 62/69/32
f 68/70/32 67/71/32 66/72/32
f 51/63/33 52/62/33 57/66/33 56/65/33 55/73/33 50/74/33
f 56/65/34 58/64/34 68/70/34 66/72/34 65/75/34 55/73/34
f 50/74/35 60/76/35 61/68/35 63/67/35 53/61/35 51/63/35
f 61/68/36 60/76/36 65/75/36 66/72/36 67/71/36 62/69/36
f 60/76/37 50/74/37 55/73/37 65/75/37
usemtl PathFace
f 53/61/38 49/77/38 52/62/38
f 58/64/39 57/66/39 54/78/39
f 53/61/40 63/67/40 59/79/40 49/77/40
f 63/67/41 62/69/41 59/79/41
f 54/78/32 49/77/32 59/80/32 64/81/32
f 58/64/42 54/78/42 64/81/42 68/70/42
f 68/70/43 64/81/43 67/71/43
f 52/62/44 49/77/44 54/78/44 57/66/44
f 62/69/45 67/71/45 64/81/45 59/80/45
o foil.through.2.0_through.242
v 17.000004 -0.500000 0.999996
v 17.000004 0.500000 0.999996
v 15.000004 -0.500000 1.000004
v 15.000004 0.500000 1.000004
v 16.999996 -0.500000 -1.000004
v 16.999996 0.500000 -1.000004
v 14.999996 -0.500000 -0.999996
v 14.999996 0.500000 -0.999996
v 14.999998 0.250000 -0.499996
v 16.999998 0.250000 -0.500004
v 15.000002 0.250000 0.500004
v 17.000002 0.250000 0.499996
vt 0.375000 0.000000
vt 0.625000 0.000000
vt 0.625000 0.250000
vt 0.375000 0.250000
vt 0.375000 0.500000
vt 0.625000 0.500000
vt 0.625000 0.750000
vt 0.375000 0.750000
vt 0.152781 0.750000
vt 0.152781 0.500000
vt 0.125000 0.500000
vt 0.125000 0.750000
vt 0.282406 0.500000
vt 0.282406 0.750000
vn 0.0000 0.0000 1.0000
vn -0.0000 0.0000 -1.0000
vn -1.0000 0.0000 0.0000
vn 0.0000 -1.0000 0.0000
vn 1.0000 0.0000 -0.0000
vn -0.0000 0.8944 -0.4472
vn 0.0000 0.8944 0.4472
vn 0.0000 1.0000 0.0000
usemtl Material
s off
f 69/82/46 70/83/46 72/84/46 71/85/46
f 75/86/47 76/87/47 74/88/47 73/89/47
f 72/84/48 79/90/48 77/91/48 76/87/48 75/86/48 71/92/48
f 71/92/49 75/86/49 73/89/49 69/93/49
f 70/83/50 69/93/50 73/89/50 74/88/50 78/94/50 80/95/50
usemtl PathFace
f 70/83/51 80/95/51 79/90/51 72/84/51
f 76/87/52 77/91/52 78/94/52 74/88/52
f 79/90/53 80/95/53 78/94/53 77/91/53
o foil.corner.3.0_corner.1124
v 18.500000 0.250000 0.500000
v 17.000000 -0.500000 -1.000000
v 17.000000 0.500000 -1.000000
v 17.000000 -0.500000 1.000000
v 17.000000 0.500000 1.000000
v 19.000000 -0.500000 -1.000000
v 19.000000 0.500000 -1.000000
v 19.000000 -0.500000 1.000000
v 19.000000 0.500000 1.000000
v 18.500000 0.250000 -1.000000
v 17.500000 0.250000 -1.000000
v 17.000000 0.250000 0.500000
v 17.000000 0.250000 -0.500000
v 17.500000 0.000000 -0.500000
v 17.500000 0.000000 -0.500000
v 17.500000 0.250000 -0.500000
vt 0.375000 0.250000
vt 0.375000 0.500000
vt 0.625000 0.500000
vt 0.625000 0.250000
vt 0.375000 0.750000
vt 0.625000 0.750000
vt 0.125000 0.500000
vt 0.125000 0.750000
vt 0.000000 0.000000
vt 0.500000 0.937500
vt 0.500000 0.812500
vt 0.500000 0.187500
vt 0.500000 0.062500
vt 0.375000 0.250000
vt 0.000000 0.000000
vn 0.0000 0.0000 1.0000
vn 1.0000 0.0000 0.0000
vn 0.0000 -1.0000 0.0000
vn -0.0000 0.0000 -1.0000
vn -1.0000 0.0000 0.0000
vn 0.0000 1.0000 0.0000
vn -0.4472 0.8944 0.0000
vn -0.0000 0.8944 -0.4472
vn 0.0000 0.8944 0.4472
vn 0.4472 0.8944 0.0000
usemtl Material
s off
f 84/96/54 88/97/54 89/98/54 85/99/54
f 88/97/55 86/100/55 87/101/55 89/98/55
f 84/102/56 82/103/56 86/100/56 88/97/56
f 83/104/57 91/105/57 90/106/57 87/101/57 86/100/57 82/103/57
f 84/96/58 85/99/58 92/107/58 93/108/58 83/104/58 82/103/58
usemtl PathFace
f 81/109/59 90/106/59 91/105/59 96/110/59 93/108/59 92/107/59
f 90/106/60 81/109/60 89/98/60 87/101/60
f 85/99/61 89/98/61 81/109/61 92/107/61
f 83/104/62 93/108/62 96/110/62
f 83/104/63 96/110/63 91/105/63
l 94 91
l 94 91
l 94 93
l 95 94
l 94 96
o foil.corner.3.1_corner.1125
v 17.500000 0.250000 -2.500000
v 19.000000 -0.500000 -1.000000
v 19.000000 0.500000 -1.000000
v 19.000000 -0.500000 -3.000000
v 19.000000 0.500000 -3.000000
v 17.000000 -0.500000 -1.000000
v 17.000000 0.500000 -1.000000
v 17.000000 -0.500000 -3.000000
v 17.000000 0.500000 -3.000000
v 17.500000 0.250000 -1.000000
v 18.500000 0.250000 -1.000000
v 19.000000 0.250000 -2.500000
v 19.000000 0.250000 -1.500000
v 18.500000 0.000000 -1.500000
v 18.500000 0.000000 -1.500000
v 18.500000 0.250000 -1.500000
vt 0.375000 0.250000
vt 0.375000 0.500000
vt 0.625000 0.500000
vt 0.625000 0.250000
vt 0.375000 0.750000
vt 0.625000 0.750000
vt 0.125000 0.500000
vt 0.125000 0.750000
vt 0.000000 0.000000
vt 0.500000 0.937500
vt 0.500000 0.812500
vt 0.500000 0.187500
vt 0.500000 0.062500
vt 0.375000 0.250000
vt 0.000000 0.000000
vn 0.0000 0.0000 -1.0000
vn -1.0000 0.0000 0.0000
vn 0.0000 -1.0000 0.0000
vn 0.0000 0.0000 1.0000
vn 1.0000 0.0000 0.0000
vn 0.0000 1.0000 0.0000
vn 0.4472 0.8944 0.0000
vn 0.0000 0.8944 0.4472
vn 0.0000 0.8944 -0.4472
vn -0.4472 0.8944 0.0000
usemtl Material
s off
f 100/111/64 104/112/64 105/113/64 101/114/64
f 104/112/65 102/115/65 103/116/65 105/113/65
f 100/117/66 98/118/66 102/115/66 104/112/66
f 99/119/67 107/120/67 106/121/67 103/116/67 102/115/67 98/118/67
f 100/111/68 101/114/68 108/122/68 109/123/68 99/119/68 98/118/68
usemtl PathFace
f 97/124/69 106/121/69 107/120/69 112/125/69 109/123/69 108/122/69
f 106/121/70 97/124/70 105/113/70 103/116/70
f 101/114/71 105/113/71 97/124/71 108/122/71
f 99/119/72 109/123/72 112/125/72
f 99/119/73 112/125/73 107/120/73
l 110 107
l 110 107
l 110 109
l 111 110
l 110 112
o foil.ending.4.0_ending.456
v 19.500000 0.250000 0.500000
v 20.500000 0.250000 0.500000
v 19.000000 -0.500000 -1.000000
v 19.000000 0.500000 -1.000000
v 19.000000 -0.500000 1.000000
v 19.000000 0.500000 1.000000
v 21.000000 -0.500000 -1.000000
v 21.000000 0.500000 -1.000000
v 21.000000 -0.500000 1.000000
v 21.000000 0.500000 1.000000
v 20.500000 0.250000 -1.000000
v 19.500000 0.250000 -1.000000
v 20.500000 0.500000 1.000000
v 19.500000 0.500000 1.000000
v 21.000000 0.500000 0.500000
v 19.000000 0.500000 0.500000
vt 0.125000 0.500000
vt 0.375000 0.500000
vt 0.625000 0.500000
vt 0.000000 0.000000
vt 0.000000 0.000000
vt 0.625000 0.250000
vt 0.375000 0.000000
vt 0.375000 0.250000
vt 0.625000 0.187500
vt 0.625000 0.000000
vt 0.375000 0.750000
vt 0.625000 0.750000
vt 0.625000 0.562500
vt 0.125000 0.750000
vt 0.000000 0.000000
vt 0.000000 0.000000
vt 0.000000 0.000000
vt 0.000000 0.000000
vt 0.000000 0.000000
vt 0.000000 0.000000
vt 0.000000 0.000000
vt 0.000000 0.000000
vt 0.000000 0.000000
vt 0.000000 0.000000
vt 0.125000 0.500000
vt 0.312500 0.500000
vt 0.312500 0.750000
vt 0.125000 0.750000
vt 0.000000 0.000000
vt 0.000000 0.000000
vn 0.0000 0.0000 1.0000
vn -1.0000 0.0000 0.0000
vn 0.0000 1.0000 0.0000
vn 1.0000 0.0000 0.0000
vn 0.0000 -1.0000 0.0000
vn 0.0000 0.0000 -1.0000
vn -0.4082 0.8165 -0.4082
vn 0.4082 0.8165 -0.4082
vn 0.0000 0.8944 -0.4472
vn -0.4472 0.8944 0.0000
vn 0.4472 0.8944 0.0000
usemtl Material
s off
f 117/126/74 121/127/74 122/128/74 125/129/74 126/130/74 118/131/74
f 115/132/75 117/133/75 118/131/75 128/134/75 116/135/75
f 128/134/76 118/131/76 126/130/76
f 121/127/77 119/136/77 120/137/77 127/138/77 122/128/77
f 127/138/76 125/129/76 122/128/76
f 117/126/78 115/139/78 119/136/78 121/127/78
f 122/140/77 121/141/77 119/142/77 120/143/77
f 118/144/75 116/145/75 115/146/75 117/147/75
f 115/146/79 116/145/79 124/148/79 123/149/79 120/143/79 119/142/79
usemtl PathFace
f 114/150/76 123/151/76 124/152/76 113/153/76
f 125/129/80 127/138/80 114/154/80
f 128/134/81 126/130/81 113/155/81
f 113/155/82 126/130/82 125/129/82 114/154/82
f 123/151/83 114/154/83 127/138/83 120/137/83
f 113/153/84 124/152/84 116/135/84 128/134/84
o foil.corner.4.1_corner.1126
v 20.500000 0.250000 -2.500000
v 19.000000 -0.500000 -1.000000
v 19.000000 0.500000 -1.000000
v 21.000000 -0.500000 -1.000000
v 21.000000 0.500000 -1.000000
v 19.000000 -0.500000 -3.000000
v 19.000000 0.500000 -3.000000
v 21.000000 -0.500000 -3.000000
v 21.000000 0.500000 -3.000000
v 19.000000 0.250000 -2.500000
v 19.000000 0.250000 -1.500000
v 20.500000 0.250000 -1.000000
v 19.500000 0.250000 -1.000000
v 19.500000 0.000000 -1.500000
v 19.500000 0.000000 -1.500000
v 19.500000 0.250000 -1.500000
vt 0.375000 0.250000
vt 0.375000 0.500000
vt 0.625000 0.500000
vt 0.625000 0.250000
vt 0.375000 0.750000
vt 0.625000 0.750000
vt 0.125000 0.500000
vt 0.125000 0.750000
vt 0.000000 0.000000
vt 0.500000 0.937500
vt 0.500000 0.812500
vt 0.500000 0.187500
vt 0.500000 0.062500
vt 0.375000 0.250000
vt 0.000000 0.000000
vn 1.0000 0.0000 0.0000
vn 0.0000 0.0000 -1.0000
vn 0.0000 -1.0000 0.0000
vn -1.0000 0.0000 0.0000
vn 0.0000 0.0000 1.0000
vn 0.0000 1.0000 0.0000
vn 0.0000 0.8944 0.4472
vn -0.4472 0.8944 0.0000
vn 0.4472 0.8944 0.0000
vn 0.0000 0.8944 -0.4472
usemtl Material
s off
f 132/156/85 136/157/85 137/158/85 133/159/85
f 136/157/86 134/160/86 135/161/86 137/158/86
f 132/162/87 130/163/87 134/160/87 136/157/87
f 131/164/88 139/165/88 138/166/88 135/161/88 134/160/88 130/163/88
f 132/156/89 133/159/89 140/167/89 141/168/89 131/164/89 130/163/89
usemtl PathFace
f 129/169/90 138/166/90 139/165/90 144/170/90 141/168/90 140/167/90
f 138/166/91 129/169/91 137/158/91 135/161/91
f 133/159/92 137/158/92 129/169/92 140/167/92
f 131/164/93 141/168/93 144/170/93
f 131/164/94 144/170/94 139/165/94
l 142 139
l 142 139
l 142 141
l 143 142
l 142 144
