# Blender v2.90.1 OBJ File: 'script_generator.blend'
# www.blender.org
mtllib 42f_path.mtl
o foil.ending.0.3_ending.467
v 11.500000 0.250000 -5.500000
v 12.500000 0.250000 -5.500000
v 11.000000 -0.500000 -7.000000
v 11.000000 0.500000 -7.000000
v 11.000000 -0.500000 -5.000000
v 11.000000 0.500000 -5.000000
v 13.000000 -0.500000 -7.000000
v 13.000000 0.500000 -7.000000
v 13.000000 -0.500000 -5.000000
v 13.000000 0.500000 -5.000000
v 12.500000 0.250000 -7.000000
v 11.500000 0.250000 -7.000000
v 12.500000 0.500000 -5.000000
v 11.500000 0.500000 -5.000000
v 13.000000 0.500000 -5.500000
v 11.000000 0.500000 -5.500000
vt 0.125000 0.500000
vt 0.375000 0.500000
vt 0.625000 0.500000
vt 0.000000 0.000000
vt 0.000000 0.000000
vt 0.625000 0.250000
vt 0.375000 0.000000
vt 0.375000 0.250000
vt 0.625000 0.187500
vt 0.625000 0.000000
vt 0.375000 0.750000
vt 0.625000 0.750000
vt 0.625000 0.562500
vt 0.125000 0.750000
vt 0.000000 0.000000
vt 0.000000 0.000000
vt 0.000000 0.000000
vt 0.000000 0.000000
vt 0.000000 0.000000
vt 0.000000 0.000000
vt 0.000000 0.000000
vt 0.000000 0.000000
vt 0.000000 0.000000
vt 0.000000 0.000000
vt 0.125000 0.500000
vt 0.312500 0.500000
vt 0.312500 0.750000
vt 0.125000 0.750000
vt 0.000000 0.000000
vt 0.000000 0.000000
vn 0.0000 0.0000 1.0000
vn -1.0000 0.0000 0.0000
vn 0.0000 1.0000 0.0000
vn 1.0000 0.0000 0.0000
vn 0.0000 -1.0000 0.0000
vn 0.0000 0.0000 -1.0000
vn -0.4082 0.8165 -0.4082
vn 0.4082 0.8165 -0.4082
vn 0.0000 0.8944 -0.4472
vn -0.4472 0.8944 0.0000
vn 0.4472 0.8944 0.0000
usemtl Material
s off
f 5/1/1 9/2/1 10/3/1 13/4/1 14/5/1 6/6/1
f 3/7/2 5/8/2 6/6/2 16/9/2 4/10/2
f 16/9/3 6/6/3 14/5/3
f 9/2/4 7/11/4 8/12/4 15/13/4 10/3/4
f 15/13/3 13/4/3 10/3/3
f 5/1/5 3/14/5 7/11/5 9/2/5
f 10/15/4 9/16/4 7/17/4 8/18/4
f 6/19/2 4/20/2 3/21/2 5/22/2
f 3/21/6 4/20/6 12/23/6 11/24/6 8/18/6 7/17/6
usemtl PathFace
f 2/25/3 11/26/3 12/27/3 1/28/3
f 13/4/7 15/13/7 2/29/7
f 16/9/8 14/5/8 1/30/8
f 1/30/9 14/5/9 13/4/9 2/29/9
f 11/26/10 2/29/10 15/13/10 8/12/10
f 1/28/11 12/27/11 4/10/11 16/9/11
o foil.corner.0.4_corner.1155
v 11.500000 0.250000 -8.500000
v 13.000000 -0.500000 -7.000000
v 13.000000 0.500000 -7.000000
v 13.000000 -0.500000 -9.000000
v 13.000000 0.500000 -9.000000
v 11.000000 -0.500000 -7.000000
v 11.000000 0.500000 -7.000000
v 11.000000 -0.500000 -9.000000
v 11.000000 0.500000 -9.000000
v 11.500000 0.250000 -7.000000
v 12.500000 0.250000 -7.000000
v 13.000000 0.250000 -8.500000
v 13.000000 0.250000 -7.500000
v 12.500000 0.000000 -7.500000
v 12.500000 0.000000 -7.500000
v 12.500000 0.250000 -7.500000
vt 0.375000 0.250000
vt 0.375000 0.500000
vt 0.625000 0.500000
vt 0.625000 0.250000
vt 0.375000 0.750000
vt 0.625000 0.750000
vt 0.125000 0.500000
vt 0.125000 0.750000
vt 0.000000 0.000000
vt 0.500000 0.937500
vt 0.500000 0.812500
vt 0.500000 0.187500
vt 0.500000 0.062500
vt 0.375000 0.250000
vt 0.000000 0.000000
vn 0.0000 0.0000 -1.0000
vn -1.0000 0.0000 0.0000
vn 0.0000 -1.0000 0.0000
vn 0.0000 0.0000 1.0000
vn 1.0000 0.0000 0.0000
vn 0.0000 1.0000 0.0000
vn 0.4472 0.8944 0.0000
vn 0.0000 0.8944 0.4472
vn 0.0000 0.8944 -0.4472
vn -0.4472 0.8944 0.0000
usemtl Material
s off
f 20/31/12 24/32/12 25/33/12 21/34/12
f 24/32/13 22/35/13 23/36/13 25/33/13
f 20/37/14 18/38/14 22/35/14 24/32/14
f 19/39/15 27/40/15 26/41/15 23/36/15 22/35/15 18/38/15
f 20/31/16 21/34/16 28/42/16 29/43/16 19/39/16 18/38/16
usemtl PathFace
f 17/44/17 26/41/17 27/40/17 32/45/17 29/43/17 28/42/17
f 26/41/18 17/44/18 25/33/18 23/36/18
f 21/34/19 25/33/19 17/44/19 28/42/19
f 19/39/20 29/43/20 32/45/20
f 19/39/21 32/45/21 27/40/21
l 30 27
l 30 27
l 30 29
l 31 30
l 30 32
o foil.through.1.4_through.245
v 13.000004 -0.500000 -9.000004
v 13.000004 0.500000 -9.000004
v 15.000004 -0.500000 -8.999996
v 15.000004 0.500000 -8.999996
v 12.999996 -0.500000 -7.000004
v 12.999996 0.500000 -7.000004
v 14.999996 -0.500000 -6.999996
v 14.999996 0.500000 -6.999996
v 14.999998 0.250000 -7.499996
v 12.999998 0.250000 -7.500004
v 15.000002 0.250000 -8.499996
v 13.000002 0.250000 -8.500004
vt 0.375000 0.000000
vt 0.625000 0.000000
vt 0.625000 0.250000
vt 0.375000 0.250000
vt 0.375000 0.500000
vt 0.625000 0.500000
vt 0.625000 0.750000
vt 0.375000 0.750000
vt 0.152781 0.750000
vt 0.152781 0.500000
vt 0.125000 0.500000
vt 0.125000 0.750000
vt 0.282406 0.500000
vt 0.282406 0.750000
vn 0.0000 0.0000 -1.0000
vn -0.0000 0.0000 1.0000
vn 1.0000 0.0000 0.0000
vn 0.0000 -1.0000 0.0000
vn -1.0000 0.0000 -0.0000
vn -0.0000 0.8944 0.4472
vn 0.0000 0.8944 -0.4472
vn 0.0000 1.0000 0.0000
usemtl Material
s off
f 33/46/22 34/47/22 36/48/22 35/49/22
f 39/50/23 40/51/23 38/52/23 37/53/23
f 36/48/24 43/54/24 41/55/24 40/51/24 39/50/24 35/56/24
f 35/56/25 39/50/25 37/53/25 33/57/25
f 34/47/26 33/57/26 37/53/26 38/52/26 42/58/26 44/59/26
usemtl PathFace
f 34/47/27 44/59/27 43/54/27 36/48/27
f 40/51/28 41/55/28 42/58/28 38/52/28
f 43/54/29 44/59/29 42/58/29 41/55/29
o foil.corner.2.2_corner.1156
v 15.500000 0.250000 -3.500000
v 17.000000 -0.500000 -5.000000
v 17.000000 0.500000 -5.000000
v 15.000000 -0.500000 -5.000000
v 15.000000 0.500000 -5.000000
v 17.000000 -0.500000 -3.000000
v 17.000000 0.500000 -3.000000
v 15.000000 -0.500000 -3.000000
v 15.000000 0.500000 -3.000000
v 17.000000 0.250000 -3.500000
v 17.000000 0.250000 -4.500000
v 15.500000 0.250000 -5.000000
v 16.500000 0.250000 -5.000000
v 16.500000 0.000000 -4.500000
v 16.500000 0.000000 -4.500000
v 16.500000 0.250000 -4.500000
vt 0.375000 0.250000
vt 0.375000 0.500000
vt 0.625000 0.500000
vt 0.625000 0.250000
vt 0.375000 0.750000
vt 0.625000 0.750000
vt 0.125000 0.500000
vt 0.125000 0.750000
vt 0.000000 0.000000
vt 0.500000 0.937500
vt 0.500000 0.812500
vt 0.500000 0.187500
vt 0.500000 0.062500
vt 0.375000 0.250000
vt 0.000000 0.000000
vn -1.0000 0.0000 0.0000
vn 0.0000 0.0000 1.0000
vn 0.0000 -1.0000 0.0000
vn 1.0000 0.0000 0.0000
vn 0.0000 0.0000 -1.0000
vn 0.0000 1.0000 0.0000
vn 0.0000 0.8944 -0.4472
vn 0.4472 0.8944 0.0000
vn -0.4472 0.8944 0.0000
vn 0.0000 0.8944 0.4472
usemtl Material
s off
f 48/60/30 52/61/30 53/62/30 49/63/30
f 52/61/31 50/64/31 51/65/31 53/62/31
f 48/66/32 46/67/32 50/64/32 52/61/32
f 47/68/33 55/69/33 54/70/33 51/65/33 50/64/33 46/67/33
f 48/60/34 49/63/34 56/71/34 57/72/34 47/68/34 46/67/34
usemtl PathFace
f 45/73/35 54/70/35 55/69/35 60/74/35 57/72/35 56/71/35
f 54/70/36 45/73/36 53/62/36 51/65/36
f 49/63/37 53/62/37 45/73/37 56/71/37
f 47/68/38 57/72/38 60/74/38
f 47/68/39 60/74/39 55/69/39
l 58 55
l 58 55
l 58 57
l 59 58
l 58 60
o foil.through.2.3_through.246
v 15.000000 -0.500000 -5.000000
v 15.000000 0.500000 -5.000000
v 15.000000 -0.500000 -7.000000
v 15.000000 0.500000 -7.000000
v 17.000000 -0.500000 -5.000000
v 17.000000 0.500000 -5.000000
v 17.000000 -0.500000 -7.000000
v 17.000000 0.500000 -7.000000
v 16.500000 0.250000 -7.000000
v 16.500000 0.250000 -5.000000
v 15.500000 0.250000 -7.000000
v 15.500000 0.250000 -5.000000
vt 0.375000 0.000000
vt 0.625000 0.000000
vt 0.625000 0.250000
vt 0.375000 0.250000
vt 0.375000 0.500000
vt 0.625000 0.500000
vt 0.625000 0.750000
vt 0.375000 0.750000
vt 0.152781 0.750000
vt 0.152781 0.500000
vt 0.125000 0.500000
vt 0.125000 0.750000
vt 0.282406 0.500000
vt 0.282406 0.750000
vn -1.0000 0.0000 0.0000
vn 1.0000 0.0000 0.0000
vn 0.0000 0.0000 -1.0000
vn 0.0000 -1.0000 0.0000
vn 0.0000 0.0000 1.0000
vn 0.4472 0.8944 0.0000
vn -0.4472 0.8944 0.0000
vn 0.0000 1.0000 0.0000
usemtl Material
s off
f 61/75/40 62/76/40 64/77/40 63/78/40
f 67/79/41 68/80/41 66/81/41 65/82/41
f 64/77/42 71/83/42 69/84/42 68/80/42 67/79/42 63/85/42
f 63/85/43 67/79/43 65/82/43 61/86/43
f 62/76/44 61/86/44 65/82/44 66/81/44 70/87/44 72/88/44
usemtl PathFace
f 62/76/45 72/88/45 71/83/45 64/77/45
f 68/80/46 69/84/46 70/87/46 66/81/46
f 71/83/47 72/88/47 70/87/47 69/84/47
o foil.corner.2.4_corner.1157
v 16.500000 0.250000 -8.500000
v 15.000000 -0.500000 -7.000000
v 15.000000 0.500000 -7.000000
v 17.000000 -0.500000 -7.000000
v 17.000000 0.500000 -7.000000
v 15.000000 -0.500000 -9.000000
v 15.000000 0.500000 -9.000000
v 17.000000 -0.500000 -9.000000
v 17.000000 0.500000 -9.000000
v 15.000000 0.250000 -8.500000
v 15.000000 0.250000 -7.500000
v 16.500000 0.250000 -7.000000
v 15.500000 0.250000 -7.000000
v 15.500000 0.000000 -7.500000
v 15.500000 0.000000 -7.500000
v 15.500000 0.250000 -7.500000
vt 0.375000 0.250000
vt 0.375000 0.500000
vt 0.625000 0.500000
vt 0.625000 0.250000
vt 0.375000 0.750000
vt 0.625000 0.750000
vt 0.125000 0.500000
vt 0.125000 0.750000
vt 0.000000 0.000000
vt 0.500000 0.937500
vt 0.500000 0.812500
vt 0.500000 0.187500
vt 0.500000 0.062500
vt 0.375000 0.250000
vt 0.000000 0.000000
vn 1.0000 0.0000 0.0000
vn 0.0000 0.0000 -1.0000
vn 0.0000 -1.0000 0.0000
vn -1.0000 0.0000 0.0000
vn 0.0000 0.0000 1.0000
vn 0.0000 1.0000 0.0000
vn 0.0000 0.8944 0.4472
vn -0.4472 0.8944 0.0000
vn 0.4472 0.8944 0.0000
vn 0.0000 0.8944 -0.4472
usemtl Material
s off
f 76/89/48 80/90/48 81/91/48 77/92/48
f 80/90/49 78/93/49 79/94/49 81/91/49
f 76/95/50 74/96/50 78/93/50 80/90/50
f 75/97/51 83/98/51 82/99/51 79/94/51 78/93/51 74/96/51
f 76/89/52 77/92/52 84/100/52 85/101/52 75/97/52 74/96/52
usemtl PathFace
f 73/102/53 82/99/53 83/98/53 88/103/53 85/101/53 84/100/53
f 82/99/54 73/102/54 81/91/54 79/94/54
f 77/92/55 81/91/55 73/102/55 84/100/55
f 75/97/56 85/101/56 88/103/56
f 75/97/57 88/103/57 83/98/57
l 86 83
l 86 83
l 86 85
l 87 86
l 86 88
o foil.corner.3.2_corner.1158
v 18.500000 0.250000 -3.500000
v 17.000000 -0.500000 -5.000000
v 17.000000 0.500000 -5.000000
v 17.000000 -0.500000 -3.000000
v 17.000000 0.500000 -3.000000
v 19.000000 -0.500000 -5.000000
v 19.000000 0.500000 -5.000000
v 19.000000 -0.500000 -3.000000
v 19.000000 0.500000 -3.000000
v 18.500000 0.250000 -5.000000
v 17.500000 0.250000 -5.000000
v 17.000000 0.250000 -3.500000
v 17.000000 0.250000 -4.500000
v 17.500000 0.000000 -4.500000
v 17.500000 0.000000 -4.500000
v 17.500000 0.250000 -4.500000
vt 0.375000 0.250000
vt 0.375000 0.500000
vt 0.625000 0.500000
vt 0.625000 0.250000
vt 0.375000 0.750000
vt 0.625000 0.750000
vt 0.125000 0.500000
vt 0.125000 0.750000
vt 0.000000 0.000000
vt 0.500000 0.937500
vt 0.500000 0.812500
vt 0.500000 0.187500
vt 0.500000 0.062500
vt 0.375000 0.250000
vt 0.000000 0.000000
vn 0.0000 0.0000 1.0000
vn 1.0000 0.0000 0.0000
vn 0.0000 -1.0000 0.0000
vn 0.0000 0.0000 -1.0000
vn -1.0000 0.0000 0.0000
vn 0.0000 1.0000 0.0000
vn -0.4472 0.8944 0.0000
vn 0.0000 0.8944 -0.4472
vn 0.0000 0.8944 0.4472
vn 0.4472 0.8944 0.0000
usemtl Material
s off
f 92/104/58 96/105/58 97/106/58 93/107/58
f 96/105/59 94/108/59 95/109/59 97/106/59
f 92/110/60 90/111/60 94/108/60 96/105/60
f 91/112/61 99/113/61 98/114/61 95/109/61 94/108/61 90/111/61
f 92/104/62 93/107/62 100/115/62 101/116/62 91/112/62 90/111/62
usemtl PathFace
f 89/117/63 98/114/63 99/113/63 104/118/63 101/116/63 100/115/63
f 98/114/64 89/117/64 97/106/64 95/109/64
f 93/107/65 97/106/65 89/117/65 100/115/65
f 91/112/66 101/116/66 104/118/66
f 91/112/67 104/118/67 99/113/67
l 102 99
l 102 99
l 102 101
l 103 102
l 102 104
o foil.ending.3.3_ending.468
v 18.500000 0.250000 -6.500000
v 17.500000 0.250000 -6.500000
v 19.000000 -0.500000 -5.000000
v 19.000000 0.500000 -5.000000
v 19.000000 -0.500000 -7.000000
v 19.000000 0.500000 -7.000000
v 17.000000 -0.500000 -5.000000
v 17.000000 0.500000 -5.000000
v 17.000000 -0.500000 -7.000000
v 17.000000 0.500000 -7.000000
v 17.500000 0.250000 -5.000000
v 18.500000 0.250000 -5.000000
v 17.500000 0.500000 -7.000000
v 18.500000 0.500000 -7.000000
v 17.000000 0.500000 -6.500000
v 19.000000 0.500000 -6.500000
vt 0.125000 0.500000
vt 0.375000 0.500000
vt 0.625000 0.500000
vt 0.000000 0.000000
vt 0.000000 0.000000
vt 0.625000 0.250000
vt 0.375000 0.000000
vt 0.375000 0.250000
vt 0.625000 0.187500
vt 0.625000 0.000000
vt 0.375000 0.750000
vt 0.625000 0.750000
vt 0.625000 0.562500
vt 0.125000 0.750000
vt 0.000000 0.000000
vt 0.000000 0.000000
vt 0.000000 0.000000
vt 0.000000 0.000000
vt 0.000000 0.000000
vt 0.000000 0.000000
vt 0.000000 0.000000
vt 0.000000 0.000000
vt 0.000000 0.000000
vt 0.000000 0.000000
vt 0.125000 0.500000
vt 0.312500 0.500000
vt 0.312500 0.750000
vt 0.125000 0.750000
vt 0.000000 0.000000
vt 0.000000 0.000000
vn 0.0000 0.0000 -1.0000
vn 1.0000 0.0000 0.0000
vn 0.0000 1.0000 0.0000
vn -1.0000 0.0000 0.0000
vn 0.0000 -1.0000 0.0000
vn 0.0000 0.0000 1.0000
vn 0.4082 0.8165 0.4082
vn -0.4082 0.8165 0.4082
vn 0.0000 0.8944 0.4472
vn 0.4472 0.8944 0.0000
vn -0.4472 0.8944 0.0000
usemtl Material
s off
f 109/119/68 113/120/68 114/121/68 117/122/68 118/123/68 110/124/68
f 107/125/69 109/126/69 110/124/69 120/127/69 108/128/69
f 120/127/70 110/124/70 118/123/70
f 113/120/71 111/129/71 112/130/71 119/131/71 114/121/71
f 119/131/70 117/122/70 114/121/70
f 109/119/72 107/132/72 111/129/72 113/120/72
f 114/133/71 113/134/71 111/135/71 112/136/71
f 110/137/69 108/138/69 107/139/69 109/140/69
f 107/139/73 108/138/73 116/141/73 115/142/73 112/136/73 111/135/73
usemtl PathFace
f 106/143/70 115/144/70 116/145/70 105/146/70
f 117/122/74 119/131/74 106/147/74
f 120/127/75 118/123/75 105/148/75
f 105/148/76 118/123/76 117/122/76 106/147/76
f 115/144/77 106/147/77 119/131/77 112/130/77
f 105/146/78 116/145/78 108/128/78 120/127/78
o foil.hole.4.2_Cube.235
v 19.500000 0.250000 -4.500000
v 19.000000 -0.500000 -5.000000
v 19.000000 0.500000 -5.000000
v 19.500000 0.500000 -5.000000
v 19.000000 0.500000 -4.500000
v 20.500000 0.250000 -4.500000
v 21.000000 -0.500000 -5.000000
v 21.000000 0.500000 -5.000000
v 20.500000 0.500000 -5.000000
v 21.000000 0.500000 -4.500000
v 19.500000 0.250000 -3.500000
v 19.000000 -0.500000 -3.000000
v 19.000000 0.500000 -3.000000
v 19.500000 0.500000 -3.000000
v 19.000000 0.500000 -3.500000
v 20.500000 0.250000 -3.500000
v 21.000000 -0.500000 -3.000000
v 21.000000 0.500000 -3.000000
v 20.500000 0.500000 -3.000000
v 21.000000 0.500000 -3.500000
vt 0.625000 0.187500
vt 0.000000 0.000000
vt 0.625000 0.250000
vt 0.375000 0.812500
vt 0.375000 0.750000
vt 1.000000 1.000000
vt 0.375000 0.812500
vt 0.375000 0.750000
vt 1.000000 1.000000
vt 0.625000 0.187500
vt 0.000000 0.000000
vt 0.625000 0.250000
vt 0.875000 0.500000
vt 0.000000 0.000000
vt 0.125000 0.500000
vt 0.000000 0.000000
vt 0.000000 0.000000
vt 1.000000 1.000000
vt 1.000000 1.000000
vt 0.000000 0.000000
vt 0.000000 0.000000
vn 0.0000 1.0000 0.0000
vn 0.0000 0.0000 -1.0000
vn 1.0000 0.0000 0.0000
vn -1.0000 0.0000 0.0000
vn 0.0000 0.0000 1.0000
vn 0.0000 -1.0000 0.0000
vn 0.4082 0.8165 0.4082
vn -0.4082 0.8165 0.4082
vn 0.4472 0.8944 0.0000
vn 0.4082 0.8165 -0.4082
vn -0.4472 0.8944 0.0000
vn -0.4082 0.8165 -0.4082
vn 0.0000 0.8944 0.4472
vn 0.0000 0.8944 -0.4472
usemtl Material
s off
f 125/149/79 124/150/79 123/151/79
f 130/152/79 128/153/79 129/154/79
f 135/155/79 133/156/79 134/157/79
f 140/158/79 139/159/79 138/160/79
f 123/151/80 124/150/80 129/154/80 128/153/80 127/161/80 122/162/80
f 128/153/81 130/152/81 140/158/81 138/160/81 137/163/81 127/161/81
f 122/162/82 132/164/82 133/156/82 135/155/82 125/149/82 123/151/82
f 133/156/83 132/164/83 137/163/83 138/160/83 139/159/83 134/157/83
f 132/164/84 122/162/84 127/161/84 137/163/84
usemtl PathFace
f 125/149/85 121/165/85 124/150/85
f 130/152/86 129/154/86 126/166/86
f 125/149/87 135/155/87 131/167/87 121/165/87
f 135/155/88 134/157/88 131/167/88
f 126/166/79 121/165/79 131/168/79 136/169/79
f 130/152/89 126/166/89 136/169/89 140/158/89
f 140/158/90 136/169/90 139/159/90
f 124/150/91 121/165/91 126/166/91 129/154/91
f 134/157/92 139/159/92 136/169/92 131/168/92
