# Blender v2.90.1 OBJ File: 'script_generator.blend'
# www.blender.org
mtllib 43f_path.mtl
o foil.ending.1.3_ending.471
v 13.500000 0.250000 -6.500000
v 13.500000 0.250000 -5.500000
v 15.000000 -0.500000 -7.000000
v 15.000000 0.500000 -7.000000
v 13.000000 -0.500000 -7.000000
v 13.000000 0.500000 -7.000000
v 15.000000 -0.500000 -5.000000
v 15.000000 0.500000 -5.000000
v 13.000000 -0.500000 -5.000000
v 13.000000 0.500000 -5.000000
v 15.000000 0.250000 -5.500000
v 15.000000 0.250000 -6.500000
v 13.000000 0.500000 -5.500000
v 13.000000 0.500000 -6.500000
v 13.500000 0.500000 -5.000000
v 13.500000 0.500000 -7.000000
vt 0.125000 0.500000
vt 0.375000 0.500000
vt 0.625000 0.500000
vt 0.000000 0.000000
vt 0.000000 0.000000
vt 0.625000 0.250000
vt 0.375000 0.000000
vt 0.375000 0.250000
vt 0.625000 0.187500
vt 0.625000 0.000000
vt 0.375000 0.750000
vt 0.625000 0.750000
vt 0.625000 0.562500
vt 0.125000 0.750000
vt 0.000000 0.000000
vt 0.000000 0.000000
vt 0.000000 0.000000
vt 0.000000 0.000000
vt 0.000000 0.000000
vt 0.000000 0.000000
vt 0.000000 0.000000
vt 0.000000 0.000000
vt 0.000000 0.000000
vt 0.000000 0.000000
vt 0.125000 0.500000
vt 0.312500 0.500000
vt 0.312500 0.750000
vt 0.125000 0.750000
vt 0.000000 0.000000
vt 0.000000 0.000000
vn -1.0000 0.0000 0.0000
vn 0.0000 0.0000 -1.0000
vn 0.0000 1.0000 0.0000
vn 0.0000 0.0000 1.0000
vn 0.0000 -1.0000 0.0000
vn 1.0000 0.0000 0.0000
vn 0.4082 0.8165 -0.4082
vn 0.4082 0.8165 0.4082
vn 0.4472 0.8944 0.0000
vn 0.0000 0.8944 -0.4472
vn 0.0000 0.8944 0.4472
usemtl Material
s off
f 5/1/1 9/2/1 10/3/1 13/4/1 14/5/1 6/6/1
f 3/7/2 5/8/2 6/6/2 16/9/2 4/10/2
f 16/9/3 6/6/3 14/5/3
f 9/2/4 7/11/4 8/12/4 15/13/4 10/3/4
f 15/13/3 13/4/3 10/3/3
f 5/1/5 3/14/5 7/11/5 9/2/5
f 10/15/4 9/16/4 7/17/4 8/18/4
f 6/19/2 4/20/2 3/21/2 5/22/2
f 3/21/6 4/20/6 12/23/6 11/24/6 8/18/6 7/17/6
usemtl PathFace
f 2/25/3 11/26/3 12/27/3 1/28/3
f 13/4/7 15/13/7 2/29/7
f 16/9/8 14/5/8 1/30/8
f 1/30/9 14/5/9 13/4/9 2/29/9
f 11/26/10 2/29/10 15/13/10 8/12/10
f 1/28/11 12/27/11 4/10/11 16/9/11
o foil.corner.2.2_corner.1165
v 15.500000 0.250000 -3.500000
v 17.000000 -0.500000 -5.000000
v 17.000000 0.500000 -5.000000
v 15.000000 -0.500000 -5.000000
v 15.000000 0.500000 -5.000000
v 17.000000 -0.500000 -3.000000
v 17.000000 0.500000 -3.000000
v 15.000000 -0.500000 -3.000000
v 15.000000 0.500000 -3.000000
v 17.000000 0.250000 -3.500000
v 17.000000 0.250000 -4.500000
v 15.500000 0.250000 -5.000000
v 16.500000 0.250000 -5.000000
v 16.500000 0.000000 -4.500000
v 16.500000 0.000000 -4.500000
v 16.500000 0.250000 -4.500000
vt 0.375000 0.250000
vt 0.375000 0.500000
vt 0.625000 0.500000
vt 0.625000 0.250000
vt 0.375000 0.750000
vt 0.625000 0.750000
vt 0.125000 0.500000
vt 0.125000 0.750000
vt 0.000000 0.000000
vt 0.500000 0.937500
vt 0.500000 0.812500
vt 0.500000 0.187500
vt 0.500000 0.062500
vt 0.375000 0.250000
vt 0.000000 0.000000
vn -1.0000 0.0000 0.0000
vn 0.0000 0.0000 1.0000
vn 0.0000 -1.0000 0.0000
vn 1.0000 0.0000 0.0000
vn 0.0000 0.0000 -1.0000
vn 0.0000 1.0000 0.0000
vn 0.0000 0.8944 -0.4472
vn 0.4472 0.8944 0.0000
vn -0.4472 0.8944 0.0000
vn 0.0000 0.8944 0.4472
usemtl Material
s off
f 20/31/12 24/32/12 25/33/12 21/34/12
f 24/32/13 22/35/13 23/36/13 25/33/13
f 20/37/14 18/38/14 22/35/14 24/32/14
f 19/39/15 27/40/15 26/41/15 23/36/15 22/35/15 18/38/15
f 20/31/16 21/34/16 28/42/16 29/43/16 19/39/16 18/38/16
usemtl PathFace
f 17/44/17 26/41/17 27/40/17 32/45/17 29/43/17 28/42/17
f 26/41/18 17/44/18 25/33/18 23/36/18
f 21/34/19 25/33/19 17/44/19 28/42/19
f 19/39/20 29/43/20 32/45/20
f 19/39/21 32/45/21 27/40/21
l 30 27
l 30 27
l 30 29
l 31 30
l 30 32
o foil.corner.2.3_corner.1166
v 16.500000 0.250000 -6.500000
v 15.000000 -0.500000 -5.000000
v 15.000000 0.500000 -5.000000
v 17.000000 -0.500000 -5.000000
v 17.000000 0.500000 -5.000000
v 15.000000 -0.500000 -7.000000
v 15.000000 0.500000 -7.000000
v 17.000000 -0.500000 -7.000000
v 17.000000 0.500000 -7.000000
v 15.000000 0.250000 -6.500000
v 15.000000 0.250000 -5.500000
v 16.500000 0.250000 -5.000000
v 15.500000 0.250000 -5.000000
v 15.500000 0.000000 -5.500000
v 15.500000 0.000000 -5.500000
v 15.500000 0.250000 -5.500000
vt 0.375000 0.250000
vt 0.375000 0.500000
vt 0.625000 0.500000
vt 0.625000 0.250000
vt 0.375000 0.750000
vt 0.625000 0.750000
vt 0.125000 0.500000
vt 0.125000 0.750000
vt 0.000000 0.000000
vt 0.500000 0.937500
vt 0.500000 0.812500
vt 0.500000 0.187500
vt 0.500000 0.062500
vt 0.375000 0.250000
vt 0.000000 0.000000
vn 1.0000 0.0000 0.0000
vn 0.0000 0.0000 -1.0000
vn 0.0000 -1.0000 0.0000
vn -1.0000 0.0000 0.0000
vn 0.0000 0.0000 1.0000
vn 0.0000 1.0000 0.0000
vn 0.0000 0.8944 0.4472
vn -0.4472 0.8944 0.0000
vn 0.4472 0.8944 0.0000
vn 0.0000 0.8944 -0.4472
usemtl Material
s off
f 36/46/22 40/47/22 41/48/22 37/49/22
f 40/47/23 38/50/23 39/51/23 41/48/23
f 36/52/24 34/53/24 38/50/24 40/47/24
f 35/54/25 43/55/25 42/56/25 39/51/25 38/50/25 34/53/25
f 36/46/26 37/49/26 44/57/26 45/58/26 35/54/26 34/53/26
usemtl PathFace
f 33/59/27 42/56/27 43/55/27 48/60/27 45/58/27 44/57/27
f 42/56/28 33/59/28 41/48/28 39/51/28
f 37/49/29 41/48/29 33/59/29 44/57/29
f 35/54/30 45/58/30 48/60/30
f 35/54/31 48/60/31 43/55/31
l 46 43
l 46 43
l 46 45
l 47 46
l 46 48
o foil.hole.2.4_Cube.237
v 15.500000 0.250000 -8.500000
v 15.000000 -0.500000 -9.000000
v 15.000000 0.500000 -9.000000
v 15.500000 0.500000 -9.000000
v 15.000000 0.500000 -8.500000
v 16.500000 0.250000 -8.500000
v 17.000000 -0.500000 -9.000000
v 17.000000 0.500000 -9.000000
v 16.500000 0.500000 -9.000000
v 17.000000 0.500000 -8.500000
v 15.500000 0.250000 -7.500000
v 15.000000 -0.500000 -7.000000
v 15.000000 0.500000 -7.000000
v 15.500000 0.500000 -7.000000
v 15.000000 0.500000 -7.500000
v 16.500000 0.250000 -7.500000
v 17.000000 -0.500000 -7.000000
v 17.000000 0.500000 -7.000000
v 16.500000 0.500000 -7.000000
v 17.000000 0.500000 -7.500000
vt 0.625000 0.187500
vt 0.000000 0.000000
vt 0.625000 0.250000
vt 0.375000 0.812500
vt 0.375000 0.750000
vt 1.000000 1.000000
vt 0.375000 0.812500
vt 0.375000 0.750000
vt 1.000000 1.000000
vt 0.625000 0.187500
vt 0.000000 0.000000
vt 0.625000 0.250000
vt 0.875000 0.500000
vt 0.000000 0.000000
vt 0.125000 0.500000
vt 0.000000 0.000000
vt 0.000000 0.000000
vt 1.000000 1.000000
vt 1.000000 1.000000
vt 0.000000 0.000000
vt 0.000000 0.000000
vn 0.0000 1.0000 0.0000
vn 0.0000 0.0000 -1.0000
vn 1.0000 0.0000 0.0000
vn -1.0000 0.0000 0.0000
vn 0.0000 0.0000 1.0000
vn 0.0000 -1.0000 0.0000
vn 0.4082 0.8165 0.4082
vn -0.4082 0.8165 0.4082
vn 0.4472 0.8944 0.0000
vn 0.4082 0.8165 -0.4082
vn -0.4472 0.8944 0.0000
vn -0.4082 0.8165 -0.4082
vn 0.0000 0.8944 0.4472
vn 0.0000 0.8944 -0.4472
usemtl Material
s off
f 53/61/32 52/62/32 51/63/32
f 58/64/32 56/65/32 57/66/32
f 63/67/32 61/68/32 62/69/32
f 68/70/32 67/71/32 66/72/32
f 51/63/33 52/62/33 57/66/33 56/65/33 55/73/33 50/74/33
f 56/65/34 58/64/34 68/70/34 66/72/34 65/75/34 55/73/34
f 50/74/35 60/76/35 61/68/35 63/67/35 53/61/35 51/63/35
f 61/68/36 60/76/36 65/75/36 66/72/36 67/71/36 62/69/36
f 60/76/37 50/74/37 55/73/37 65/75/37
usemtl PathFace
f 53/61/38 49/77/38 52/62/38
f 58/64/39 57/66/39 54/78/39
f 53/61/40 63/67/40 59/79/40 49/77/40
f 63/67/41 62/69/41 59/79/41
f 54/78/32 49/77/32 59/80/32 64/81/32
f 58/64/42 54/78/42 64/81/42 68/70/42
f 68/70/43 64/81/43 67/71/43
f 52/62/44 49/77/44 54/78/44 57/66/44
f 62/69/45 67/71/45 64/81/45 59/80/45
o foil.through.3.2_through.247
v 17.000004 -0.500000 -5.000004
v 17.000004 0.500000 -5.000004
v 19.000004 -0.500000 -4.999996
v 19.000004 0.500000 -4.999996
v 16.999996 -0.500000 -3.000004
v 16.999996 0.500000 -3.000004
v 18.999996 -0.500000 -2.999996
v 18.999996 0.500000 -2.999996
v 18.999998 0.250000 -3.499996
v 16.999998 0.250000 -3.500004
v 19.000002 0.250000 -4.499996
v 17.000002 0.250000 -4.500004
vt 0.375000 0.000000
vt 0.625000 0.000000
vt 0.625000 0.250000
vt 0.375000 0.250000
vt 0.375000 0.500000
vt 0.625000 0.500000
vt 0.625000 0.750000
vt 0.375000 0.750000
vt 0.152781 0.750000
vt 0.152781 0.500000
vt 0.125000 0.500000
vt 0.125000 0.750000
vt 0.282406 0.500000
vt 0.282406 0.750000
vn 0.0000 0.0000 -1.0000
vn -0.0000 0.0000 1.0000
vn 1.0000 0.0000 0.0000
vn 0.0000 -1.0000 0.0000
vn -1.0000 0.0000 -0.0000
vn -0.0000 0.8944 0.4472
vn 0.0000 0.8944 -0.4472
vn 0.0000 1.0000 0.0000
usemtl Material
s off
f 69/82/46 70/83/46 72/84/46 71/85/46
f 75/86/47 76/87/47 74/88/47 73/89/47
f 72/84/48 79/90/48 77/91/48 76/87/48 75/86/48 71/92/48
f 71/92/49 75/86/49 73/89/49 69/93/49
f 70/83/50 69/93/50 73/89/50 74/88/50 78/94/50 80/95/50
usemtl PathFace
f 70/83/51 80/95/51 79/90/51 72/84/51
f 76/87/52 77/91/52 78/94/52 74/88/52
f 79/90/53 80/95/53 78/94/53 77/91/53
o foil.ending.3.4_ending.472
v 17.500000 0.250000 -8.500000
v 17.500000 0.250000 -7.500000
v 19.000000 -0.500000 -9.000000
v 19.000000 0.500000 -9.000000
v 17.000000 -0.500000 -9.000000
v 17.000000 0.500000 -9.000000
v 19.000000 -0.500000 -7.000000
v 19.000000 0.500000 -7.000000
v 17.000000 -0.500000 -7.000000
v 17.000000 0.500000 -7.000000
v 19.000000 0.250000 -7.500000
v 19.000000 0.250000 -8.500000
v 17.000000 0.500000 -7.500000
v 17.000000 0.500000 -8.500000
v 17.500000 0.500000 -7.000000
v 17.500000 0.500000 -9.000000
vt 0.125000 0.500000
vt 0.375000 0.500000
vt 0.625000 0.500000
vt 0.000000 0.000000
vt 0.000000 0.000000
vt 0.625000 0.250000
vt 0.375000 0.000000
vt 0.375000 0.250000
vt 0.625000 0.187500
vt 0.625000 0.000000
vt 0.375000 0.750000
vt 0.625000 0.750000
vt 0.625000 0.562500
vt 0.125000 0.750000
vt 0.000000 0.000000
vt 0.000000 0.000000
vt 0.000000 0.000000
vt 0.000000 0.000000
vt 0.000000 0.000000
vt 0.000000 0.000000
vt 0.000000 0.000000
vt 0.000000 0.000000
vt 0.000000 0.000000
vt 0.000000 0.000000
vt 0.125000 0.500000
vt 0.312500 0.500000
vt 0.312500 0.750000
vt 0.125000 0.750000
vt 0.000000 0.000000
vt 0.000000 0.000000
vn -1.0000 0.0000 0.0000
vn 0.0000 0.0000 -1.0000
vn 0.0000 1.0000 0.0000
vn 0.0000 0.0000 1.0000
vn 0.0000 -1.0000 0.0000
vn 1.0000 0.0000 0.0000
vn 0.4082 0.8165 -0.4082
vn 0.4082 0.8165 0.4082
vn 0.4472 0.8944 0.0000
vn 0.0000 0.8944 -0.4472
vn 0.0000 0.8944 0.4472
usemtl Material
s off
f 85/96/54 89/97/54 90/98/54 93/99/54 94/100/54 86/101/54
f 83/102/55 85/103/55 86/101/55 96/104/55 84/105/55
f 96/104/56 86/101/56 94/100/56
f 89/97/57 87/106/57 88/107/57 95/108/57 90/98/57
f 95/108/56 93/99/56 90/98/56
f 85/96/58 83/109/58 87/106/58 89/97/58
f 90/110/57 89/111/57 87/112/57 88/113/57
f 86/114/55 84/115/55 83/116/55 85/117/55
f 83/116/59 84/115/59 92/118/59 91/119/59 88/113/59 87/112/59
usemtl PathFace
f 82/120/56 91/121/56 92/122/56 81/123/56
f 93/99/60 95/108/60 82/124/60
f 96/104/61 94/100/61 81/125/61
f 81/125/62 94/100/62 93/99/62 82/124/62
f 91/121/63 82/124/63 95/108/63 88/107/63
f 81/123/64 92/122/64 84/105/64 96/104/64
o foil.corner.4.2_corner.1167
v 20.500000 0.250000 -3.500000
v 19.000000 -0.500000 -5.000000
v 19.000000 0.500000 -5.000000
v 19.000000 -0.500000 -3.000000
v 19.000000 0.500000 -3.000000
v 21.000000 -0.500000 -5.000000
v 21.000000 0.500000 -5.000000
v 21.000000 -0.500000 -3.000000
v 21.000000 0.500000 -3.000000
v 20.500000 0.250000 -5.000000
v 19.500000 0.250000 -5.000000
v 19.000000 0.250000 -3.500000
v 19.000000 0.250000 -4.500000
v 19.500000 0.000000 -4.500000
v 19.500000 0.000000 -4.500000
v 19.500000 0.250000 -4.500000
vt 0.375000 0.250000
vt 0.375000 0.500000
vt 0.625000 0.500000
vt 0.625000 0.250000
vt 0.375000 0.750000
vt 0.625000 0.750000
vt 0.125000 0.500000
vt 0.125000 0.750000
vt 0.000000 0.000000
vt 0.500000 0.937500
vt 0.500000 0.812500
vt 0.500000 0.187500
vt 0.500000 0.062500
vt 0.375000 0.250000
vt 0.000000 0.000000
vn 0.0000 0.0000 1.0000
vn 1.0000 0.0000 0.0000
vn 0.0000 -1.0000 0.0000
vn 0.0000 0.0000 -1.0000
vn -1.0000 0.0000 0.0000
vn 0.0000 1.0000 0.0000
vn -0.4472 0.8944 0.0000
vn 0.0000 0.8944 -0.4472
vn 0.0000 0.8944 0.4472
vn 0.4472 0.8944 0.0000
usemtl Material
s off
f 100/126/65 104/127/65 105/128/65 101/129/65
f 104/127/66 102/130/66 103/131/66 105/128/66
f 100/132/67 98/133/67 102/130/67 104/127/67
f 99/134/68 107/135/68 106/136/68 103/131/68 102/130/68 98/133/68
f 100/126/69 101/129/69 108/137/69 109/138/69 99/134/69 98/133/69
usemtl PathFace
f 97/139/70 106/136/70 107/135/70 112/140/70 109/138/70 108/137/70
f 106/136/71 97/139/71 105/128/71 103/131/71
f 101/129/72 105/128/72 97/139/72 108/137/72
f 99/134/73 109/138/73 112/140/73
f 99/134/74 112/140/74 107/135/74
l 110 107
l 110 107
l 110 109
l 111 110
l 110 112
o foil.through.4.3_through.248
v 21.000002 -0.500000 -6.999998
v 21.000002 0.500000 -6.999998
v 20.999998 -0.500000 -4.999998
v 20.999998 0.500000 -4.999998
v 19.000002 -0.500000 -7.000002
v 19.000002 0.500000 -7.000002
v 18.999998 -0.500000 -5.000002
v 18.999998 0.500000 -5.000002
v 19.499998 0.250000 -5.000001
v 19.500002 0.250000 -7.000001
v 20.499998 0.250000 -4.999999
v 20.500002 0.250000 -6.999999
vt 0.375000 0.000000
vt 0.625000 0.000000
vt 0.625000 0.250000
vt 0.375000 0.250000
vt 0.375000 0.500000
vt 0.625000 0.500000
vt 0.625000 0.750000
vt 0.375000 0.750000
vt 0.152781 0.750000
vt 0.152781 0.500000
vt 0.125000 0.500000
vt 0.125000 0.750000
vt 0.282406 0.500000
vt 0.282406 0.750000
vn 1.0000 0.0000 0.0000
vn -1.0000 0.0000 -0.0000
vn -0.0000 0.0000 1.0000
vn 0.0000 -1.0000 0.0000
vn 0.0000 0.0000 -1.0000
vn -0.4472 0.8944 -0.0000
vn 0.4472 0.8944 0.0000
vn 0.0000 1.0000 0.0000
usemtl Material
s off
f 113/141/75 114/142/75 116/143/75 115/144/75
f 119/145/76 120/146/76 118/147/76 117/148/76
f 116/143/77 123/149/77 121/150/77 120/146/77 119/145/77 115/151/77
f 115/151/78 119/145/78 117/148/78 113/152/78
f 114/142/79 113/152/79 117/148/79 118/147/79 122/153/79 124/154/79
usemtl PathFace
f 114/142/80 124/154/80 123/149/80 116/143/80
f 120/146/81 121/150/81 122/153/81 118/147/81
f 123/149/82 124/154/82 122/153/82 121/150/82
o foil.corner.4.4_corner.1168
v 20.500000 0.250000 -8.500000
v 19.000000 -0.500000 -7.000000
v 19.000000 0.500000 -7.000000
v 21.000000 -0.500000 -7.000000
v 21.000000 0.500000 -7.000000
v 19.000000 -0.500000 -9.000000
v 19.000000 0.500000 -9.000000
v 21.000000 -0.500000 -9.000000
v 21.000000 0.500000 -9.000000
v 19.000000 0.250000 -8.500000
v 19.000000 0.250000 -7.500000
v 20.500000 0.250000 -7.000000
v 19.500000 0.250000 -7.000000
v 19.500000 0.000000 -7.500000
v 19.500000 0.000000 -7.500000
v 19.500000 0.250000 -7.500000
vt 0.375000 0.250000
vt 0.375000 0.500000
vt 0.625000 0.500000
vt 0.625000 0.250000
vt 0.375000 0.750000
vt 0.625000 0.750000
vt 0.125000 0.500000
vt 0.125000 0.750000
vt 0.000000 0.000000
vt 0.500000 0.937500
vt 0.500000 0.812500
vt 0.500000 0.187500
vt 0.500000 0.062500
vt 0.375000 0.250000
vt 0.000000 0.000000
vn 1.0000 0.0000 0.0000
vn 0.0000 0.0000 -1.0000
vn 0.0000 -1.0000 0.0000
vn -1.0000 0.0000 0.0000
vn 0.0000 0.0000 1.0000
vn 0.0000 1.0000 0.0000
vn 0.0000 0.8944 0.4472
vn -0.4472 0.8944 0.0000
vn 0.4472 0.8944 0.0000
vn 0.0000 0.8944 -0.4472
usemtl Material
s off
f 128/155/83 132/156/83 133/157/83 129/158/83
f 132/156/84 130/159/84 131/160/84 133/157/84
f 128/161/85 126/162/85 130/159/85 132/156/85
f 127/163/86 135/164/86 134/165/86 131/160/86 130/159/86 126/162/86
f 128/155/87 129/158/87 136/166/87 137/167/87 127/163/87 126/162/87
usemtl PathFace
f 125/168/88 134/165/88 135/164/88 140/169/88 137/167/88 136/166/88
f 134/165/89 125/168/89 133/157/89 131/160/89
f 129/158/90 133/157/90 125/168/90 136/166/90
f 127/163/91 137/167/91 140/169/91
f 127/163/92 140/169/92 135/164/92
l 138 135
l 138 135
l 138 137
l 139 138
l 138 140
