# Blender v2.90.1 OBJ File: 'script_generator.blend'
# www.blender.org
mtllib 45f_path.mtl
o foil.ending.0.3_ending.479
v 11.500000 0.250000 -5.500000
v 12.500000 0.250000 -5.500000
v 11.000000 -0.500000 -7.000000
v 11.000000 0.500000 -7.000000
v 11.000000 -0.500000 -5.000000
v 11.000000 0.500000 -5.000000
v 13.000000 -0.500000 -7.000000
v 13.000000 0.500000 -7.000000
v 13.000000 -0.500000 -5.000000
v 13.000000 0.500000 -5.000000
v 12.500000 0.250000 -7.000000
v 11.500000 0.250000 -7.000000
v 12.500000 0.500000 -5.000000
v 11.500000 0.500000 -5.000000
v 13.000000 0.500000 -5.500000
v 11.000000 0.500000 -5.500000
vt 0.125000 0.500000
vt 0.375000 0.500000
vt 0.625000 0.500000
vt 0.000000 0.000000
vt 0.000000 0.000000
vt 0.625000 0.250000
vt 0.375000 0.000000
vt 0.375000 0.250000
vt 0.625000 0.187500
vt 0.625000 0.000000
vt 0.375000 0.750000
vt 0.625000 0.750000
vt 0.625000 0.562500
vt 0.125000 0.750000
vt 0.000000 0.000000
vt 0.000000 0.000000
vt 0.000000 0.000000
vt 0.000000 0.000000
vt 0.000000 0.000000
vt 0.000000 0.000000
vt 0.000000 0.000000
vt 0.000000 0.000000
vt 0.000000 0.000000
vt 0.000000 0.000000
vt 0.125000 0.500000
vt 0.312500 0.500000
vt 0.312500 0.750000
vt 0.125000 0.750000
vt 0.000000 0.000000
vt 0.000000 0.000000
vn 0.0000 0.0000 1.0000
vn -1.0000 0.0000 0.0000
vn 0.0000 1.0000 0.0000
vn 1.0000 0.0000 0.0000
vn 0.0000 -1.0000 0.0000
vn 0.0000 0.0000 -1.0000
vn -0.4082 0.8165 -0.4082
vn 0.4082 0.8165 -0.4082
vn 0.0000 0.8944 -0.4472
vn -0.4472 0.8944 0.0000
vn 0.4472 0.8944 0.0000
usemtl Material
s off
f 5/1/1 9/2/1 10/3/1 13/4/1 14/5/1 6/6/1
f 3/7/2 5/8/2 6/6/2 16/9/2 4/10/2
f 16/9/3 6/6/3 14/5/3
f 9/2/4 7/11/4 8/12/4 15/13/4 10/3/4
f 15/13/3 13/4/3 10/3/3
f 5/1/5 3/14/5 7/11/5 9/2/5
f 10/15/4 9/16/4 7/17/4 8/18/4
f 6/19/2 4/20/2 3/21/2 5/22/2
f 3/21/6 4/20/6 12/23/6 11/24/6 8/18/6 7/17/6
usemtl PathFace
f 2/25/3 11/26/3 12/27/3 1/28/3
f 13/4/7 15/13/7 2/29/7
f 16/9/8 14/5/8 1/30/8
f 1/30/9 14/5/9 13/4/9 2/29/9
f 11/26/10 2/29/10 15/13/10 8/12/10
f 1/28/11 12/27/11 4/10/11 16/9/11
o foil.corner.0.4_corner.1182
v 11.500000 0.250000 -8.500000
v 13.000000 -0.500000 -7.000000
v 13.000000 0.500000 -7.000000
v 13.000000 -0.500000 -9.000000
v 13.000000 0.500000 -9.000000
v 11.000000 -0.500000 -7.000000
v 11.000000 0.500000 -7.000000
v 11.000000 -0.500000 -9.000000
v 11.000000 0.500000 -9.000000
v 11.500000 0.250000 -7.000000
v 12.500000 0.250000 -7.000000
v 13.000000 0.250000 -8.500000
v 13.000000 0.250000 -7.500000
v 12.500000 0.000000 -7.500000
v 12.500000 0.000000 -7.500000
v 12.500000 0.250000 -7.500000
vt 0.375000 0.250000
vt 0.375000 0.500000
vt 0.625000 0.500000
vt 0.625000 0.250000
vt 0.375000 0.750000
vt 0.625000 0.750000
vt 0.125000 0.500000
vt 0.125000 0.750000
vt 0.000000 0.000000
vt 0.500000 0.937500
vt 0.500000 0.812500
vt 0.500000 0.187500
vt 0.500000 0.062500
vt 0.375000 0.250000
vt 0.000000 0.000000
vn 0.0000 0.0000 -1.0000
vn -1.0000 0.0000 0.0000
vn 0.0000 -1.0000 0.0000
vn 0.0000 0.0000 1.0000
vn 1.0000 0.0000 0.0000
vn 0.0000 1.0000 0.0000
vn 0.4472 0.8944 0.0000
vn 0.0000 0.8944 0.4472
vn 0.0000 0.8944 -0.4472
vn -0.4472 0.8944 0.0000
usemtl Material
s off
f 20/31/12 24/32/12 25/33/12 21/34/12
f 24/32/13 22/35/13 23/36/13 25/33/13
f 20/37/14 18/38/14 22/35/14 24/32/14
f 19/39/15 27/40/15 26/41/15 23/36/15 22/35/15 18/38/15
f 20/31/16 21/34/16 28/42/16 29/43/16 19/39/16 18/38/16
usemtl PathFace
f 17/44/17 26/41/17 27/40/17 32/45/17 29/43/17 28/42/17
f 26/41/18 17/44/18 25/33/18 23/36/18
f 21/34/19 25/33/19 17/44/19 28/42/19
f 19/39/20 29/43/20 32/45/20
f 19/39/21 32/45/21 27/40/21
l 30 27
l 30 27
l 30 29
l 31 30
l 30 32
o foil.corner.1.3_corner.1183
v 13.500000 0.250000 -5.500000
v 15.000000 -0.500000 -7.000000
v 15.000000 0.500000 -7.000000
v 13.000000 -0.500000 -7.000000
v 13.000000 0.500000 -7.000000
v 15.000000 -0.500000 -5.000000
v 15.000000 0.500000 -5.000000
v 13.000000 -0.500000 -5.000000
v 13.000000 0.500000 -5.000000
v 15.000000 0.250000 -5.500000
v 15.000000 0.250000 -6.500000
v 13.500000 0.250000 -7.000000
v 14.500000 0.250000 -7.000000
v 14.500000 0.000000 -6.500000
v 14.500000 0.000000 -6.500000
v 14.500000 0.250000 -6.500000
vt 0.375000 0.250000
vt 0.375000 0.500000
vt 0.625000 0.500000
vt 0.625000 0.250000
vt 0.375000 0.750000
vt 0.625000 0.750000
vt 0.125000 0.500000
vt 0.125000 0.750000
vt 0.000000 0.000000
vt 0.500000 0.937500
vt 0.500000 0.812500
vt 0.500000 0.187500
vt 0.500000 0.062500
vt 0.375000 0.250000
vt 0.000000 0.000000
vn -1.0000 0.0000 0.0000
vn 0.0000 0.0000 1.0000
vn 0.0000 -1.0000 0.0000
vn 1.0000 0.0000 0.0000
vn 0.0000 0.0000 -1.0000
vn 0.0000 1.0000 0.0000
vn 0.0000 0.8944 -0.4472
vn 0.4472 0.8944 0.0000
vn -0.4472 0.8944 0.0000
vn 0.0000 0.8944 0.4472
usemtl Material
s off
f 36/46/22 40/47/22 41/48/22 37/49/22
f 40/47/23 38/50/23 39/51/23 41/48/23
f 36/52/24 34/53/24 38/50/24 40/47/24
f 35/54/25 43/55/25 42/56/25 39/51/25 38/50/25 34/53/25
f 36/46/26 37/49/26 44/57/26 45/58/26 35/54/26 34/53/26
usemtl PathFace
f 33/59/27 42/56/27 43/55/27 48/60/27 45/58/27 44/57/27
f 42/56/28 33/59/28 41/48/28 39/51/28
f 37/49/29 41/48/29 33/59/29 44/57/29
f 35/54/30 45/58/30 48/60/30
f 35/54/31 48/60/31 43/55/31
l 46 43
l 46 43
l 46 45
l 47 46
l 46 48
o foil.corner.1.4_corner.1184
v 14.500000 0.250000 -8.500000
v 13.000000 -0.500000 -7.000000
v 13.000000 0.500000 -7.000000
v 15.000000 -0.500000 -7.000000
v 15.000000 0.500000 -7.000000
v 13.000000 -0.500000 -9.000000
v 13.000000 0.500000 -9.000000
v 15.000000 -0.500000 -9.000000
v 15.000000 0.500000 -9.000000
v 13.000000 0.250000 -8.500000
v 13.000000 0.250000 -7.500000
v 14.500000 0.250000 -7.000000
v 13.500000 0.250000 -7.000000
v 13.500000 0.000000 -7.500000
v 13.500000 0.000000 -7.500000
v 13.500000 0.250000 -7.500000
vt 0.375000 0.250000
vt 0.375000 0.500000
vt 0.625000 0.500000
vt 0.625000 0.250000
vt 0.375000 0.750000
vt 0.625000 0.750000
vt 0.125000 0.500000
vt 0.125000 0.750000
vt 0.000000 0.000000
vt 0.500000 0.937500
vt 0.500000 0.812500
vt 0.500000 0.187500
vt 0.500000 0.062500
vt 0.375000 0.250000
vt 0.000000 0.000000
vn 1.0000 0.0000 0.0000
vn 0.0000 0.0000 -1.0000
vn 0.0000 -1.0000 0.0000
vn -1.0000 0.0000 0.0000
vn 0.0000 0.0000 1.0000
vn 0.0000 1.0000 0.0000
vn 0.0000 0.8944 0.4472
vn -0.4472 0.8944 0.0000
vn 0.4472 0.8944 0.0000
vn 0.0000 0.8944 -0.4472
usemtl Material
s off
f 52/61/32 56/62/32 57/63/32 53/64/32
f 56/62/33 54/65/33 55/66/33 57/63/33
f 52/67/34 50/68/34 54/65/34 56/62/34
f 51/69/35 59/70/35 58/71/35 55/66/35 54/65/35 50/68/35
f 52/61/36 53/64/36 60/72/36 61/73/36 51/69/36 50/68/36
usemtl PathFace
f 49/74/37 58/71/37 59/70/37 64/75/37 61/73/37 60/72/37
f 58/71/38 49/74/38 57/63/38 55/66/38
f 53/64/39 57/63/39 49/74/39 60/72/39
f 51/69/40 61/73/40 64/75/40
f 51/69/41 64/75/41 59/70/41
l 62 59
l 62 59
l 62 61
l 63 62
l 62 64
o foil.through.2.3_through.254
v 15.000004 -0.500000 -7.000004
v 15.000004 0.500000 -7.000004
v 17.000004 -0.500000 -6.999996
v 17.000004 0.500000 -6.999996
v 14.999996 -0.500000 -5.000004
v 14.999996 0.500000 -5.000004
v 16.999996 -0.500000 -4.999996
v 16.999996 0.500000 -4.999996
v 16.999998 0.250000 -5.499996
v 14.999998 0.250000 -5.500004
v 17.000002 0.250000 -6.499996
v 15.000002 0.250000 -6.500004
vt 0.375000 0.000000
vt 0.625000 0.000000
vt 0.625000 0.250000
vt 0.375000 0.250000
vt 0.375000 0.500000
vt 0.625000 0.500000
vt 0.625000 0.750000
vt 0.375000 0.750000
vt 0.152781 0.750000
vt 0.152781 0.500000
vt 0.125000 0.500000
vt 0.125000 0.750000
vt 0.282406 0.500000
vt 0.282406 0.750000
vn 0.0000 0.0000 -1.0000
vn -0.0000 0.0000 1.0000
vn 1.0000 0.0000 0.0000
vn 0.0000 -1.0000 0.0000
vn -1.0000 0.0000 -0.0000
vn -0.0000 0.8944 0.4472
vn 0.0000 0.8944 -0.4472
vn 0.0000 1.0000 0.0000
usemtl Material
s off
f 65/76/42 66/77/42 68/78/42 67/79/42
f 71/80/43 72/81/43 70/82/43 69/83/43
f 68/78/44 75/84/44 73/85/44 72/81/44 71/80/44 67/86/44
f 67/86/45 71/80/45 69/83/45 65/87/45
f 66/77/46 65/87/46 69/83/46 70/82/46 74/88/46 76/89/46
usemtl PathFace
f 66/77/47 76/89/47 75/84/47 68/78/47
f 72/81/48 73/85/48 74/88/48 70/82/48
f 75/84/49 76/89/49 74/88/49 73/85/49
o foil.hole.3.0_Cube.241
v 17.500000 0.250000 -0.500000
v 17.000000 -0.500000 -1.000000
v 17.000000 0.500000 -1.000000
v 17.500000 0.500000 -1.000000
v 17.000000 0.500000 -0.500000
v 18.500000 0.250000 -0.500000
v 19.000000 -0.500000 -1.000000
v 19.000000 0.500000 -1.000000
v 18.500000 0.500000 -1.000000
v 19.000000 0.500000 -0.500000
v 17.500000 0.250000 0.500000
v 17.000000 -0.500000 1.000000
v 17.000000 0.500000 1.000000
v 17.500000 0.500000 1.000000
v 17.000000 0.500000 0.500000
v 18.500000 0.250000 0.500000
v 19.000000 -0.500000 1.000000
v 19.000000 0.500000 1.000000
v 18.500000 0.500000 1.000000
v 19.000000 0.500000 0.500000
vt 0.625000 0.187500
vt 0.000000 0.000000
vt 0.625000 0.250000
vt 0.375000 0.812500
vt 0.375000 0.750000
vt 1.000000 1.000000
vt 0.375000 0.812500
vt 0.375000 0.750000
vt 1.000000 1.000000
vt 0.625000 0.187500
vt 0.000000 0.000000
vt 0.625000 0.250000
vt 0.875000 0.500000
vt 0.000000 0.000000
vt 0.125000 0.500000
vt 0.000000 0.000000
vt 0.000000 0.000000
vt 1.000000 1.000000
vt 1.000000 1.000000
vt 0.000000 0.000000
vt 0.000000 0.000000
vn 0.0000 1.0000 0.0000
vn 0.0000 0.0000 -1.0000
vn 1.0000 0.0000 0.0000
vn -1.0000 0.0000 0.0000
vn 0.0000 0.0000 1.0000
vn 0.0000 -1.0000 0.0000
vn 0.4082 0.8165 0.4082
vn -0.4082 0.8165 0.4082
vn 0.4472 0.8944 0.0000
vn 0.4082 0.8165 -0.4082
vn -0.4472 0.8944 0.0000
vn -0.4082 0.8165 -0.4082
vn 0.0000 0.8944 0.4472
vn 0.0000 0.8944 -0.4472
usemtl Material
s off
f 81/90/50 80/91/50 79/92/50
f 86/93/50 84/94/50 85/95/50
f 91/96/50 89/97/50 90/98/50
f 96/99/50 95/100/50 94/101/50
f 79/92/51 80/91/51 85/95/51 84/94/51 83/102/51 78/103/51
f 84/94/52 86/93/52 96/99/52 94/101/52 93/104/52 83/102/52
f 78/103/53 88/105/53 89/97/53 91/96/53 81/90/53 79/92/53
f 89/97/54 88/105/54 93/104/54 94/101/54 95/100/54 90/98/54
f 88/105/55 78/103/55 83/102/55 93/104/55
usemtl PathFace
f 81/90/56 77/106/56 80/91/56
f 86/93/57 85/95/57 82/107/57
f 81/90/58 91/96/58 87/108/58 77/106/58
f 91/96/59 90/98/59 87/108/59
f 82/107/50 77/106/50 87/109/50 92/110/50
f 86/93/60 82/107/60 92/110/60 96/99/60
f 96/99/61 92/110/61 95/100/61
f 80/91/62 77/106/62 82/107/62 85/95/62
f 90/98/63 95/100/63 92/110/63 87/109/63
o foil.corner.3.3_corner.1185
v 18.500000 0.250000 -5.500000
v 17.000000 -0.500000 -7.000000
v 17.000000 0.500000 -7.000000
v 17.000000 -0.500000 -5.000000
v 17.000000 0.500000 -5.000000
v 19.000000 -0.500000 -7.000000
v 19.000000 0.500000 -7.000000
v 19.000000 -0.500000 -5.000000
v 19.000000 0.500000 -5.000000
v 18.500000 0.250000 -7.000000
v 17.500000 0.250000 -7.000000
v 17.000000 0.250000 -5.500000
v 17.000000 0.250000 -6.500000
v 17.500000 0.000000 -6.500000
v 17.500000 0.000000 -6.500000
v 17.500000 0.250000 -6.500000
vt 0.375000 0.250000
vt 0.375000 0.500000
vt 0.625000 0.500000
vt 0.625000 0.250000
vt 0.375000 0.750000
vt 0.625000 0.750000
vt 0.125000 0.500000
vt 0.125000 0.750000
vt 0.000000 0.000000
vt 0.500000 0.937500
vt 0.500000 0.812500
vt 0.500000 0.187500
vt 0.500000 0.062500
vt 0.375000 0.250000
vt 0.000000 0.000000
vn 0.0000 0.0000 1.0000
vn 1.0000 0.0000 0.0000
vn 0.0000 -1.0000 0.0000
vn 0.0000 0.0000 -1.0000
vn -1.0000 0.0000 0.0000
vn 0.0000 1.0000 0.0000
vn -0.4472 0.8944 0.0000
vn 0.0000 0.8944 -0.4472
vn 0.0000 0.8944 0.4472
vn 0.4472 0.8944 0.0000
usemtl Material
s off
f 100/111/64 104/112/64 105/113/64 101/114/64
f 104/112/65 102/115/65 103/116/65 105/113/65
f 100/117/66 98/118/66 102/115/66 104/112/66
f 99/119/67 107/120/67 106/121/67 103/116/67 102/115/67 98/118/67
f 100/111/68 101/114/68 108/122/68 109/123/68 99/119/68 98/118/68
usemtl PathFace
f 97/124/69 106/121/69 107/120/69 112/125/69 109/123/69 108/122/69
f 106/121/70 97/124/70 105/113/70 103/116/70
f 101/114/71 105/113/71 97/124/71 108/122/71
f 99/119/72 109/123/72 112/125/72
f 99/119/73 112/125/73 107/120/73
l 110 107
l 110 107
l 110 109
l 111 110
l 110 112
o foil.corner.3.4_corner.1186
v 17.500000 0.250000 -8.500000
v 19.000000 -0.500000 -7.000000
v 19.000000 0.500000 -7.000000
v 19.000000 -0.500000 -9.000000
v 19.000000 0.500000 -9.000000
v 17.000000 -0.500000 -7.000000
v 17.000000 0.500000 -7.000000
v 17.000000 -0.500000 -9.000000
v 17.000000 0.500000 -9.000000
v 17.500000 0.250000 -7.000000
v 18.500000 0.250000 -7.000000
v 19.000000 0.250000 -8.500000
v 19.000000 0.250000 -7.500000
v 18.500000 0.000000 -7.500000
v 18.500000 0.000000 -7.500000
v 18.500000 0.250000 -7.500000
vt 0.375000 0.250000
vt 0.375000 0.500000
vt 0.625000 0.500000
vt 0.625000 0.250000
vt 0.375000 0.750000
vt 0.625000 0.750000
vt 0.125000 0.500000
vt 0.125000 0.750000
vt 0.000000 0.000000
vt 0.500000 0.937500
vt 0.500000 0.812500
vt 0.500000 0.187500
vt 0.500000 0.062500
vt 0.375000 0.250000
vt 0.000000 0.000000
vn 0.0000 0.0000 -1.0000
vn -1.0000 0.0000 0.0000
vn 0.0000 -1.0000 0.0000
vn 0.0000 0.0000 1.0000
vn 1.0000 0.0000 0.0000
vn 0.0000 1.0000 0.0000
vn 0.4472 0.8944 0.0000
vn 0.0000 0.8944 0.4472
vn 0.0000 0.8944 -0.4472
vn -0.4472 0.8944 0.0000
usemtl Material
s off
f 116/126/74 120/127/74 121/128/74 117/129/74
f 120/127/75 118/130/75 119/131/75 121/128/75
f 116/132/76 114/133/76 118/130/76 120/127/76
f 115/134/77 123/135/77 122/136/77 119/131/77 118/130/77 114/133/77
f 116/126/78 117/129/78 124/137/78 125/138/78 115/134/78 114/133/78
usemtl PathFace
f 113/139/79 122/136/79 123/135/79 128/140/79 125/138/79 124/137/79
f 122/136/80 113/139/80 121/128/80 119/131/80
f 117/129/81 121/128/81 113/139/81 124/137/81
f 115/134/82 125/138/82 128/140/82
f 115/134/83 128/140/83 123/135/83
l 126 123
l 126 123
l 126 125
l 127 126
l 126 128
o foil.ending.4.4_ending.480
v 20.500000 0.250000 -7.500000
v 20.500000 0.250000 -8.500000
v 19.000000 -0.500000 -7.000000
v 19.000000 0.500000 -7.000000
v 21.000000 -0.500000 -7.000000
v 21.000000 0.500000 -7.000000
v 19.000000 -0.500000 -9.000000
v 19.000000 0.500000 -9.000000
v 21.000000 -0.500000 -9.000000
v 21.000000 0.500000 -9.000000
v 19.000000 0.250000 -8.500000
v 19.000000 0.250000 -7.500000
v 21.000000 0.500000 -8.500000
v 21.000000 0.500000 -7.500000
v 20.500000 0.500000 -9.000000
v 20.500000 0.500000 -7.000000
vt 0.125000 0.500000
vt 0.375000 0.500000
vt 0.625000 0.500000
vt 0.000000 0.000000
vt 0.000000 0.000000
vt 0.625000 0.250000
vt 0.375000 0.000000
vt 0.375000 0.250000
vt 0.625000 0.187500
vt 0.625000 0.000000
vt 0.375000 0.750000
vt 0.625000 0.750000
vt 0.625000 0.562500
vt 0.125000 0.750000
vt 0.000000 0.000000
vt 0.000000 0.000000
vt 0.000000 0.000000
vt 0.000000 0.000000
vt 0.000000 0.000000
vt 0.000000 0.000000
vt 0.000000 0.000000
vt 0.000000 0.000000
vt 0.000000 0.000000
vt 0.000000 0.000000
vt 0.125000 0.500000
vt 0.312500 0.500000
vt 0.312500 0.750000
vt 0.125000 0.750000
vt 0.000000 0.000000
vt 0.000000 0.000000
vn 1.0000 0.0000 0.0000
vn 0.0000 0.0000 1.0000
vn 0.0000 1.0000 0.0000
vn 0.0000 0.0000 -1.0000
vn 0.0000 -1.0000 0.0000
vn -1.0000 0.0000 0.0000
vn -0.4082 0.8165 0.4082
vn -0.4082 0.8165 -0.4082
vn -0.4472 0.8944 0.0000
vn 0.0000 0.8944 0.4472
vn 0.0000 0.8944 -0.4472
usemtl Material
s off
f 133/141/84 137/142/84 138/143/84 141/144/84 142/145/84 134/146/84
f 131/147/85 133/148/85 134/146/85 144/149/85 132/150/85
f 144/149/86 134/146/86 142/145/86
f 137/142/87 135/151/87 136/152/87 143/153/87 138/143/87
f 143/153/86 141/144/86 138/143/86
f 133/141/88 131/154/88 135/151/88 137/142/88
f 138/155/87 137/156/87 135/157/87 136/158/87
f 134/159/85 132/160/85 131/161/85 133/162/85
f 131/161/89 132/160/89 140/163/89 139/164/89 136/158/89 135/157/89
usemtl PathFace
f 130/165/86 139/166/86 140/167/86 129/168/86
f 141/144/90 143/153/90 130/169/90
f 144/149/91 142/145/91 129/170/91
f 129/170/92 142/145/92 141/144/92 130/169/92
f 139/166/93 130/169/93 143/153/93 136/152/93
f 129/168/94 140/167/94 132/150/94 144/149/94
