# Blender v2.90.1 OBJ File: 'script_generator.blend'
# www.blender.org
mtllib 7f_path.mtl
o foil.ending.1.1_ending.327
v 13.500000 0.250000 -2.500000
v 13.500000 0.250000 -1.500000
v 15.000000 -0.500000 -3.000000
v 15.000000 0.500000 -3.000000
v 13.000000 -0.500000 -3.000000
v 13.000000 0.500000 -3.000000
v 15.000000 -0.500000 -1.000000
v 15.000000 0.500000 -1.000000
v 13.000000 -0.500000 -1.000000
v 13.000000 0.500000 -1.000000
v 15.000000 0.250000 -1.500000
v 15.000000 0.250000 -2.500000
v 13.000000 0.500000 -1.500000
v 13.000000 0.500000 -2.500000
v 13.500000 0.500000 -1.000000
v 13.500000 0.500000 -3.000000
vt 0.125000 0.500000
vt 0.375000 0.500000
vt 0.625000 0.500000
vt 0.000000 0.000000
vt 0.000000 0.000000
vt 0.625000 0.250000
vt 0.375000 0.000000
vt 0.375000 0.250000
vt 0.625000 0.187500
vt 0.625000 0.000000
vt 0.375000 0.750000
vt 0.625000 0.750000
vt 0.625000 0.562500
vt 0.125000 0.750000
vt 0.000000 0.000000
vt 0.000000 0.000000
vt 0.000000 0.000000
vt 0.000000 0.000000
vt 0.000000 0.000000
vt 0.000000 0.000000
vt 0.000000 0.000000
vt 0.000000 0.000000
vt 0.000000 0.000000
vt 0.000000 0.000000
vt 0.125000 0.500000
vt 0.312500 0.500000
vt 0.312500 0.750000
vt 0.125000 0.750000
vt 0.000000 0.000000
vt 0.000000 0.000000
vn -1.0000 0.0000 0.0000
vn 0.0000 0.0000 -1.0000
vn 0.0000 1.0000 0.0000
vn 0.0000 0.0000 1.0000
vn 0.0000 -1.0000 0.0000
vn 1.0000 0.0000 0.0000
vn 0.4082 0.8165 -0.4082
vn 0.4082 0.8165 0.4082
vn 0.4472 0.8944 0.0000
vn 0.0000 0.8944 -0.4472
vn 0.0000 0.8944 0.4472
usemtl Material
s off
f 5/1/1 9/2/1 10/3/1 13/4/1 14/5/1 6/6/1
f 3/7/2 5/8/2 6/6/2 16/9/2 4/10/2
f 16/9/3 6/6/3 14/5/3
f 9/2/4 7/11/4 8/12/4 15/13/4 10/3/4
f 15/13/3 13/4/3 10/3/3
f 5/1/5 3/14/5 7/11/5 9/2/5
f 10/15/4 9/16/4 7/17/4 8/18/4
f 6/19/2 4/20/2 3/21/2 5/22/2
f 3/21/6 4/20/6 12/23/6 11/24/6 8/18/6 7/17/6
usemtl PathFace
f 2/25/3 11/26/3 12/27/3 1/28/3
f 13/4/7 15/13/7 2/29/7
f 16/9/8 14/5/8 1/30/8
f 1/30/9 14/5/9 13/4/9 2/29/9
f 11/26/10 2/29/10 15/13/10 8/12/10
f 1/28/11 12/27/11 4/10/11 16/9/11
o foil.corner.1.2_corner.824
v 13.500000 0.250000 -3.500000
v 15.000000 -0.500000 -5.000000
v 15.000000 0.500000 -5.000000
v 13.000000 -0.500000 -5.000000
v 13.000000 0.500000 -5.000000
v 15.000000 -0.500000 -3.000000
v 15.000000 0.500000 -3.000000
v 13.000000 -0.500000 -3.000000
v 13.000000 0.500000 -3.000000
v 15.000000 0.250000 -3.500000
v 15.000000 0.250000 -4.500000
v 13.500000 0.250000 -5.000000
v 14.500000 0.250000 -5.000000
v 14.500000 0.000000 -4.500000
v 14.500000 0.000000 -4.500000
v 14.500000 0.250000 -4.500000
vt 0.375000 0.250000
vt 0.375000 0.500000
vt 0.625000 0.500000
vt 0.625000 0.250000
vt 0.375000 0.750000
vt 0.625000 0.750000
vt 0.125000 0.500000
vt 0.125000 0.750000
vt 0.000000 0.000000
vt 0.500000 0.937500
vt 0.500000 0.812500
vt 0.500000 0.187500
vt 0.500000 0.062500
vt 0.375000 0.250000
vt 0.000000 0.000000
vn -1.0000 0.0000 0.0000
vn 0.0000 0.0000 1.0000
vn 0.0000 -1.0000 0.0000
vn 1.0000 0.0000 0.0000
vn 0.0000 0.0000 -1.0000
vn 0.0000 1.0000 0.0000
vn 0.0000 0.8944 -0.4472
vn 0.4472 0.8944 0.0000
vn -0.4472 0.8944 0.0000
vn 0.0000 0.8944 0.4472
usemtl Material
s off
f 20/31/12 24/32/12 25/33/12 21/34/12
f 24/32/13 22/35/13 23/36/13 25/33/13
f 20/37/14 18/38/14 22/35/14 24/32/14
f 19/39/15 27/40/15 26/41/15 23/36/15 22/35/15 18/38/15
f 20/31/16 21/34/16 28/42/16 29/43/16 19/39/16 18/38/16
usemtl PathFace
f 17/44/17 26/41/17 27/40/17 32/45/17 29/43/17 28/42/17
f 26/41/18 17/44/18 25/33/18 23/36/18
f 21/34/19 25/33/19 17/44/19 28/42/19
f 19/39/20 29/43/20 32/45/20
f 19/39/21 32/45/21 27/40/21
l 30 27
l 30 27
l 30 29
l 31 30
l 30 32
o foil.through.1.3_through.156
v 13.000000 -0.500000 -5.000000
v 13.000000 0.500000 -5.000000
v 13.000000 -0.500000 -7.000000
v 13.000000 0.500000 -7.000000
v 15.000000 -0.500000 -5.000000
v 15.000000 0.500000 -5.000000
v 15.000000 -0.500000 -7.000000
v 15.000000 0.500000 -7.000000
v 14.500000 0.250000 -7.000000
v 14.500000 0.250000 -5.000000
v 13.500000 0.250000 -7.000000
v 13.500000 0.250000 -5.000000
vt 0.375000 0.000000
vt 0.625000 0.000000
vt 0.625000 0.250000
vt 0.375000 0.250000
vt 0.375000 0.500000
vt 0.625000 0.500000
vt 0.625000 0.750000
vt 0.375000 0.750000
vt 0.152781 0.750000
vt 0.152781 0.500000
vt 0.125000 0.500000
vt 0.125000 0.750000
vt 0.282406 0.500000
vt 0.282406 0.750000
vn -1.0000 0.0000 0.0000
vn 1.0000 0.0000 0.0000
vn 0.0000 0.0000 -1.0000
vn 0.0000 -1.0000 0.0000
vn 0.0000 0.0000 1.0000
vn 0.4472 0.8944 0.0000
vn -0.4472 0.8944 0.0000
vn 0.0000 1.0000 0.0000
usemtl Material
s off
f 33/46/22 34/47/22 36/48/22 35/49/22
f 39/50/23 40/51/23 38/52/23 37/53/23
f 36/48/24 43/54/24 41/55/24 40/51/24 39/50/24 35/56/24
f 35/56/25 39/50/25 37/53/25 33/57/25
f 34/47/26 33/57/26 37/53/26 38/52/26 42/58/26 44/59/26
usemtl PathFace
f 34/47/27 44/59/27 43/54/27 36/48/27
f 40/51/28 41/55/28 42/58/28 38/52/28
f 43/54/29 44/59/29 42/58/29 41/55/29
o foil.ending.1.4_ending.328
v 14.500000 0.250000 -8.500000
v 13.500000 0.250000 -8.500000
v 15.000000 -0.500000 -7.000000
v 15.000000 0.500000 -7.000000
v 15.000000 -0.500000 -9.000000
v 15.000000 0.500000 -9.000000
v 13.000000 -0.500000 -7.000000
v 13.000000 0.500000 -7.000000
v 13.000000 -0.500000 -9.000000
v 13.000000 0.500000 -9.000000
v 13.500000 0.250000 -7.000000
v 14.500000 0.250000 -7.000000
v 13.500000 0.500000 -9.000000
v 14.500000 0.500000 -9.000000
v 13.000000 0.500000 -8.500000
v 15.000000 0.500000 -8.500000
vt 0.125000 0.500000
vt 0.375000 0.500000
vt 0.625000 0.500000
vt 0.000000 0.000000
vt 0.000000 0.000000
vt 0.625000 0.250000
vt 0.375000 0.000000
vt 0.375000 0.250000
vt 0.625000 0.187500
vt 0.625000 0.000000
vt 0.375000 0.750000
vt 0.625000 0.750000
vt 0.625000 0.562500
vt 0.125000 0.750000
vt 0.000000 0.000000
vt 0.000000 0.000000
vt 0.000000 0.000000
vt 0.000000 0.000000
vt 0.000000 0.000000
vt 0.000000 0.000000
vt 0.000000 0.000000
vt 0.000000 0.000000
vt 0.000000 0.000000
vt 0.000000 0.000000
vt 0.125000 0.500000
vt 0.312500 0.500000
vt 0.312500 0.750000
vt 0.125000 0.750000
vt 0.000000 0.000000
vt 0.000000 0.000000
vn 0.0000 0.0000 -1.0000
vn 1.0000 0.0000 0.0000
vn 0.0000 1.0000 0.0000
vn -1.0000 0.0000 0.0000
vn 0.0000 -1.0000 0.0000
vn 0.0000 0.0000 1.0000
vn 0.4082 0.8165 0.4082
vn -0.4082 0.8165 0.4082
vn 0.0000 0.8944 0.4472
vn 0.4472 0.8944 0.0000
vn -0.4472 0.8944 0.0000
usemtl Material
s off
f 49/60/30 53/61/30 54/62/30 57/63/30 58/64/30 50/65/30
f 47/66/31 49/67/31 50/65/31 60/68/31 48/69/31
f 60/68/32 50/65/32 58/64/32
f 53/61/33 51/70/33 52/71/33 59/72/33 54/62/33
f 59/72/32 57/63/32 54/62/32
f 49/60/34 47/73/34 51/70/34 53/61/34
f 54/74/33 53/75/33 51/76/33 52/77/33
f 50/78/31 48/79/31 47/80/31 49/81/31
f 47/80/35 48/79/35 56/82/35 55/83/35 52/77/35 51/76/35
usemtl PathFace
f 46/84/32 55/85/32 56/86/32 45/87/32
f 57/63/36 59/72/36 46/88/36
f 60/68/37 58/64/37 45/89/37
f 45/89/38 58/64/38 57/63/38 46/88/38
f 55/85/39 46/88/39 59/72/39 52/71/39
f 45/87/40 56/86/40 48/69/40 60/68/40
o foil.hole.2.0_Cube.165
v 15.500000 0.250000 -0.500000
v 15.000000 -0.500000 -1.000000
v 15.000000 0.500000 -1.000000
v 15.500000 0.500000 -1.000000
v 15.000000 0.500000 -0.500000
v 16.500000 0.250000 -0.500000
v 17.000000 -0.500000 -1.000000
v 17.000000 0.500000 -1.000000
v 16.500000 0.500000 -1.000000
v 17.000000 0.500000 -0.500000
v 15.500000 0.250000 0.500000
v 15.000000 -0.500000 1.000000
v 15.000000 0.500000 1.000000
v 15.500000 0.500000 1.000000
v 15.000000 0.500000 0.500000
v 16.500000 0.250000 0.500000
v 17.000000 -0.500000 1.000000
v 17.000000 0.500000 1.000000
v 16.500000 0.500000 1.000000
v 17.000000 0.500000 0.500000
vt 0.625000 0.187500
vt 0.000000 0.000000
vt 0.625000 0.250000
vt 0.375000 0.812500
vt 0.375000 0.750000
vt 1.000000 1.000000
vt 0.375000 0.812500
vt 0.375000 0.750000
vt 1.000000 1.000000
vt 0.625000 0.187500
vt 0.000000 0.000000
vt 0.625000 0.250000
vt 0.875000 0.500000
vt 0.000000 0.000000
vt 0.125000 0.500000
vt 0.000000 0.000000
vt 0.000000 0.000000
vt 1.000000 1.000000
vt 1.000000 1.000000
vt 0.000000 0.000000
vt 0.000000 0.000000
vn 0.0000 1.0000 0.0000
vn 0.0000 0.0000 -1.0000
vn 1.0000 0.0000 0.0000
vn -1.0000 0.0000 0.0000
vn 0.0000 0.0000 1.0000
vn 0.0000 -1.0000 0.0000
vn 0.4082 0.8165 0.4082
vn -0.4082 0.8165 0.4082
vn 0.4472 0.8944 0.0000
vn 0.4082 0.8165 -0.4082
vn -0.4472 0.8944 0.0000
vn -0.4082 0.8165 -0.4082
vn 0.0000 0.8944 0.4472
vn 0.0000 0.8944 -0.4472
usemtl Material
s off
f 65/90/41 64/91/41 63/92/41
f 70/93/41 68/94/41 69/95/41
f 75/96/41 73/97/41 74/98/41
f 80/99/41 79/100/41 78/101/41
f 63/92/42 64/91/42 69/95/42 68/94/42 67/102/42 62/103/42
f 68/94/43 70/93/43 80/99/43 78/101/43 77/104/43 67/102/43
f 62/103/44 72/105/44 73/97/44 75/96/44 65/90/44 63/92/44
f 73/97/45 72/105/45 77/104/45 78/101/45 79/100/45 74/98/45
f 72/105/46 62/103/46 67/102/46 77/104/46
usemtl PathFace
f 65/90/47 61/106/47 64/91/47
f 70/93/48 69/95/48 66/107/48
f 65/90/49 75/96/49 71/108/49 61/106/49
f 75/96/50 74/98/50 71/108/50
f 66/107/41 61/106/41 71/109/41 76/110/41
f 70/93/51 66/107/51 76/110/51 80/99/51
f 80/99/52 76/110/52 79/100/52
f 64/91/53 61/106/53 66/107/53 69/95/53
f 74/98/54 79/100/54 76/110/54 71/109/54
o foil.through.2.1_through.157
v 17.000004 -0.500000 -1.000004
v 17.000004 0.500000 -1.000004
v 15.000004 -0.500000 -0.999996
v 15.000004 0.500000 -0.999996
v 16.999996 -0.500000 -3.000004
v 16.999996 0.500000 -3.000004
v 14.999996 -0.500000 -2.999996
v 14.999996 0.500000 -2.999996
v 14.999998 0.250000 -2.499996
v 16.999998 0.250000 -2.500004
v 15.000002 0.250000 -1.499996
v 17.000002 0.250000 -1.500004
vt 0.375000 0.000000
vt 0.625000 0.000000
vt 0.625000 0.250000
vt 0.375000 0.250000
vt 0.375000 0.500000
vt 0.625000 0.500000
vt 0.625000 0.750000
vt 0.375000 0.750000
vt 0.152781 0.750000
vt 0.152781 0.500000
vt 0.125000 0.500000
vt 0.125000 0.750000
vt 0.282406 0.500000
vt 0.282406 0.750000
vn 0.0000 0.0000 1.0000
vn -0.0000 0.0000 -1.0000
vn -1.0000 0.0000 0.0000
vn 0.0000 -1.0000 0.0000
vn 1.0000 0.0000 -0.0000
vn -0.0000 0.8944 -0.4472
vn 0.0000 0.8944 0.4472
vn 0.0000 1.0000 0.0000
usemtl Material
s off
f 81/111/55 82/112/55 84/113/55 83/114/55
f 87/115/56 88/116/56 86/117/56 85/118/56
f 84/113/57 91/119/57 89/120/57 88/116/57 87/115/57 83/121/57
f 83/121/58 87/115/58 85/118/58 81/122/58
f 82/112/59 81/122/59 85/118/59 86/117/59 90/123/59 92/124/59
usemtl PathFace
f 82/112/60 92/124/60 91/119/60 84/113/60
f 88/116/61 89/120/61 90/123/61 86/117/61
f 91/119/62 92/124/62 90/123/62 89/120/62
o foil.through.2.2_through.158
v 15.000004 -0.500000 -5.000004
v 15.000004 0.500000 -5.000004
v 17.000004 -0.500000 -4.999996
v 17.000004 0.500000 -4.999996
v 14.999996 -0.500000 -3.000004
v 14.999996 0.500000 -3.000004
v 16.999996 -0.500000 -2.999996
v 16.999996 0.500000 -2.999996
v 16.999998 0.250000 -3.499996
v 14.999998 0.250000 -3.500004
v 17.000002 0.250000 -4.499996
v 15.000002 0.250000 -4.500004
vt 0.375000 0.000000
vt 0.625000 0.000000
vt 0.625000 0.250000
vt 0.375000 0.250000
vt 0.375000 0.500000
vt 0.625000 0.500000
vt 0.625000 0.750000
vt 0.375000 0.750000
vt 0.152781 0.750000
vt 0.152781 0.500000
vt 0.125000 0.500000
vt 0.125000 0.750000
vt 0.282406 0.500000
vt 0.282406 0.750000
vn 0.0000 0.0000 -1.0000
vn -0.0000 0.0000 1.0000
vn 1.0000 0.0000 0.0000
vn 0.0000 -1.0000 0.0000
vn -1.0000 0.0000 -0.0000
vn -0.0000 0.8944 0.4472
vn 0.0000 0.8944 -0.4472
vn 0.0000 1.0000 0.0000
usemtl Material
s off
f 93/125/63 94/126/63 96/127/63 95/128/63
f 99/129/64 100/130/64 98/131/64 97/132/64
f 96/127/65 103/133/65 101/134/65 100/130/65 99/129/65 95/135/65
f 95/135/66 99/129/66 97/132/66 93/136/66
f 94/126/67 93/136/67 97/132/67 98/131/67 102/137/67 104/138/67
usemtl PathFace
f 94/126/68 104/138/68 103/133/68 96/127/68
f 100/130/69 101/134/69 102/137/69 98/131/69
f 103/133/70 104/138/70 102/137/70 101/134/70
o foil.corner.3.1_corner.825
v 18.500000 0.250000 -1.500000
v 17.000000 -0.500000 -3.000000
v 17.000000 0.500000 -3.000000
v 17.000000 -0.500000 -1.000000
v 17.000000 0.500000 -1.000000
v 19.000000 -0.500000 -3.000000
v 19.000000 0.500000 -3.000000
v 19.000000 -0.500000 -1.000000
v 19.000000 0.500000 -1.000000
v 18.500000 0.250000 -3.000000
v 17.500000 0.250000 -3.000000
v 17.000000 0.250000 -1.500000
v 17.000000 0.250000 -2.500000
v 17.500000 0.000000 -2.500000
v 17.500000 0.000000 -2.500000
v 17.500000 0.250000 -2.500000
vt 0.375000 0.250000
vt 0.375000 0.500000
vt 0.625000 0.500000
vt 0.625000 0.250000
vt 0.375000 0.750000
vt 0.625000 0.750000
vt 0.125000 0.500000
vt 0.125000 0.750000
vt 0.000000 0.000000
vt 0.500000 0.937500
vt 0.500000 0.812500
vt 0.500000 0.187500
vt 0.500000 0.062500
vt 0.375000 0.250000
vt 0.000000 0.000000
vn 0.0000 0.0000 1.0000
vn 1.0000 0.0000 0.0000
vn 0.0000 -1.0000 0.0000
vn 0.0000 0.0000 -1.0000
vn -1.0000 0.0000 0.0000
vn 0.0000 1.0000 0.0000
vn -0.4472 0.8944 0.0000
vn 0.0000 0.8944 -0.4472
vn 0.0000 0.8944 0.4472
vn 0.4472 0.8944 0.0000
usemtl Material
s off
f 108/139/71 112/140/71 113/141/71 109/142/71
f 112/140/72 110/143/72 111/144/72 113/141/72
f 108/145/73 106/146/73 110/143/73 112/140/73
f 107/147/74 115/148/74 114/149/74 111/144/74 110/143/74 106/146/74
f 108/139/75 109/142/75 116/150/75 117/151/75 107/147/75 106/146/75
usemtl PathFace
f 105/152/76 114/149/76 115/148/76 120/153/76 117/151/76 116/150/76
f 114/149/77 105/152/77 113/141/77 111/144/77
f 109/142/78 113/141/78 105/152/78 116/150/78
f 107/147/79 117/151/79 120/153/79
f 107/147/80 120/153/80 115/148/80
l 118 115
l 118 115
l 118 117
l 119 118
l 118 120
o foil.corner.3.2_corner.826
v 18.500000 0.250000 -4.500000
v 17.000000 -0.500000 -3.000000
v 17.000000 0.500000 -3.000000
v 19.000000 -0.500000 -3.000000
v 19.000000 0.500000 -3.000000
v 17.000000 -0.500000 -5.000000
v 17.000000 0.500000 -5.000000
v 19.000000 -0.500000 -5.000000
v 19.000000 0.500000 -5.000000
v 17.000000 0.250000 -4.500000
v 17.000000 0.250000 -3.500000
v 18.500000 0.250000 -3.000000
v 17.500000 0.250000 -3.000000
v 17.500000 0.000000 -3.500000
v 17.500000 0.000000 -3.500000
v 17.500000 0.250000 -3.500000
vt 0.375000 0.250000
vt 0.375000 0.500000
vt 0.625000 0.500000
vt 0.625000 0.250000
vt 0.375000 0.750000
vt 0.625000 0.750000
vt 0.125000 0.500000
vt 0.125000 0.750000
vt 0.000000 0.000000
vt 0.500000 0.937500
vt 0.500000 0.812500
vt 0.500000 0.187500
vt 0.500000 0.062500
vt 0.375000 0.250000
vt 0.000000 0.000000
vn 1.0000 0.0000 0.0000
vn 0.0000 0.0000 -1.0000
vn 0.0000 -1.0000 0.0000
vn -1.0000 0.0000 0.0000
vn 0.0000 0.0000 1.0000
vn 0.0000 1.0000 0.0000
vn 0.0000 0.8944 0.4472
vn -0.4472 0.8944 0.0000
vn 0.4472 0.8944 0.0000
vn 0.0000 0.8944 -0.4472
usemtl Material
s off
f 124/154/81 128/155/81 129/156/81 125/157/81
f 128/155/82 126/158/82 127/159/82 129/156/82
f 124/160/83 122/161/83 126/158/83 128/155/83
f 123/162/84 131/163/84 130/164/84 127/159/84 126/158/84 122/161/84
f 124/154/85 125/157/85 132/165/85 133/166/85 123/162/85 122/161/85
usemtl PathFace
f 121/167/86 130/164/86 131/163/86 136/168/86 133/166/86 132/165/86
f 130/164/87 121/167/87 129/156/87 127/159/87
f 125/157/88 129/156/88 121/167/88 132/165/88
f 123/162/89 133/166/89 136/168/89
f 123/162/90 136/168/90 131/163/90
l 134 131
l 134 131
l 134 133
l 135 134
l 134 136
