# Blender v2.90.1 OBJ File: 'script_generator.blend'
# www.blender.org
mtllib 84s_path.mtl
o hole.0.3_Cube.318
v -0.500000 0.250000 -6.500000
v -1.000000 -0.500000 -7.000000
v -1.000000 0.500000 -7.000000
v -0.500000 0.500000 -7.000000
v -1.000000 0.500000 -6.500000
v 0.500000 0.250000 -6.500000
v 1.000000 -0.500000 -7.000000
v 1.000000 0.500000 -7.000000
v 0.500000 0.500000 -7.000000
v 1.000000 0.500000 -6.500000
v -0.500000 0.250000 -5.500000
v -1.000000 -0.500000 -5.000000
v -1.000000 0.500000 -5.000000
v -0.500000 0.500000 -5.000000
v -1.000000 0.500000 -5.500000
v 0.500000 0.250000 -5.500000
v 1.000000 -0.500000 -5.000000
v 1.000000 0.500000 -5.000000
v 0.500000 0.500000 -5.000000
v 1.000000 0.500000 -5.500000
vt 0.625000 0.187500
vt 0.000000 0.000000
vt 0.625000 0.250000
vt 0.375000 0.812500
vt 0.375000 0.750000
vt 1.000000 1.000000
vt 0.375000 0.812500
vt 0.375000 0.750000
vt 1.000000 1.000000
vt 0.625000 0.187500
vt 0.000000 0.000000
vt 0.625000 0.250000
vt 0.875000 0.500000
vt 0.000000 0.000000
vt 0.125000 0.500000
vt 0.000000 0.000000
vt 0.000000 0.000000
vt 1.000000 1.000000
vt 1.000000 1.000000
vt 0.000000 0.000000
vt 0.000000 0.000000
vn 0.0000 1.0000 0.0000
vn 0.0000 0.0000 -1.0000
vn 1.0000 0.0000 0.0000
vn -1.0000 0.0000 0.0000
vn 0.0000 0.0000 1.0000
vn 0.0000 -1.0000 0.0000
vn 0.4082 0.8165 0.4082
vn -0.4082 0.8165 0.4082
vn 0.4472 0.8944 0.0000
vn 0.4082 0.8165 -0.4082
vn -0.4472 0.8944 0.0000
vn -0.4082 0.8165 -0.4082
vn 0.0000 0.8944 0.4472
vn 0.0000 0.8944 -0.4472
usemtl Material
s off
f 5/1/1 4/2/1 3/3/1
f 10/4/1 8/5/1 9/6/1
f 15/7/1 13/8/1 14/9/1
f 20/10/1 19/11/1 18/12/1
f 3/3/2 4/2/2 9/6/2 8/5/2 7/13/2 2/14/2
f 8/5/3 10/4/3 20/10/3 18/12/3 17/15/3 7/13/3
f 2/14/4 12/16/4 13/8/4 15/7/4 5/1/4 3/3/4
f 13/8/5 12/16/5 17/15/5 18/12/5 19/11/5 14/9/5
f 12/16/6 2/14/6 7/13/6 17/15/6
usemtl PathFace
f 5/1/7 1/17/7 4/2/7
f 10/4/8 9/6/8 6/18/8
f 5/1/9 15/7/9 11/19/9 1/17/9
f 15/7/10 14/9/10 11/19/10
f 6/18/1 1/17/1 11/20/1 16/21/1
f 10/4/11 6/18/11 16/21/11 20/10/11
f 20/10/12 16/21/12 19/11/12
f 4/2/13 1/17/13 6/18/13 9/6/13
f 14/9/14 19/11/14 16/21/14 11/20/14
o corner.1.0_corner.1581
v 1.500000 0.250000 0.500000
v 3.000000 -0.500000 -1.000000
v 3.000000 0.500000 -1.000000
v 1.000000 -0.500000 -1.000000
v 1.000000 0.500000 -1.000000
v 3.000000 -0.500000 1.000000
v 3.000000 0.500000 1.000000
v 1.000000 -0.500000 1.000000
v 1.000000 0.500000 1.000000
v 3.000000 0.250000 0.500000
v 3.000000 0.250000 -0.500000
v 1.500000 0.250000 -1.000000
v 2.500000 0.250000 -1.000000
v 2.500000 0.000000 -0.500000
v 2.500000 0.000000 -0.500000
v 2.500000 0.250000 -0.500000
vt 0.375000 0.250000
vt 0.375000 0.500000
vt 0.625000 0.500000
vt 0.625000 0.250000
vt 0.375000 0.750000
vt 0.625000 0.750000
vt 0.125000 0.500000
vt 0.125000 0.750000
vt 0.000000 0.000000
vt 0.500000 0.937500
vt 0.500000 0.812500
vt 0.500000 0.187500
vt 0.500000 0.062500
vt 0.375000 0.250000
vt 0.000000 0.000000
vn -1.0000 0.0000 0.0000
vn 0.0000 0.0000 1.0000
vn 0.0000 -1.0000 0.0000
vn 1.0000 0.0000 0.0000
vn -0.0000 -0.0000 -1.0000
vn 0.0000 1.0000 0.0000
vn -0.0000 0.8944 -0.4472
vn 0.4472 0.8944 0.0000
vn -0.4472 0.8944 0.0000
vn 0.0000 0.8944 0.4472
usemtl Material
s off
f 24/22/15 28/23/15 29/24/15 25/25/15
f 28/23/16 26/26/16 27/27/16 29/24/16
f 24/28/17 22/29/17 26/26/17 28/23/17
f 23/30/18 31/31/18 30/32/18 27/27/18 26/26/18 22/29/18
f 24/22/19 25/25/19 32/33/19 33/34/19 23/30/19 22/29/19
usemtl PathFace
f 21/35/20 30/32/20 31/31/20 36/36/20 33/34/20 32/33/20
f 30/32/21 21/35/21 29/24/21 27/27/21
f 25/25/22 29/24/22 21/35/22 32/33/22
f 23/30/23 33/34/23 36/36/23
f 23/30/24 36/36/24 31/31/24
l 34 31
l 34 31
l 34 33
l 35 34
l 34 36
o corner.1.1_corner.1582
v 1.500000 0.250000 -2.500000
v 3.000000 -0.500000 -1.000000
v 3.000000 0.500000 -1.000000
v 3.000000 -0.500000 -3.000000
v 3.000000 0.500000 -3.000000
v 1.000000 -0.500000 -1.000000
v 1.000000 0.500000 -1.000000
v 1.000000 -0.500000 -3.000000
v 1.000000 0.500000 -3.000000
v 1.500000 0.250000 -1.000000
v 2.500000 0.250000 -1.000000
v 3.000000 0.250000 -2.500000
v 3.000000 0.250000 -1.500000
v 2.500000 0.000000 -1.500000
v 2.500000 0.000000 -1.500000
v 2.500000 0.250000 -1.500000
vt 0.375000 0.250000
vt 0.375000 0.500000
vt 0.625000 0.500000
vt 0.625000 0.250000
vt 0.375000 0.750000
vt 0.625000 0.750000
vt 0.125000 0.500000
vt 0.125000 0.750000
vt 0.000000 0.000000
vt 0.500000 0.937500
vt 0.500000 0.812500
vt 0.500000 0.187500
vt 0.500000 0.062500
vt 0.375000 0.250000
vt 0.000000 0.000000
vn 0.0000 0.0000 -1.0000
vn -1.0000 0.0000 0.0000
vn 0.0000 -1.0000 0.0000
vn 0.0000 0.0000 1.0000
vn 1.0000 0.0000 0.0000
vn 0.0000 1.0000 0.0000
vn 0.4472 0.8944 0.0000
vn 0.0000 0.8944 0.4472
vn 0.0000 0.8944 -0.4472
vn -0.4472 0.8944 0.0000
usemtl Material
s off
f 40/37/25 44/38/25 45/39/25 41/40/25
f 44/38/26 42/41/26 43/42/26 45/39/26
f 40/43/27 38/44/27 42/41/27 44/38/27
f 39/45/28 47/46/28 46/47/28 43/42/28 42/41/28 38/44/28
f 40/37/29 41/40/29 48/48/29 49/49/29 39/45/29 38/44/29
usemtl PathFace
f 37/50/30 46/47/30 47/46/30 52/51/30 49/49/30 48/48/30
f 46/47/31 37/50/31 45/39/31 43/42/31
f 41/40/32 45/39/32 37/50/32 48/48/32
f 39/45/33 49/49/33 52/51/33
f 39/45/34 52/51/34 47/46/34
l 50 47
l 50 47
l 50 49
l 51 50
l 50 52
o corner.1.2_corner.1583
v 1.500000 0.250000 -3.500000
v 3.000000 -0.500000 -5.000000
v 3.000000 0.500000 -5.000000
v 1.000000 -0.500000 -5.000000
v 1.000000 0.500000 -5.000000
v 3.000000 -0.500000 -3.000000
v 3.000000 0.500000 -3.000000
v 1.000000 -0.500000 -3.000000
v 1.000000 0.500000 -3.000000
v 3.000000 0.250000 -3.500000
v 3.000000 0.250000 -4.500000
v 1.500000 0.250000 -5.000000
v 2.500000 0.250000 -5.000000
v 2.500000 0.000000 -4.500000
v 2.500000 0.000000 -4.500000
v 2.500000 0.250000 -4.500000
vt 0.375000 0.250000
vt 0.375000 0.500000
vt 0.625000 0.500000
vt 0.625000 0.250000
vt 0.375000 0.750000
vt 0.625000 0.750000
vt 0.125000 0.500000
vt 0.125000 0.750000
vt 0.000000 0.000000
vt 0.500000 0.937500
vt 0.500000 0.812500
vt 0.500000 0.187500
vt 0.500000 0.062500
vt 0.375000 0.250000
vt 0.000000 0.000000
vn -1.0000 0.0000 0.0000
vn 0.0000 0.0000 1.0000
vn 0.0000 -1.0000 0.0000
vn 1.0000 0.0000 0.0000
vn 0.0000 0.0000 -1.0000
vn 0.0000 1.0000 0.0000
vn 0.0000 0.8944 -0.4472
vn 0.4472 0.8944 0.0000
vn -0.4472 0.8944 0.0000
vn 0.0000 0.8944 0.4472
usemtl Material
s off
f 56/52/35 60/53/35 61/54/35 57/55/35
f 60/53/36 58/56/36 59/57/36 61/54/36
f 56/58/37 54/59/37 58/56/37 60/53/37
f 55/60/38 63/61/38 62/62/38 59/57/38 58/56/38 54/59/38
f 56/52/39 57/55/39 64/63/39 65/64/39 55/60/39 54/59/39
usemtl PathFace
f 53/65/40 62/62/40 63/61/40 68/66/40 65/64/40 64/63/40
f 62/62/41 53/65/41 61/54/41 59/57/41
f 57/55/42 61/54/42 53/65/42 64/63/42
f 55/60/43 65/64/43 68/66/43
f 55/60/44 68/66/44 63/61/44
l 66 63
l 66 63
l 66 65
l 67 66
l 66 68
o through.1.3_through.317
v 3.000002 -0.500000 -6.999998
v 3.000002 0.500000 -6.999998
v 2.999997 -0.500000 -4.999998
v 2.999997 0.500000 -4.999998
v 1.000003 -0.500000 -7.000002
v 1.000003 0.500000 -7.000002
v 0.999997 -0.500000 -5.000002
v 0.999997 0.500000 -5.000002
v 1.499997 0.250000 -5.000001
v 1.500003 0.250000 -7.000001
v 2.499997 0.250000 -4.999999
v 2.500003 0.250000 -6.999999
vt 0.375000 0.000000
vt 0.625000 0.000000
vt 0.625000 0.250000
vt 0.375000 0.250000
vt 0.375000 0.500000
vt 0.625000 0.500000
vt 0.625000 0.750000
vt 0.375000 0.750000
vt 0.152781 0.750000
vt 0.152781 0.500000
vt 0.125000 0.500000
vt 0.125000 0.750000
vt 0.282406 0.500000
vt 0.282406 0.750000
vn 1.0000 0.0000 0.0000
vn -1.0000 0.0000 -0.0000
vn -0.0000 0.0000 1.0000
vn 0.0000 -1.0000 0.0000
vn 0.0000 -0.0000 -1.0000
vn -0.4472 0.8944 -0.0000
vn 0.4472 0.8944 0.0000
vn 0.0000 1.0000 0.0000
usemtl Material
s off
f 69/67/45 70/68/45 72/69/45 71/70/45
f 75/71/46 76/72/46 74/73/46 73/74/46
f 72/69/47 79/75/47 77/76/47 76/72/47 75/71/47 71/77/47
f 71/77/48 75/71/48 73/74/48 69/78/48
f 70/68/49 69/78/49 73/74/49 74/73/49 78/79/49 80/80/49
usemtl PathFace
f 70/68/50 80/80/50 79/75/50 72/69/50
f 76/72/51 77/76/51 78/79/51 74/73/51
f 79/75/52 80/80/52 78/79/52 77/76/52
o ending.1.4_ending.633
v 2.500000 0.250000 -8.500000
v 1.500000 0.250000 -8.500000
v 3.000000 -0.500000 -7.000000
v 3.000000 0.500000 -7.000000
v 3.000000 -0.500000 -9.000000
v 3.000000 0.500000 -9.000000
v 1.000000 -0.500000 -7.000000
v 1.000000 0.500000 -7.000000
v 1.000000 -0.500000 -9.000000
v 1.000000 0.500000 -9.000000
v 1.500000 0.250000 -7.000000
v 2.500000 0.250000 -7.000000
v 1.500000 0.500000 -9.000000
v 2.500000 0.500000 -9.000000
v 1.000000 0.500000 -8.500000
v 3.000000 0.500000 -8.500000
vt 0.125000 0.500000
vt 0.375000 0.500000
vt 0.625000 0.500000
vt 0.000000 0.000000
vt 0.000000 0.000000
vt 0.625000 0.250000
vt 0.375000 0.000000
vt 0.375000 0.250000
vt 0.625000 0.187500
vt 0.625000 0.000000
vt 0.375000 0.750000
vt 0.625000 0.750000
vt 0.625000 0.562500
vt 0.125000 0.750000
vt 0.000000 0.000000
vt 0.000000 0.000000
vt 0.000000 0.000000
vt 0.000000 0.000000
vt 0.000000 0.000000
vt 0.000000 0.000000
vt 0.000000 0.000000
vt 0.000000 0.000000
vt 0.000000 0.000000
vt 0.000000 0.000000
vt 0.125000 0.500000
vt 0.312500 0.500000
vt 0.312500 0.750000
vt 0.125000 0.750000
vt 0.000000 0.000000
vt 0.000000 0.000000
vn 0.0000 0.0000 -1.0000
vn 1.0000 0.0000 0.0000
vn 0.0000 1.0000 0.0000
vn -1.0000 0.0000 0.0000
vn 0.0000 -1.0000 -0.0000
vn 0.0000 0.0000 1.0000
vn 0.4082 0.8165 0.4082
vn -0.4082 0.8165 0.4082
vn 0.0000 0.8944 0.4472
vn 0.4472 0.8944 -0.0000
vn -0.4472 0.8944 0.0000
usemtl Material
s off
f 85/81/53 89/82/53 90/83/53 93/84/53 94/85/53 86/86/53
f 83/87/54 85/88/54 86/86/54 96/89/54 84/90/54
f 96/89/55 86/86/55 94/85/55
f 89/82/56 87/91/56 88/92/56 95/93/56 90/83/56
f 95/93/55 93/84/55 90/83/55
f 85/81/57 83/94/57 87/91/57 89/82/57
f 90/95/56 89/96/56 87/97/56 88/98/56
f 86/99/54 84/100/54 83/101/54 85/102/54
f 83/101/58 84/100/58 92/103/58 91/104/58 88/98/58 87/97/58
usemtl PathFace
f 82/105/55 91/106/55 92/107/55 81/108/55
f 93/84/59 95/93/59 82/109/59
f 96/89/60 94/85/60 81/110/60
f 81/110/61 94/85/61 93/84/61 82/109/61
f 91/106/62 82/109/62 95/93/62 88/92/62
f 81/108/63 92/107/63 84/90/63 96/89/63
o ending.2.0_ending.634
v 4.500000 0.250000 0.500000
v 4.500000 0.250000 -0.500000
v 3.000000 -0.500000 1.000000
v 3.000000 0.500000 1.000000
v 5.000000 -0.500000 1.000000
v 5.000000 0.500000 1.000000
v 3.000000 -0.500000 -1.000000
v 3.000000 0.500000 -1.000000
v 5.000000 -0.500000 -1.000000
v 5.000000 0.500000 -1.000000
v 3.000000 0.250000 -0.500000
v 3.000000 0.250000 0.500000
v 5.000000 0.500000 -0.500000
v 5.000000 0.500000 0.500000
v 4.500000 0.500000 -1.000000
v 4.500000 0.500000 1.000000
vt 0.125000 0.500000
vt 0.375000 0.500000
vt 0.625000 0.500000
vt 0.000000 0.000000
vt 0.000000 0.000000
vt 0.625000 0.250000
vt 0.375000 0.000000
vt 0.375000 0.250000
vt 0.625000 0.187500
vt 0.625000 0.000000
vt 0.375000 0.750000
vt 0.625000 0.750000
vt 0.625000 0.562500
vt 0.125000 0.750000
vt 0.000000 0.000000
vt 0.000000 0.000000
vt 0.000000 0.000000
vt 0.000000 0.000000
vt 0.000000 0.000000
vt 0.000000 0.000000
vt 0.000000 0.000000
vt 0.000000 0.000000
vt 0.000000 0.000000
vt 0.000000 0.000000
vt 0.125000 0.500000
vt 0.312500 0.500000
vt 0.312500 0.750000
vt 0.125000 0.750000
vt 0.000000 0.000000
vt 0.000000 0.000000
vn 1.0000 0.0000 0.0000
vn 0.0000 -0.0000 1.0000
vn 0.0000 1.0000 0.0000
vn -0.0000 -0.0000 -1.0000
vn 0.0000 -1.0000 0.0000
vn -1.0000 -0.0000 0.0000
vn -0.4082 0.8165 0.4082
vn -0.4082 0.8165 -0.4082
vn -0.4472 0.8944 0.0000
vn 0.0000 0.8944 0.4472
vn -0.0000 0.8944 -0.4472
usemtl Material
s off
f 101/111/64 105/112/64 106/113/64 109/114/64 110/115/64 102/116/64
f 99/117/65 101/118/65 102/116/65 112/119/65 100/120/65
f 112/119/66 102/116/66 110/115/66
f 105/112/67 103/121/67 104/122/67 111/123/67 106/113/67
f 111/123/66 109/114/66 106/113/66
f 101/111/68 99/124/68 103/121/68 105/112/68
f 106/125/67 105/126/67 103/127/67 104/128/67
f 102/129/65 100/130/65 99/131/65 101/132/65
f 99/131/69 100/130/69 108/133/69 107/134/69 104/128/69 103/127/69
usemtl PathFace
f 98/135/66 107/136/66 108/137/66 97/138/66
f 109/114/70 111/123/70 98/139/70
f 112/119/71 110/115/71 97/140/71
f 97/140/72 110/115/72 109/114/72 98/139/72
f 107/136/73 98/139/73 111/123/73 104/122/73
f 97/138/74 108/137/74 100/120/74 112/119/74
o corner.2.1_corner.1584
v 4.500000 0.250000 -1.500000
v 3.000000 -0.500000 -3.000000
v 3.000000 0.500000 -3.000000
v 3.000000 -0.500000 -1.000000
v 3.000000 0.500000 -1.000000
v 5.000000 -0.500000 -3.000000
v 5.000000 0.500000 -3.000000
v 5.000000 -0.500000 -1.000000
v 5.000000 0.500000 -1.000000
v 4.500000 0.250000 -3.000000
v 3.500000 0.250000 -3.000000
v 3.000000 0.250000 -1.500000
v 3.000000 0.250000 -2.500000
v 3.500000 0.000000 -2.500000
v 3.500000 0.000000 -2.500000
v 3.500000 0.250000 -2.500000
vt 0.375000 0.250000
vt 0.375000 0.500000
vt 0.625000 0.500000
vt 0.625000 0.250000
vt 0.375000 0.750000
vt 0.625000 0.750000
vt 0.125000 0.500000
vt 0.125000 0.750000
vt 0.000000 0.000000
vt 0.500000 0.937500
vt 0.500000 0.812500
vt 0.500000 0.187500
vt 0.500000 0.062500
vt 0.375000 0.250000
vt 0.000000 0.000000
vn 0.0000 0.0000 1.0000
vn 1.0000 0.0000 0.0000
vn 0.0000 -1.0000 0.0000
vn 0.0000 0.0000 -1.0000
vn -1.0000 0.0000 0.0000
vn 0.0000 1.0000 0.0000
vn -0.4472 0.8944 0.0000
vn 0.0000 0.8944 -0.4472
vn 0.0000 0.8944 0.4472
vn 0.4472 0.8944 0.0000
usemtl Material
s off
f 116/141/75 120/142/75 121/143/75 117/144/75
f 120/142/76 118/145/76 119/146/76 121/143/76
f 116/147/77 114/148/77 118/145/77 120/142/77
f 115/149/78 123/150/78 122/151/78 119/146/78 118/145/78 114/148/78
f 116/141/79 117/144/79 124/152/79 125/153/79 115/149/79 114/148/79
usemtl PathFace
f 113/154/80 122/151/80 123/150/80 128/155/80 125/153/80 124/152/80
f 122/151/81 113/154/81 121/143/81 119/146/81
f 117/144/82 121/143/82 113/154/82 124/152/82
f 115/149/83 125/153/83 128/155/83
f 115/149/84 128/155/84 123/150/84
l 126 123
l 126 123
l 126 125
l 127 126
l 126 128
o corner.2.2_corner.1585
v 4.500000 0.250000 -4.500000
v 3.000000 -0.500000 -3.000000
v 3.000000 0.500000 -3.000000
v 5.000000 -0.500000 -3.000000
v 5.000000 0.500000 -3.000000
v 3.000000 -0.500000 -5.000000
v 3.000000 0.500000 -5.000000
v 5.000000 -0.500000 -5.000000
v 5.000000 0.500000 -5.000000
v 3.000000 0.250000 -4.500000
v 3.000000 0.250000 -3.500000
v 4.500000 0.250000 -3.000000
v 3.500000 0.250000 -3.000000
v 3.500000 0.000000 -3.500000
v 3.500000 0.000000 -3.500000
v 3.500000 0.250000 -3.500000
vt 0.375000 0.250000
vt 0.375000 0.500000
vt 0.625000 0.500000
vt 0.625000 0.250000
vt 0.375000 0.750000
vt 0.625000 0.750000
vt 0.125000 0.500000
vt 0.125000 0.750000
vt 0.000000 0.000000
vt 0.500000 0.937500
vt 0.500000 0.812500
vt 0.500000 0.187500
vt 0.500000 0.062500
vt 0.375000 0.250000
vt 0.000000 0.000000
vn 1.0000 0.0000 0.0000
vn 0.0000 0.0000 -1.0000
vn 0.0000 -1.0000 0.0000
vn -1.0000 0.0000 0.0000
vn 0.0000 0.0000 1.0000
vn 0.0000 1.0000 0.0000
vn 0.0000 0.8944 0.4472
vn -0.4472 0.8944 0.0000
vn 0.4472 0.8944 0.0000
vn 0.0000 0.8944 -0.4472
usemtl Material
s off
f 132/156/85 136/157/85 137/158/85 133/159/85
f 136/157/86 134/160/86 135/161/86 137/158/86
f 132/162/87 130/163/87 134/160/87 136/157/87
f 131/164/88 139/165/88 138/166/88 135/161/88 134/160/88 130/163/88
f 132/156/89 133/159/89 140/167/89 141/168/89 131/164/89 130/163/89
usemtl PathFace
f 129/169/90 138/166/90 139/165/90 144/170/90 141/168/90 140/167/90
f 138/166/91 129/169/91 137/158/91 135/161/91
f 133/159/92 137/158/92 129/169/92 140/167/92
f 131/164/93 141/168/93 144/170/93
f 131/164/94 144/170/94 139/165/94
l 142 139
l 142 139
l 142 141
l 143 142
l 142 144
